<ttFont>
<head>
    <!-- Most of this table will be recalculated by the compiler -->
    <tableVersion value="1.0"/>
    <fontRevision value="1.002"/>
    <checkSumAdjustment value="0x3987959a"/>
    <magicNumber value="0x5f0f3cf5"/>
    <flags value="00000000 00001111"/>
    <unitsPerEm value="1000"/>
    <created value="Sun Jun 13 08:13:04 2021"/>
    <modified value="Mon Jun 14 15:25:58 2021"/>
    <xMin value="-157"/>
    <yMin value="-265"/>
    <xMax value="1153"/>
    <yMax value="1207"/>
    <macStyle value="00000000 00000010"/>
    <lowestRecPPEM value="6"/>
    <fontDirectionHint value="2"/>
    <indexToLocFormat value="0"/>
    <glyphDataFormat value="0"/>
  </head>
    <TTGlyph name=".notdef" xMin="50" yMin="-265" xMax="450" yMax="1000">
      <contour>
        <pt x="50" y="-265" on="1"/>
        <pt x="50" y="1000" on="1"/>
        <pt x="450" y="1000" on="1"/>
        <pt x="450" y="-265" on="1"/>
      </contour>
      <contour>
        <pt x="100" y="-215" on="1"/>
        <pt x="400" y="-215" on="1"/>
        <pt x="400" y="950" on="1"/>
        <pt x="100" y="950" on="1"/>
      </contour>
    </TTGlyph>
    <TTGlyph name="A" xMin="-32" yMin="0" xMax="652" yMax="740">
      <contour>
        <pt x="-32" y="0" on="1"/>
        <pt x="381" y="740" on="1"/>
        <pt x="554" y="740" on="1"/>
        <pt x="652" y="0" on="1"/>
        <pt x="518" y="0" on="1"/>
        <pt x="499" y="156" on="1"/>
        <pt x="203" y="156" on="1"/>
        <pt x="117" y="0" on="1"/>
      </contour>
      <contour>
        <pt x="267" y="274" on="1"/>
        <pt x="485" y="274" on="1"/>
        <pt x="445" y="598" on="1"/>
      </contour>
    </TTGlyph>
    <TTGlyph name="AE" xMin="-32" yMin="0" xMax="1052" yMax="740">
      <contour>
        <pt x="-32" y="0" on="1"/>
        <pt x="476" y="740" on="1"/>
        <pt x="1052" y="740" on="1"/>
        <pt x="1027" y="622" on="1"/>
        <pt x="682" y="622" on="1"/>
        <pt x="642" y="434" on="1"/>
        <pt x="941" y="434" on="1"/>
        <pt x="917" y="319" on="1"/>
        <pt x="618" y="319" on="1"/>
        <pt x="575" y="118" on="1"/>
        <pt x="925" y="118" on="1"/>
        <pt x="900" y="0" on="1"/>
        <pt x="415" y="0" on="1"/>
        <pt x="448" y="156" on="1"/>
        <pt x="228" y="156" on="1"/>
        <pt x="120" y="0" on="1"/>
      </contour>
      <contour>
        <pt x="308" y="273" on="1"/>
        <pt x="473" y="273" on="1"/>
        <pt x="545" y="617" on="1"/>
      </contour>
    </TTGlyph>
    <TTGlyph name="Aacute" xMin="-33" yMin="0" xMax="652" yMax="996">
      <contour>
        <pt x="541" y="816" on="1"/>
        <pt x="441" y="817" on="1"/>
        <pt x="527" y="996" on="1"/>
        <pt x="652" y="996" on="1"/>
      </contour>
      <contour>
        <pt x="-33" y="0" on="1"/>
        <pt x="380" y="740" on="1"/>
        <pt x="553" y="740" on="1"/>
        <pt x="651" y="0" on="1"/>
        <pt x="517" y="0" on="1"/>
        <pt x="498" y="156" on="1"/>
        <pt x="202" y="156" on="1"/>
        <pt x="117" y="0" on="1"/>
      </contour>
      <contour>
        <pt x="266" y="274" on="1"/>
        <pt x="484" y="274" on="1"/>
        <pt x="444" y="598" on="1"/>
      </contour>
    </TTGlyph>
    <TTGlyph name="Abreve" xMin="-33" yMin="0" xMax="687" yMax="961">
      <contour>
        <pt x="497" y="810" on="1"/>
        <pt x="445" y="810" on="0"/>
        <pt x="384" y="840" on="0"/>
        <pt x="352" y="886" on="0"/>
        <pt x="340" y="931" on="0"/>
        <pt x="340" y="961" on="0"/>
        <pt x="340" y="961" on="1"/>
        <pt x="430" y="961" on="1"/>
        <pt x="430" y="961" on="0"/>
        <pt x="429" y="939" on="0"/>
        <pt x="439" y="910" on="0"/>
        <pt x="468" y="888" on="0"/>
        <pt x="498" y="888" on="1"/>
        <pt x="528" y="888" on="0"/>
        <pt x="566" y="910" on="0"/>
        <pt x="588" y="939" on="0"/>
        <pt x="597" y="961" on="0"/>
        <pt x="597" y="961" on="1"/>
        <pt x="687" y="961" on="1"/>
        <pt x="687" y="961" on="0"/>
        <pt x="679" y="931" on="0"/>
        <pt x="658" y="886" on="0"/>
        <pt x="615" y="840" on="0"/>
        <pt x="547" y="810" on="0"/>
      </contour>
      <contour>
        <pt x="-33" y="0" on="1"/>
        <pt x="380" y="740" on="1"/>
        <pt x="553" y="740" on="1"/>
        <pt x="651" y="0" on="1"/>
        <pt x="517" y="0" on="1"/>
        <pt x="498" y="156" on="1"/>
        <pt x="202" y="156" on="1"/>
        <pt x="117" y="0" on="1"/>
      </contour>
      <contour>
        <pt x="266" y="274" on="1"/>
        <pt x="484" y="274" on="1"/>
        <pt x="444" y="598" on="1"/>
      </contour>
    </TTGlyph>
    <TTGlyph name="Acircumflex" xMin="-33" yMin="0" xMax="653" yMax="961">
      <contour>
        <pt x="293" y="809" on="1"/>
        <pt x="452" y="961" on="1"/>
        <pt x="559" y="961" on="1"/>
        <pt x="653" y="809" on="1"/>
        <pt x="552" y="809" on="1"/>
        <pt x="498" y="900" on="1"/>
        <pt x="408" y="809" on="1"/>
      </contour>
      <contour>
        <pt x="-33" y="0" on="1"/>
        <pt x="380" y="740" on="1"/>
        <pt x="553" y="740" on="1"/>
        <pt x="651" y="0" on="1"/>
        <pt x="517" y="0" on="1"/>
        <pt x="498" y="156" on="1"/>
        <pt x="202" y="156" on="1"/>
        <pt x="117" y="0" on="1"/>
      </contour>
      <contour>
        <pt x="266" y="274" on="1"/>
        <pt x="484" y="274" on="1"/>
        <pt x="444" y="598" on="1"/>
      </contour>
    </TTGlyph>
    <TTGlyph name="Adieresis" xMin="-33" yMin="0" xMax="682" yMax="960">
      <contour>
        <pt x="604" y="807" on="1"/>
        <pt x="570" y="807" on="0"/>
        <pt x="526" y="853" on="0"/>
        <pt x="526" y="883" on="1"/>
        <pt x="526" y="915" on="0"/>
        <pt x="570" y="960" on="0"/>
        <pt x="604" y="960" on="1"/>
        <pt x="637" y="960" on="0"/>
        <pt x="682" y="915" on="0"/>
        <pt x="682" y="883" on="1"/>
        <pt x="682" y="852" on="0"/>
        <pt x="637" y="807" on="0"/>
      </contour>
      <contour>
        <pt x="390" y="807" on="1"/>
        <pt x="356" y="807" on="0"/>
        <pt x="312" y="853" on="0"/>
        <pt x="312" y="883" on="1"/>
        <pt x="312" y="915" on="0"/>
        <pt x="356" y="960" on="0"/>
        <pt x="390" y="960" on="1"/>
        <pt x="423" y="960" on="0"/>
        <pt x="468" y="915" on="0"/>
        <pt x="468" y="883" on="1"/>
        <pt x="468" y="852" on="0"/>
        <pt x="423" y="807" on="0"/>
      </contour>
      <contour>
        <pt x="-33" y="0" on="1"/>
        <pt x="380" y="740" on="1"/>
        <pt x="553" y="740" on="1"/>
        <pt x="651" y="0" on="1"/>
        <pt x="517" y="0" on="1"/>
        <pt x="498" y="156" on="1"/>
        <pt x="202" y="156" on="1"/>
        <pt x="117" y="0" on="1"/>
      </contour>
      <contour>
        <pt x="266" y="274" on="1"/>
        <pt x="484" y="274" on="1"/>
        <pt x="444" y="598" on="1"/>
      </contour>
    </TTGlyph>
    <TTGlyph name="Agrave" xMin="-33" yMin="0" xMax="651" yMax="996">
      <contour>
        <pt x="424" y="816" on="1"/>
        <pt x="333" y="996" on="1"/>
        <pt x="455" y="996" on="1"/>
        <pt x="521" y="817" on="1"/>
      </contour>
      <contour>
        <pt x="-33" y="0" on="1"/>
        <pt x="380" y="740" on="1"/>
        <pt x="553" y="740" on="1"/>
        <pt x="651" y="0" on="1"/>
        <pt x="517" y="0" on="1"/>
        <pt x="498" y="156" on="1"/>
        <pt x="202" y="156" on="1"/>
        <pt x="117" y="0" on="1"/>
      </contour>
      <contour>
        <pt x="266" y="274" on="1"/>
        <pt x="484" y="274" on="1"/>
        <pt x="444" y="598" on="1"/>
      </contour>
    </TTGlyph>
    <TTGlyph name="Amacron" xMin="-33" yMin="0" xMax="664" yMax="924">
      <contour>
        <pt x="328" y="840" on="1"/>
        <pt x="346" y="924" on="1"/>
        <pt x="664" y="924" on="1"/>
        <pt x="646" y="840" on="1"/>
      </contour>
      <contour>
        <pt x="-33" y="0" on="1"/>
        <pt x="380" y="740" on="1"/>
        <pt x="553" y="740" on="1"/>
        <pt x="651" y="0" on="1"/>
        <pt x="517" y="0" on="1"/>
        <pt x="498" y="156" on="1"/>
        <pt x="202" y="156" on="1"/>
        <pt x="117" y="0" on="1"/>
      </contour>
      <contour>
        <pt x="266" y="274" on="1"/>
        <pt x="484" y="274" on="1"/>
        <pt x="444" y="598" on="1"/>
      </contour>
    </TTGlyph>
    <TTGlyph name="Aogonek" xMin="-33" yMin="-178" xMax="651" yMax="740">
      <contour>
        <pt x="-33" y="0" on="1"/>
        <pt x="380" y="740" on="1"/>
        <pt x="553" y="740" on="1"/>
        <pt x="651" y="0" on="1"/>
        <pt x="617" y="0" on="1"/>
        <pt x="617" y="0" on="0"/>
        <pt x="597" y="-9" on="0"/>
        <pt x="570" y="-26" on="0"/>
        <pt x="550" y="-51" on="0"/>
        <pt x="550" y="-67" on="1"/>
        <pt x="550" y="-82" on="0"/>
        <pt x="573" y="-101" on="0"/>
        <pt x="598" y="-101" on="1"/>
        <pt x="611" y="-101" on="0"/>
        <pt x="633" y="-97" on="0"/>
        <pt x="633" y="-97" on="1"/>
        <pt x="618" y="-172" on="1"/>
        <pt x="618" y="-172" on="0"/>
        <pt x="590" y="-178" on="0"/>
        <pt x="567" y="-178" on="1"/>
        <pt x="509" y="-178" on="0"/>
        <pt x="451" y="-131" on="0"/>
        <pt x="451" y="-94" on="1"/>
        <pt x="451" y="-58" on="0"/>
        <pt x="493" y="-13" on="0"/>
        <pt x="517" y="1" on="1"/>
        <pt x="498" y="156" on="1"/>
        <pt x="202" y="156" on="1"/>
        <pt x="117" y="0" on="1"/>
      </contour>
      <contour>
        <pt x="266" y="274" on="1"/>
        <pt x="484" y="274" on="1"/>
        <pt x="444" y="598" on="1"/>
      </contour>
    </TTGlyph>
    <TTGlyph name="Aring" xMin="-33" yMin="0" xMax="651" yMax="1068">
      <contour>
        <pt x="483" y="802" on="1"/>
        <pt x="446" y="802" on="0"/>
        <pt x="385" y="838" on="0"/>
        <pt x="349" y="899" on="0"/>
        <pt x="349" y="936" on="1"/>
        <pt x="349" y="972" on="0"/>
        <pt x="385" y="1033" on="0"/>
        <pt x="446" y="1068" on="0"/>
        <pt x="483" y="1068" on="1"/>
        <pt x="519" y="1068" on="0"/>
        <pt x="580" y="1033" on="0"/>
        <pt x="616" y="972" on="0"/>
        <pt x="616" y="936" on="1"/>
        <pt x="616" y="899" on="0"/>
        <pt x="580" y="838" on="0"/>
        <pt x="519" y="802" on="0"/>
      </contour>
      <contour>
        <pt x="483" y="879" on="1"/>
        <pt x="506" y="879" on="0"/>
        <pt x="539" y="912" on="0"/>
        <pt x="539" y="936" on="1"/>
        <pt x="539" y="959" on="0"/>
        <pt x="506" y="992" on="0"/>
        <pt x="483" y="992" on="1"/>
        <pt x="459" y="992" on="0"/>
        <pt x="426" y="959" on="0"/>
        <pt x="426" y="936" on="1"/>
        <pt x="426" y="912" on="0"/>
        <pt x="459" y="879" on="0"/>
      </contour>
      <contour>
        <pt x="-33" y="0" on="1"/>
        <pt x="380" y="740" on="1"/>
        <pt x="553" y="740" on="1"/>
        <pt x="651" y="0" on="1"/>
        <pt x="517" y="0" on="1"/>
        <pt x="498" y="156" on="1"/>
        <pt x="202" y="156" on="1"/>
        <pt x="117" y="0" on="1"/>
      </contour>
      <contour>
        <pt x="266" y="274" on="1"/>
        <pt x="484" y="274" on="1"/>
        <pt x="444" y="598" on="1"/>
      </contour>
    </TTGlyph>
    <TTGlyph name="Atilde" xMin="-33" yMin="0" xMax="682" yMax="973">
      <contour>
        <pt x="568" y="824" on="1"/>
        <pt x="541" y="824" on="0"/>
        <pt x="504" y="844" on="0"/>
        <pt x="476" y="871" on="0"/>
        <pt x="451" y="891" on="0"/>
        <pt x="437" y="891" on="1"/>
        <pt x="409" y="891" on="0"/>
        <pt x="398" y="830" on="1"/>
        <pt x="323" y="830" on="1"/>
        <pt x="331" y="870" on="0"/>
        <pt x="357" y="934" on="0"/>
        <pt x="402" y="973" on="0"/>
        <pt x="439" y="973" on="1"/>
        <pt x="466" y="973" on="0"/>
        <pt x="503" y="953" on="0"/>
        <pt x="531" y="927" on="0"/>
        <pt x="556" y="908" on="0"/>
        <pt x="569" y="908" on="1"/>
        <pt x="585" y="908" on="0"/>
        <pt x="602" y="938" on="0"/>
        <pt x="608" y="967" on="1"/>
        <pt x="682" y="967" on="1"/>
        <pt x="675" y="928" on="0"/>
        <pt x="649" y="863" on="0"/>
        <pt x="604" y="824" on="0"/>
      </contour>
      <contour>
        <pt x="-33" y="0" on="1"/>
        <pt x="380" y="740" on="1"/>
        <pt x="553" y="740" on="1"/>
        <pt x="651" y="0" on="1"/>
        <pt x="517" y="0" on="1"/>
        <pt x="498" y="156" on="1"/>
        <pt x="202" y="156" on="1"/>
        <pt x="117" y="0" on="1"/>
      </contour>
      <contour>
        <pt x="266" y="274" on="1"/>
        <pt x="484" y="274" on="1"/>
        <pt x="444" y="598" on="1"/>
      </contour>
    </TTGlyph>
    <TTGlyph name="B" xMin="18" yMin="0" xMax="668" yMax="740">
      <contour>
        <pt x="18" y="0" on="1"/>
        <pt x="175" y="740" on="1"/>
        <pt x="469" y="740" on="1"/>
        <pt x="537" y="740" on="0"/>
        <pt x="626" y="692" on="0"/>
        <pt x="668" y="617" on="0"/>
        <pt x="668" y="574" on="1"/>
        <pt x="668" y="518" on="0"/>
        <pt x="598" y="416" on="0"/>
        <pt x="533" y="395" on="1"/>
        <pt x="532" y="388" on="1"/>
        <pt x="587" y="371" on="0"/>
        <pt x="640" y="292" on="0"/>
        <pt x="640" y="243" on="1"/>
        <pt x="640" y="201" on="0"/>
        <pt x="603" y="115" on="0"/>
        <pt x="531" y="44" on="0"/>
        <pt x="427" y="0" on="0"/>
        <pt x="359" y="0" on="1"/>
      </contour>
      <contour>
        <pt x="444" y="625" on="1"/>
        <pt x="286" y="625" on="1"/>
        <pt x="245" y="432" on="1"/>
        <pt x="407" y="432" on="1"/>
        <pt x="448" y="432" on="0"/>
        <pt x="505" y="467" on="0"/>
        <pt x="534" y="519" on="0"/>
        <pt x="534" y="546" on="1"/>
        <pt x="534" y="577" on="0"/>
        <pt x="490" y="625" on="0"/>
      </contour>
      <contour>
        <pt x="391" y="328" on="1"/>
        <pt x="223" y="328" on="1"/>
        <pt x="178" y="115" on="1"/>
        <pt x="362" y="115" on="1"/>
        <pt x="405" y="115" on="0"/>
        <pt x="467" y="152" on="0"/>
        <pt x="501" y="210" on="0"/>
        <pt x="501" y="239" on="1"/>
        <pt x="501" y="274" on="0"/>
        <pt x="448" y="328" on="0"/>
      </contour>
    </TTGlyph>
    <TTGlyph name="C" xMin="57" yMin="-10" xMax="753" yMax="750">
      <contour>
        <pt x="370" y="-10" on="1"/>
        <pt x="289" y="-10" on="0"/>
        <pt x="171" y="43" on="0"/>
        <pt x="94" y="135" on="0"/>
        <pt x="57" y="252" on="0"/>
        <pt x="57" y="316" on="1"/>
        <pt x="57" y="393" on="0"/>
        <pt x="109" y="547" on="0"/>
        <pt x="211" y="674" on="0"/>
        <pt x="362" y="750" on="0"/>
        <pt x="462" y="750" on="1"/>
        <pt x="536" y="750" on="0"/>
        <pt x="638" y="712" on="0"/>
        <pt x="702" y="651" on="0"/>
        <pt x="737" y="584" on="0"/>
        <pt x="751" y="523" on="0"/>
        <pt x="753" y="485" on="0"/>
        <pt x="753" y="485" on="1"/>
        <pt x="618" y="485" on="1"/>
        <pt x="618" y="485" on="0"/>
        <pt x="616" y="514" on="0"/>
        <pt x="602" y="557" on="0"/>
        <pt x="568" y="600" on="0"/>
        <pt x="505" y="629" on="0"/>
        <pt x="455" y="629" on="1"/>
        <pt x="391" y="629" on="0"/>
        <pt x="294" y="576" on="0"/>
        <pt x="228" y="487" on="0"/>
        <pt x="194" y="380" on="0"/>
        <pt x="194" y="327" on="1"/>
        <pt x="194" y="270" on="0"/>
        <pt x="234" y="172" on="0"/>
        <pt x="317" y="112" on="0"/>
        <pt x="382" y="112" on="1"/>
        <pt x="429" y="112" on="0"/>
        <pt x="498" y="141" on="0"/>
        <pt x="544" y="183" on="0"/>
        <pt x="571" y="226" on="0"/>
        <pt x="583" y="255" on="0"/>
        <pt x="583" y="255" on="1"/>
        <pt x="718" y="255" on="1"/>
        <pt x="718" y="255" on="0"/>
        <pt x="707" y="217" on="0"/>
        <pt x="678" y="156" on="0"/>
        <pt x="628" y="89" on="0"/>
        <pt x="551" y="28" on="0"/>
        <pt x="443" y="-10" on="0"/>
      </contour>
    </TTGlyph>
    <TTGlyph name="Cacute" xMin="57" yMin="-10" xMax="753" yMax="995">
      <contour>
        <pt x="563" y="815" on="1"/>
        <pt x="463" y="816" on="1"/>
        <pt x="549" y="995" on="1"/>
        <pt x="674" y="995" on="1"/>
      </contour>
      <contour>
        <pt x="370" y="-10" on="1"/>
        <pt x="289" y="-10" on="0"/>
        <pt x="171" y="43" on="0"/>
        <pt x="94" y="135" on="0"/>
        <pt x="57" y="252" on="0"/>
        <pt x="57" y="316" on="1"/>
        <pt x="57" y="393" on="0"/>
        <pt x="109" y="547" on="0"/>
        <pt x="211" y="674" on="0"/>
        <pt x="362" y="750" on="0"/>
        <pt x="462" y="750" on="1"/>
        <pt x="536" y="750" on="0"/>
        <pt x="638" y="712" on="0"/>
        <pt x="702" y="651" on="0"/>
        <pt x="737" y="584" on="0"/>
        <pt x="751" y="523" on="0"/>
        <pt x="753" y="485" on="0"/>
        <pt x="753" y="485" on="1"/>
        <pt x="618" y="485" on="1"/>
        <pt x="618" y="485" on="0"/>
        <pt x="616" y="514" on="0"/>
        <pt x="602" y="557" on="0"/>
        <pt x="568" y="600" on="0"/>
        <pt x="505" y="629" on="0"/>
        <pt x="455" y="629" on="1"/>
        <pt x="391" y="629" on="0"/>
        <pt x="294" y="576" on="0"/>
        <pt x="228" y="487" on="0"/>
        <pt x="194" y="380" on="0"/>
        <pt x="194" y="327" on="1"/>
        <pt x="194" y="270" on="0"/>
        <pt x="234" y="172" on="0"/>
        <pt x="317" y="112" on="0"/>
        <pt x="382" y="112" on="1"/>
        <pt x="429" y="112" on="0"/>
        <pt x="498" y="141" on="0"/>
        <pt x="544" y="183" on="0"/>
        <pt x="571" y="226" on="0"/>
        <pt x="583" y="255" on="0"/>
        <pt x="583" y="255" on="1"/>
        <pt x="718" y="255" on="1"/>
        <pt x="718" y="255" on="0"/>
        <pt x="707" y="217" on="0"/>
        <pt x="678" y="156" on="0"/>
        <pt x="628" y="89" on="0"/>
        <pt x="551" y="28" on="0"/>
        <pt x="443" y="-10" on="0"/>
      </contour>
    </TTGlyph>
    <TTGlyph name="Ccaron" xMin="57" yMin="-10" xMax="753" yMax="984">
      <contour>
        <pt x="448" y="808" on="1"/>
        <pt x="359" y="984" on="1"/>
        <pt x="460" y="984" on="1"/>
        <pt x="510" y="879" on="1"/>
        <pt x="605" y="984" on="1"/>
        <pt x="719" y="984" on="1"/>
        <pt x="556" y="808" on="1"/>
      </contour>
      <contour>
        <pt x="370" y="-10" on="1"/>
        <pt x="289" y="-10" on="0"/>
        <pt x="171" y="43" on="0"/>
        <pt x="94" y="135" on="0"/>
        <pt x="57" y="252" on="0"/>
        <pt x="57" y="316" on="1"/>
        <pt x="57" y="393" on="0"/>
        <pt x="109" y="547" on="0"/>
        <pt x="211" y="674" on="0"/>
        <pt x="362" y="750" on="0"/>
        <pt x="462" y="750" on="1"/>
        <pt x="536" y="750" on="0"/>
        <pt x="638" y="712" on="0"/>
        <pt x="702" y="651" on="0"/>
        <pt x="737" y="584" on="0"/>
        <pt x="751" y="523" on="0"/>
        <pt x="753" y="485" on="0"/>
        <pt x="753" y="485" on="1"/>
        <pt x="618" y="485" on="1"/>
        <pt x="618" y="485" on="0"/>
        <pt x="616" y="514" on="0"/>
        <pt x="602" y="557" on="0"/>
        <pt x="568" y="600" on="0"/>
        <pt x="505" y="629" on="0"/>
        <pt x="455" y="629" on="1"/>
        <pt x="391" y="629" on="0"/>
        <pt x="294" y="576" on="0"/>
        <pt x="228" y="487" on="0"/>
        <pt x="194" y="380" on="0"/>
        <pt x="194" y="327" on="1"/>
        <pt x="194" y="270" on="0"/>
        <pt x="234" y="172" on="0"/>
        <pt x="317" y="112" on="0"/>
        <pt x="382" y="112" on="1"/>
        <pt x="429" y="112" on="0"/>
        <pt x="498" y="141" on="0"/>
        <pt x="544" y="183" on="0"/>
        <pt x="571" y="226" on="0"/>
        <pt x="583" y="255" on="0"/>
        <pt x="583" y="255" on="1"/>
        <pt x="718" y="255" on="1"/>
        <pt x="718" y="255" on="0"/>
        <pt x="707" y="217" on="0"/>
        <pt x="678" y="156" on="0"/>
        <pt x="628" y="89" on="0"/>
        <pt x="551" y="28" on="0"/>
        <pt x="443" y="-10" on="0"/>
      </contour>
    </TTGlyph>
    <TTGlyph name="Ccedilla" xMin="57" yMin="-261" xMax="753" yMax="750">
      <contour>
        <pt x="288" y="-261" on="1"/>
        <pt x="256" y="-261" on="0"/>
        <pt x="206" y="-251" on="0"/>
        <pt x="206" y="-251" on="1"/>
        <pt x="218" y="-179" on="1"/>
        <pt x="218" y="-179" on="0"/>
        <pt x="242" y="-183" on="0"/>
        <pt x="276" y="-187" on="0"/>
        <pt x="290" y="-187" on="1"/>
        <pt x="328" y="-187" on="0"/>
        <pt x="356" y="-159" on="0"/>
        <pt x="356" y="-144" on="1"/>
        <pt x="356" y="-129" on="0"/>
        <pt x="332" y="-107" on="0"/>
        <pt x="308" y="-107" on="1"/>
        <pt x="288" y="-107" on="0"/>
        <pt x="262" y="-120" on="0"/>
        <pt x="263" y="-120" on="1"/>
        <pt x="228" y="-76" on="1"/>
        <pt x="293" y="-3" on="1"/>
        <pt x="212" y="14" on="0"/>
        <pt x="107" y="108" on="0"/>
        <pt x="57" y="242" on="0"/>
        <pt x="57" y="316" on="1"/>
        <pt x="57" y="393" on="0"/>
        <pt x="109" y="547" on="0"/>
        <pt x="211" y="674" on="0"/>
        <pt x="362" y="750" on="0"/>
        <pt x="462" y="750" on="1"/>
        <pt x="536" y="750" on="0"/>
        <pt x="638" y="712" on="0"/>
        <pt x="702" y="651" on="0"/>
        <pt x="737" y="584" on="0"/>
        <pt x="751" y="523" on="0"/>
        <pt x="753" y="485" on="0"/>
        <pt x="753" y="485" on="1"/>
        <pt x="618" y="485" on="1"/>
        <pt x="618" y="485" on="0"/>
        <pt x="616" y="514" on="0"/>
        <pt x="602" y="557" on="0"/>
        <pt x="568" y="600" on="0"/>
        <pt x="505" y="629" on="0"/>
        <pt x="455" y="629" on="1"/>
        <pt x="391" y="629" on="0"/>
        <pt x="294" y="576" on="0"/>
        <pt x="228" y="487" on="0"/>
        <pt x="194" y="380" on="0"/>
        <pt x="194" y="327" on="1"/>
        <pt x="194" y="270" on="0"/>
        <pt x="234" y="172" on="0"/>
        <pt x="317" y="112" on="0"/>
        <pt x="382" y="112" on="1"/>
        <pt x="429" y="112" on="0"/>
        <pt x="498" y="141" on="0"/>
        <pt x="544" y="183" on="0"/>
        <pt x="571" y="226" on="0"/>
        <pt x="583" y="255" on="0"/>
        <pt x="583" y="255" on="1"/>
        <pt x="718" y="255" on="1"/>
        <pt x="718" y="255" on="0"/>
        <pt x="707" y="217" on="0"/>
        <pt x="678" y="156" on="0"/>
        <pt x="629" y="89" on="0"/>
        <pt x="553" y="28" on="0"/>
        <pt x="446" y="-10" on="0"/>
        <pt x="375" y="-10" on="1"/>
        <pt x="340" y="-48" on="1"/>
        <pt x="344" y="-48" on="1"/>
        <pt x="394" y="-48" on="0"/>
        <pt x="450" y="-105" on="0"/>
        <pt x="450" y="-144" on="1"/>
        <pt x="450" y="-172" on="0"/>
        <pt x="417" y="-226" on="0"/>
        <pt x="345" y="-261" on="0"/>
      </contour>
    </TTGlyph>
    <TTGlyph name="Cdotaccent" xMin="57" yMin="-10" xMax="753" yMax="975">
      <contour>
        <pt x="522" y="818" on="1"/>
        <pt x="487" y="818" on="0"/>
        <pt x="441" y="864" on="0"/>
        <pt x="441" y="896" on="1"/>
        <pt x="441" y="929" on="0"/>
        <pt x="487" y="975" on="0"/>
        <pt x="522" y="975" on="1"/>
        <pt x="557" y="975" on="0"/>
        <pt x="603" y="929" on="0"/>
        <pt x="603" y="896" on="1"/>
        <pt x="603" y="864" on="0"/>
        <pt x="557" y="818" on="0"/>
      </contour>
      <contour>
        <pt x="370" y="-10" on="1"/>
        <pt x="289" y="-10" on="0"/>
        <pt x="171" y="43" on="0"/>
        <pt x="94" y="135" on="0"/>
        <pt x="57" y="252" on="0"/>
        <pt x="57" y="316" on="1"/>
        <pt x="57" y="393" on="0"/>
        <pt x="109" y="547" on="0"/>
        <pt x="211" y="674" on="0"/>
        <pt x="362" y="750" on="0"/>
        <pt x="462" y="750" on="1"/>
        <pt x="536" y="750" on="0"/>
        <pt x="638" y="712" on="0"/>
        <pt x="702" y="651" on="0"/>
        <pt x="737" y="584" on="0"/>
        <pt x="751" y="523" on="0"/>
        <pt x="753" y="485" on="0"/>
        <pt x="753" y="485" on="1"/>
        <pt x="618" y="485" on="1"/>
        <pt x="618" y="485" on="0"/>
        <pt x="616" y="514" on="0"/>
        <pt x="602" y="557" on="0"/>
        <pt x="568" y="600" on="0"/>
        <pt x="505" y="629" on="0"/>
        <pt x="455" y="629" on="1"/>
        <pt x="391" y="629" on="0"/>
        <pt x="294" y="576" on="0"/>
        <pt x="228" y="487" on="0"/>
        <pt x="194" y="380" on="0"/>
        <pt x="194" y="327" on="1"/>
        <pt x="194" y="270" on="0"/>
        <pt x="234" y="172" on="0"/>
        <pt x="317" y="112" on="0"/>
        <pt x="382" y="112" on="1"/>
        <pt x="429" y="112" on="0"/>
        <pt x="498" y="141" on="0"/>
        <pt x="544" y="183" on="0"/>
        <pt x="571" y="226" on="0"/>
        <pt x="583" y="255" on="0"/>
        <pt x="583" y="255" on="1"/>
        <pt x="718" y="255" on="1"/>
        <pt x="718" y="255" on="0"/>
        <pt x="707" y="217" on="0"/>
        <pt x="678" y="156" on="0"/>
        <pt x="628" y="89" on="0"/>
        <pt x="551" y="28" on="0"/>
        <pt x="443" y="-10" on="0"/>
      </contour>
    </TTGlyph>
    <TTGlyph name="D" xMin="18" yMin="0" xMax="707" yMax="740">
      <contour>
        <pt x="18" y="0" on="1"/>
        <pt x="175" y="740" on="1"/>
        <pt x="382" y="740" on="1"/>
        <pt x="465" y="740" on="0"/>
        <pt x="587" y="688" on="0"/>
        <pt x="668" y="599" on="0"/>
        <pt x="707" y="484" on="0"/>
        <pt x="707" y="422" on="1"/>
        <pt x="707" y="347" on="0"/>
        <pt x="651" y="197" on="0"/>
        <pt x="543" y="74" on="0"/>
        <pt x="383" y="0" on="0"/>
        <pt x="279" y="0" on="1"/>
      </contour>
      <contour>
        <pt x="369" y="621" on="1"/>
        <pt x="286" y="621" on="1"/>
        <pt x="179" y="120" on="1"/>
        <pt x="288" y="120" on="1"/>
        <pt x="356" y="120" on="0"/>
        <pt x="462" y="172" on="0"/>
        <pt x="535" y="259" on="0"/>
        <pt x="572" y="363" on="0"/>
        <pt x="572" y="415" on="1"/>
        <pt x="572" y="469" on="0"/>
        <pt x="529" y="563" on="0"/>
        <pt x="439" y="621" on="0"/>
      </contour>
    </TTGlyph>
    <TTGlyph name="Dcaron" xMin="18" yMin="0" xMax="707" yMax="985">
      <contour>
        <pt x="382" y="809" on="1"/>
        <pt x="292" y="985" on="1"/>
        <pt x="394" y="985" on="1"/>
        <pt x="443" y="880" on="1"/>
        <pt x="538" y="985" on="1"/>
        <pt x="653" y="985" on="1"/>
        <pt x="489" y="809" on="1"/>
      </contour>
      <contour>
        <pt x="18" y="0" on="1"/>
        <pt x="175" y="740" on="1"/>
        <pt x="382" y="740" on="1"/>
        <pt x="465" y="740" on="0"/>
        <pt x="587" y="688" on="0"/>
        <pt x="668" y="599" on="0"/>
        <pt x="707" y="484" on="0"/>
        <pt x="707" y="422" on="1"/>
        <pt x="707" y="347" on="0"/>
        <pt x="651" y="197" on="0"/>
        <pt x="543" y="74" on="0"/>
        <pt x="383" y="0" on="0"/>
        <pt x="279" y="0" on="1"/>
      </contour>
      <contour>
        <pt x="369" y="621" on="1"/>
        <pt x="286" y="621" on="1"/>
        <pt x="179" y="120" on="1"/>
        <pt x="288" y="120" on="1"/>
        <pt x="356" y="120" on="0"/>
        <pt x="462" y="172" on="0"/>
        <pt x="535" y="259" on="0"/>
        <pt x="572" y="363" on="0"/>
        <pt x="572" y="415" on="1"/>
        <pt x="572" y="469" on="0"/>
        <pt x="529" y="563" on="0"/>
        <pt x="439" y="621" on="0"/>
      </contour>
    </TTGlyph>
    <TTGlyph name="Dcroat" xMin="20" yMin="0" xMax="743" yMax="740">
      <contour>
        <pt x="55" y="0" on="1"/>
        <pt x="121" y="315" on="1"/>
        <pt x="20" y="315" on="1"/>
        <pt x="44" y="426" on="1"/>
        <pt x="145" y="426" on="1"/>
        <pt x="212" y="740" on="1"/>
        <pt x="418" y="740" on="1"/>
        <pt x="501" y="740" on="0"/>
        <pt x="624" y="688" on="0"/>
        <pt x="704" y="599" on="0"/>
        <pt x="743" y="484" on="0"/>
        <pt x="743" y="422" on="1"/>
        <pt x="743" y="347" on="0"/>
        <pt x="688" y="197" on="0"/>
        <pt x="579" y="74" on="0"/>
        <pt x="419" y="0" on="0"/>
        <pt x="315" y="0" on="1"/>
      </contour>
      <contour>
        <pt x="389" y="315" on="1"/>
        <pt x="257" y="315" on="1"/>
        <pt x="216" y="120" on="1"/>
        <pt x="324" y="120" on="1"/>
        <pt x="393" y="120" on="0"/>
        <pt x="498" y="172" on="0"/>
        <pt x="571" y="259" on="0"/>
        <pt x="609" y="363" on="0"/>
        <pt x="609" y="415" on="1"/>
        <pt x="609" y="469" on="0"/>
        <pt x="565" y="563" on="0"/>
        <pt x="475" y="621" on="0"/>
        <pt x="405" y="621" on="1"/>
        <pt x="322" y="621" on="1"/>
        <pt x="281" y="426" on="1"/>
        <pt x="412" y="426" on="1"/>
      </contour>
    </TTGlyph>
    <TTGlyph name="E" xMin="18" yMin="0" xMax="659" yMax="740">
      <contour>
        <pt x="18" y="0" on="1"/>
        <pt x="175" y="740" on="1"/>
        <pt x="659" y="740" on="1"/>
        <pt x="635" y="622" on="1"/>
        <pt x="286" y="622" on="1"/>
        <pt x="246" y="434" on="1"/>
        <pt x="549" y="434" on="1"/>
        <pt x="525" y="319" on="1"/>
        <pt x="221" y="319" on="1"/>
        <pt x="179" y="118" on="1"/>
        <pt x="532" y="118" on="1"/>
        <pt x="507" y="0" on="1"/>
      </contour>
    </TTGlyph>
    <TTGlyph name="Eacute" xMin="18" yMin="0" xMax="655" yMax="996">
      <contour>
        <pt x="486" y="816" on="1"/>
        <pt x="386" y="817" on="1"/>
        <pt x="473" y="996" on="1"/>
        <pt x="598" y="996" on="1"/>
      </contour>
      <contour>
        <pt x="18" y="0" on="1"/>
        <pt x="175" y="740" on="1"/>
        <pt x="655" y="740" on="1"/>
        <pt x="631" y="622" on="1"/>
        <pt x="286" y="622" on="1"/>
        <pt x="246" y="434" on="1"/>
        <pt x="545" y="434" on="1"/>
        <pt x="521" y="319" on="1"/>
        <pt x="221" y="319" on="1"/>
        <pt x="179" y="118" on="1"/>
        <pt x="528" y="118" on="1"/>
        <pt x="503" y="0" on="1"/>
      </contour>
    </TTGlyph>
    <TTGlyph name="Ecaron" xMin="18" yMin="0" xMax="655" yMax="985">
      <contour>
        <pt x="372" y="809" on="1"/>
        <pt x="282" y="985" on="1"/>
        <pt x="384" y="985" on="1"/>
        <pt x="433" y="880" on="1"/>
        <pt x="528" y="985" on="1"/>
        <pt x="643" y="985" on="1"/>
        <pt x="479" y="809" on="1"/>
      </contour>
      <contour>
        <pt x="18" y="0" on="1"/>
        <pt x="175" y="740" on="1"/>
        <pt x="655" y="740" on="1"/>
        <pt x="631" y="622" on="1"/>
        <pt x="286" y="622" on="1"/>
        <pt x="246" y="434" on="1"/>
        <pt x="545" y="434" on="1"/>
        <pt x="521" y="319" on="1"/>
        <pt x="221" y="319" on="1"/>
        <pt x="179" y="118" on="1"/>
        <pt x="528" y="118" on="1"/>
        <pt x="503" y="0" on="1"/>
      </contour>
    </TTGlyph>
    <TTGlyph name="Ecircumflex" xMin="18" yMin="0" xMax="655" yMax="961">
      <contour>
        <pt x="238" y="809" on="1"/>
        <pt x="397" y="961" on="1"/>
        <pt x="504" y="961" on="1"/>
        <pt x="599" y="809" on="1"/>
        <pt x="497" y="809" on="1"/>
        <pt x="443" y="900" on="1"/>
        <pt x="353" y="809" on="1"/>
      </contour>
      <contour>
        <pt x="18" y="0" on="1"/>
        <pt x="175" y="740" on="1"/>
        <pt x="655" y="740" on="1"/>
        <pt x="631" y="622" on="1"/>
        <pt x="286" y="622" on="1"/>
        <pt x="246" y="434" on="1"/>
        <pt x="545" y="434" on="1"/>
        <pt x="521" y="319" on="1"/>
        <pt x="221" y="319" on="1"/>
        <pt x="179" y="118" on="1"/>
        <pt x="528" y="118" on="1"/>
        <pt x="503" y="0" on="1"/>
      </contour>
    </TTGlyph>
    <TTGlyph name="Edieresis" xMin="18" yMin="0" xMax="655" yMax="960">
      <contour>
        <pt x="549" y="807" on="1"/>
        <pt x="515" y="807" on="0"/>
        <pt x="471" y="853" on="0"/>
        <pt x="471" y="883" on="1"/>
        <pt x="471" y="915" on="0"/>
        <pt x="515" y="960" on="0"/>
        <pt x="549" y="960" on="1"/>
        <pt x="583" y="960" on="0"/>
        <pt x="627" y="915" on="0"/>
        <pt x="627" y="883" on="1"/>
        <pt x="627" y="852" on="0"/>
        <pt x="583" y="807" on="0"/>
      </contour>
      <contour>
        <pt x="335" y="807" on="1"/>
        <pt x="301" y="807" on="0"/>
        <pt x="257" y="853" on="0"/>
        <pt x="257" y="883" on="1"/>
        <pt x="257" y="915" on="0"/>
        <pt x="301" y="960" on="0"/>
        <pt x="335" y="960" on="1"/>
        <pt x="369" y="960" on="0"/>
        <pt x="413" y="915" on="0"/>
        <pt x="413" y="883" on="1"/>
        <pt x="413" y="852" on="0"/>
        <pt x="369" y="807" on="0"/>
      </contour>
      <contour>
        <pt x="18" y="0" on="1"/>
        <pt x="175" y="740" on="1"/>
        <pt x="655" y="740" on="1"/>
        <pt x="631" y="622" on="1"/>
        <pt x="286" y="622" on="1"/>
        <pt x="246" y="434" on="1"/>
        <pt x="545" y="434" on="1"/>
        <pt x="521" y="319" on="1"/>
        <pt x="221" y="319" on="1"/>
        <pt x="179" y="118" on="1"/>
        <pt x="528" y="118" on="1"/>
        <pt x="503" y="0" on="1"/>
      </contour>
    </TTGlyph>
    <TTGlyph name="Edotaccent" xMin="18" yMin="0" xMax="655" yMax="976">
      <contour>
        <pt x="445" y="818" on="1"/>
        <pt x="410" y="818" on="0"/>
        <pt x="365" y="865" on="0"/>
        <pt x="365" y="897" on="1"/>
        <pt x="365" y="930" on="0"/>
        <pt x="410" y="976" on="0"/>
        <pt x="445" y="976" on="1"/>
        <pt x="480" y="976" on="0"/>
        <pt x="526" y="930" on="0"/>
        <pt x="526" y="897" on="1"/>
        <pt x="526" y="865" on="0"/>
        <pt x="480" y="818" on="0"/>
      </contour>
      <contour>
        <pt x="18" y="0" on="1"/>
        <pt x="175" y="740" on="1"/>
        <pt x="655" y="740" on="1"/>
        <pt x="631" y="622" on="1"/>
        <pt x="286" y="622" on="1"/>
        <pt x="246" y="434" on="1"/>
        <pt x="545" y="434" on="1"/>
        <pt x="521" y="319" on="1"/>
        <pt x="221" y="319" on="1"/>
        <pt x="179" y="118" on="1"/>
        <pt x="528" y="118" on="1"/>
        <pt x="503" y="0" on="1"/>
      </contour>
    </TTGlyph>
    <TTGlyph name="Egrave" xMin="18" yMin="0" xMax="655" yMax="996">
      <contour>
        <pt x="370" y="816" on="1"/>
        <pt x="278" y="996" on="1"/>
        <pt x="400" y="996" on="1"/>
        <pt x="466" y="817" on="1"/>
      </contour>
      <contour>
        <pt x="18" y="0" on="1"/>
        <pt x="175" y="740" on="1"/>
        <pt x="655" y="740" on="1"/>
        <pt x="631" y="622" on="1"/>
        <pt x="286" y="622" on="1"/>
        <pt x="246" y="434" on="1"/>
        <pt x="545" y="434" on="1"/>
        <pt x="521" y="319" on="1"/>
        <pt x="221" y="319" on="1"/>
        <pt x="179" y="118" on="1"/>
        <pt x="528" y="118" on="1"/>
        <pt x="503" y="0" on="1"/>
      </contour>
    </TTGlyph>
    <TTGlyph name="Emacron" xMin="18" yMin="0" xMax="655" yMax="924">
      <contour>
        <pt x="273" y="840" on="1"/>
        <pt x="291" y="924" on="1"/>
        <pt x="610" y="924" on="1"/>
        <pt x="591" y="840" on="1"/>
      </contour>
      <contour>
        <pt x="18" y="0" on="1"/>
        <pt x="175" y="740" on="1"/>
        <pt x="655" y="740" on="1"/>
        <pt x="631" y="622" on="1"/>
        <pt x="286" y="622" on="1"/>
        <pt x="246" y="434" on="1"/>
        <pt x="545" y="434" on="1"/>
        <pt x="521" y="319" on="1"/>
        <pt x="221" y="319" on="1"/>
        <pt x="179" y="118" on="1"/>
        <pt x="528" y="118" on="1"/>
        <pt x="503" y="0" on="1"/>
      </contour>
    </TTGlyph>
    <TTGlyph name="Eogonek" xMin="18" yMin="-178" xMax="655" yMax="740">
      <contour>
        <pt x="18" y="0" on="1"/>
        <pt x="175" y="740" on="1"/>
        <pt x="655" y="740" on="1"/>
        <pt x="631" y="622" on="1"/>
        <pt x="286" y="622" on="1"/>
        <pt x="246" y="434" on="1"/>
        <pt x="545" y="434" on="1"/>
        <pt x="521" y="319" on="1"/>
        <pt x="221" y="319" on="1"/>
        <pt x="179" y="118" on="1"/>
        <pt x="528" y="118" on="1"/>
        <pt x="503" y="0" on="1"/>
        <pt x="503" y="0" on="0"/>
        <pt x="483" y="-9" on="0"/>
        <pt x="457" y="-26" on="0"/>
        <pt x="437" y="-51" on="0"/>
        <pt x="437" y="-67" on="1"/>
        <pt x="437" y="-82" on="0"/>
        <pt x="460" y="-101" on="0"/>
        <pt x="485" y="-101" on="1"/>
        <pt x="498" y="-101" on="0"/>
        <pt x="520" y="-97" on="0"/>
        <pt x="520" y="-97" on="1"/>
        <pt x="504" y="-172" on="1"/>
        <pt x="504" y="-172" on="0"/>
        <pt x="476" y="-178" on="0"/>
        <pt x="453" y="-178" on="1"/>
        <pt x="395" y="-178" on="0"/>
        <pt x="337" y="-131" on="0"/>
        <pt x="337" y="-94" on="1"/>
        <pt x="337" y="-59" on="0"/>
        <pt x="379" y="-13" on="0"/>
        <pt x="403" y="0" on="1"/>
      </contour>
    </TTGlyph>
    <TTGlyph name="Eth" xMin="20" yMin="0" xMax="743" yMax="740">
      <contour>
        <pt x="55" y="0" on="1"/>
        <pt x="121" y="315" on="1"/>
        <pt x="20" y="315" on="1"/>
        <pt x="44" y="426" on="1"/>
        <pt x="145" y="426" on="1"/>
        <pt x="212" y="740" on="1"/>
        <pt x="418" y="740" on="1"/>
        <pt x="501" y="740" on="0"/>
        <pt x="624" y="688" on="0"/>
        <pt x="704" y="599" on="0"/>
        <pt x="743" y="484" on="0"/>
        <pt x="743" y="422" on="1"/>
        <pt x="743" y="347" on="0"/>
        <pt x="688" y="197" on="0"/>
        <pt x="579" y="74" on="0"/>
        <pt x="419" y="0" on="0"/>
        <pt x="315" y="0" on="1"/>
      </contour>
      <contour>
        <pt x="389" y="315" on="1"/>
        <pt x="257" y="315" on="1"/>
        <pt x="216" y="120" on="1"/>
        <pt x="324" y="120" on="1"/>
        <pt x="393" y="120" on="0"/>
        <pt x="498" y="172" on="0"/>
        <pt x="571" y="259" on="0"/>
        <pt x="609" y="363" on="0"/>
        <pt x="609" y="415" on="1"/>
        <pt x="609" y="469" on="0"/>
        <pt x="565" y="563" on="0"/>
        <pt x="475" y="621" on="0"/>
        <pt x="405" y="621" on="1"/>
        <pt x="322" y="621" on="1"/>
        <pt x="281" y="426" on="1"/>
        <pt x="412" y="426" on="1"/>
      </contour>
    </TTGlyph>
    <TTGlyph name="Euro" xMin="25" yMin="-10" xMax="739" yMax="750">
      <contour>
        <pt x="25" y="266" on="1"/>
        <pt x="41" y="341" on="1"/>
        <pt x="150" y="341" on="1"/>
        <pt x="151" y="371" on="0"/>
        <pt x="155" y="400" on="1"/>
        <pt x="53" y="400" on="1"/>
        <pt x="69" y="475" on="1"/>
        <pt x="174" y="475" on="1"/>
        <pt x="200" y="550" on="0"/>
        <pt x="307" y="675" on="0"/>
        <pt x="467" y="750" on="0"/>
        <pt x="573" y="750" on="1"/>
        <pt x="622" y="750" on="0"/>
        <pt x="697" y="740" on="0"/>
        <pt x="739" y="729" on="0"/>
        <pt x="739" y="729" on="1"/>
        <pt x="714" y="611" on="1"/>
        <pt x="714" y="611" on="0"/>
        <pt x="675" y="621" on="0"/>
        <pt x="613" y="632" on="0"/>
        <pt x="577" y="632" on="1"/>
        <pt x="480" y="632" on="0"/>
        <pt x="350" y="541" on="0"/>
        <pt x="318" y="475" on="1"/>
        <pt x="558" y="475" on="1"/>
        <pt x="542" y="400" on="1"/>
        <pt x="293" y="400" on="1"/>
        <pt x="287" y="371" on="0"/>
        <pt x="287" y="342" on="1"/>
        <pt x="287" y="341" on="1"/>
        <pt x="529" y="341" on="1"/>
        <pt x="513" y="266" on="1"/>
        <pt x="298" y="266" on="1"/>
        <pt x="317" y="199" on="0"/>
        <pt x="425" y="108" on="0"/>
        <pt x="515" y="108" on="1"/>
        <pt x="552" y="108" on="0"/>
        <pt x="620" y="119" on="0"/>
        <pt x="664" y="131" on="0"/>
        <pt x="664" y="131" on="1"/>
        <pt x="639" y="11" on="1"/>
        <pt x="639" y="11" on="0"/>
        <pt x="557" y="-10" on="0"/>
        <pt x="490" y="-10" on="1"/>
        <pt x="390" y="-10" on="0"/>
        <pt x="250" y="66" on="0"/>
        <pt x="168" y="191" on="0"/>
        <pt x="155" y="266" on="1"/>
      </contour>
    </TTGlyph>
    <TTGlyph name="F" xMin="18" yMin="0" xMax="664" yMax="740">
      <contour>
        <pt x="18" y="0" on="1"/>
        <pt x="175" y="740" on="1"/>
        <pt x="664" y="740" on="1"/>
        <pt x="639" y="622" on="1"/>
        <pt x="286" y="622" on="1"/>
        <pt x="241" y="412" on="1"/>
        <pt x="549" y="412" on="1"/>
        <pt x="525" y="296" on="1"/>
        <pt x="217" y="296" on="1"/>
        <pt x="154" y="0" on="1"/>
      </contour>
    </TTGlyph>
    <TTGlyph name="G" xMin="57" yMin="-10" xMax="754" yMax="750">
      <contour>
        <pt x="377" y="-10" on="1"/>
        <pt x="296" y="-10" on="0"/>
        <pt x="176" y="43" on="0"/>
        <pt x="97" y="135" on="0"/>
        <pt x="57" y="253" on="0"/>
        <pt x="57" y="319" on="1"/>
        <pt x="57" y="395" on="0"/>
        <pt x="109" y="548" on="0"/>
        <pt x="212" y="674" on="0"/>
        <pt x="365" y="750" on="0"/>
        <pt x="466" y="750" on="1"/>
        <pt x="539" y="750" on="0"/>
        <pt x="639" y="712" on="0"/>
        <pt x="702" y="651" on="0"/>
        <pt x="736" y="584" on="0"/>
        <pt x="751" y="523" on="0"/>
        <pt x="754" y="485" on="0"/>
        <pt x="754" y="485" on="1"/>
        <pt x="619" y="485" on="1"/>
        <pt x="619" y="485" on="0"/>
        <pt x="616" y="514" on="0"/>
        <pt x="602" y="557" on="0"/>
        <pt x="568" y="600" on="0"/>
        <pt x="506" y="629" on="0"/>
        <pt x="457" y="629" on="1"/>
        <pt x="393" y="629" on="0"/>
        <pt x="294" y="576" on="0"/>
        <pt x="228" y="488" on="0"/>
        <pt x="194" y="382" on="0"/>
        <pt x="194" y="329" on="1"/>
        <pt x="194" y="271" on="0"/>
        <pt x="236" y="172" on="0"/>
        <pt x="323" y="112" on="0"/>
        <pt x="390" y="112" on="1"/>
        <pt x="470" y="112" on="0"/>
        <pt x="575" y="207" on="0"/>
        <pt x="595" y="287" on="1"/>
        <pt x="402" y="287" on="1"/>
        <pt x="425" y="393" on="1"/>
        <pt x="748" y="393" on="1"/>
        <pt x="741" y="339" on="1"/>
        <pt x="727" y="228" on="0"/>
        <pt x="628" y="72" on="0"/>
        <pt x="474" y="-10" on="0"/>
      </contour>
    </TTGlyph>
    <TTGlyph name="Gbreve" xMin="57" yMin="-10" xMax="754" yMax="975">
      <contour>
        <pt x="504" y="810" on="1"/>
        <pt x="451" y="810" on="0"/>
        <pt x="389" y="843" on="0"/>
        <pt x="359" y="893" on="0"/>
        <pt x="350" y="942" on="0"/>
        <pt x="352" y="975" on="0"/>
        <pt x="352" y="975" on="1"/>
        <pt x="442" y="975" on="1"/>
        <pt x="442" y="975" on="0"/>
        <pt x="440" y="950" on="0"/>
        <pt x="449" y="916" on="0"/>
        <pt x="477" y="890" on="0"/>
        <pt x="507" y="890" on="1"/>
        <pt x="538" y="890" on="0"/>
        <pt x="578" y="916" on="0"/>
        <pt x="600" y="950" on="0"/>
        <pt x="609" y="975" on="0"/>
        <pt x="609" y="975" on="1"/>
        <pt x="699" y="975" on="1"/>
        <pt x="699" y="975" on="0"/>
        <pt x="692" y="942" on="0"/>
        <pt x="670" y="893" on="0"/>
        <pt x="628" y="843" on="0"/>
        <pt x="557" y="810" on="0"/>
      </contour>
      <contour>
        <pt x="377" y="-10" on="1"/>
        <pt x="296" y="-10" on="0"/>
        <pt x="176" y="43" on="0"/>
        <pt x="97" y="135" on="0"/>
        <pt x="57" y="253" on="0"/>
        <pt x="57" y="319" on="1"/>
        <pt x="57" y="395" on="0"/>
        <pt x="109" y="548" on="0"/>
        <pt x="212" y="674" on="0"/>
        <pt x="365" y="750" on="0"/>
        <pt x="466" y="750" on="1"/>
        <pt x="539" y="750" on="0"/>
        <pt x="639" y="712" on="0"/>
        <pt x="702" y="651" on="0"/>
        <pt x="736" y="584" on="0"/>
        <pt x="751" y="523" on="0"/>
        <pt x="754" y="485" on="0"/>
        <pt x="754" y="485" on="1"/>
        <pt x="619" y="485" on="1"/>
        <pt x="619" y="485" on="0"/>
        <pt x="616" y="514" on="0"/>
        <pt x="602" y="557" on="0"/>
        <pt x="568" y="600" on="0"/>
        <pt x="506" y="629" on="0"/>
        <pt x="457" y="629" on="1"/>
        <pt x="393" y="629" on="0"/>
        <pt x="294" y="576" on="0"/>
        <pt x="228" y="488" on="0"/>
        <pt x="194" y="382" on="0"/>
        <pt x="194" y="329" on="1"/>
        <pt x="194" y="271" on="0"/>
        <pt x="236" y="172" on="0"/>
        <pt x="323" y="112" on="0"/>
        <pt x="390" y="112" on="1"/>
        <pt x="470" y="112" on="0"/>
        <pt x="575" y="207" on="0"/>
        <pt x="595" y="287" on="1"/>
        <pt x="402" y="287" on="1"/>
        <pt x="425" y="393" on="1"/>
        <pt x="748" y="393" on="1"/>
        <pt x="741" y="339" on="1"/>
        <pt x="727" y="228" on="0"/>
        <pt x="628" y="72" on="0"/>
        <pt x="474" y="-10" on="0"/>
      </contour>
    </TTGlyph>
    <TTGlyph name="Gcaron" xMin="57" yMin="-10" xMax="754" yMax="985">
      <contour>
        <pt x="435" y="809" on="1"/>
        <pt x="346" y="985" on="1"/>
        <pt x="447" y="985" on="1"/>
        <pt x="497" y="880" on="1"/>
        <pt x="592" y="985" on="1"/>
        <pt x="706" y="985" on="1"/>
        <pt x="543" y="809" on="1"/>
      </contour>
      <contour>
        <pt x="377" y="-10" on="1"/>
        <pt x="296" y="-10" on="0"/>
        <pt x="176" y="43" on="0"/>
        <pt x="97" y="135" on="0"/>
        <pt x="57" y="253" on="0"/>
        <pt x="57" y="319" on="1"/>
        <pt x="57" y="395" on="0"/>
        <pt x="109" y="548" on="0"/>
        <pt x="212" y="674" on="0"/>
        <pt x="365" y="750" on="0"/>
        <pt x="466" y="750" on="1"/>
        <pt x="539" y="750" on="0"/>
        <pt x="639" y="712" on="0"/>
        <pt x="702" y="651" on="0"/>
        <pt x="736" y="584" on="0"/>
        <pt x="751" y="523" on="0"/>
        <pt x="754" y="485" on="0"/>
        <pt x="754" y="485" on="1"/>
        <pt x="619" y="485" on="1"/>
        <pt x="619" y="485" on="0"/>
        <pt x="616" y="514" on="0"/>
        <pt x="602" y="557" on="0"/>
        <pt x="568" y="600" on="0"/>
        <pt x="506" y="629" on="0"/>
        <pt x="457" y="629" on="1"/>
        <pt x="393" y="629" on="0"/>
        <pt x="294" y="576" on="0"/>
        <pt x="228" y="488" on="0"/>
        <pt x="194" y="382" on="0"/>
        <pt x="194" y="329" on="1"/>
        <pt x="194" y="271" on="0"/>
        <pt x="236" y="172" on="0"/>
        <pt x="323" y="112" on="0"/>
        <pt x="390" y="112" on="1"/>
        <pt x="470" y="112" on="0"/>
        <pt x="575" y="207" on="0"/>
        <pt x="595" y="287" on="1"/>
        <pt x="402" y="287" on="1"/>
        <pt x="425" y="393" on="1"/>
        <pt x="748" y="393" on="1"/>
        <pt x="741" y="339" on="1"/>
        <pt x="727" y="228" on="0"/>
        <pt x="628" y="72" on="0"/>
        <pt x="474" y="-10" on="0"/>
      </contour>
    </TTGlyph>
    <TTGlyph name="Gdotaccent" xMin="57" yMin="-10" xMax="754" yMax="976">
      <contour>
        <pt x="509" y="818" on="1"/>
        <pt x="474" y="818" on="0"/>
        <pt x="429" y="865" on="0"/>
        <pt x="429" y="897" on="1"/>
        <pt x="429" y="930" on="0"/>
        <pt x="474" y="976" on="0"/>
        <pt x="509" y="976" on="1"/>
        <pt x="544" y="976" on="0"/>
        <pt x="590" y="930" on="0"/>
        <pt x="590" y="897" on="1"/>
        <pt x="590" y="865" on="0"/>
        <pt x="544" y="818" on="0"/>
      </contour>
      <contour>
        <pt x="377" y="-10" on="1"/>
        <pt x="296" y="-10" on="0"/>
        <pt x="176" y="43" on="0"/>
        <pt x="97" y="135" on="0"/>
        <pt x="57" y="253" on="0"/>
        <pt x="57" y="319" on="1"/>
        <pt x="57" y="395" on="0"/>
        <pt x="109" y="548" on="0"/>
        <pt x="212" y="674" on="0"/>
        <pt x="365" y="750" on="0"/>
        <pt x="466" y="750" on="1"/>
        <pt x="539" y="750" on="0"/>
        <pt x="639" y="712" on="0"/>
        <pt x="702" y="651" on="0"/>
        <pt x="736" y="584" on="0"/>
        <pt x="751" y="523" on="0"/>
        <pt x="754" y="485" on="0"/>
        <pt x="754" y="485" on="1"/>
        <pt x="619" y="485" on="1"/>
        <pt x="619" y="485" on="0"/>
        <pt x="616" y="514" on="0"/>
        <pt x="602" y="557" on="0"/>
        <pt x="568" y="600" on="0"/>
        <pt x="506" y="629" on="0"/>
        <pt x="457" y="629" on="1"/>
        <pt x="393" y="629" on="0"/>
        <pt x="294" y="576" on="0"/>
        <pt x="228" y="488" on="0"/>
        <pt x="194" y="382" on="0"/>
        <pt x="194" y="329" on="1"/>
        <pt x="194" y="271" on="0"/>
        <pt x="236" y="172" on="0"/>
        <pt x="323" y="112" on="0"/>
        <pt x="390" y="112" on="1"/>
        <pt x="470" y="112" on="0"/>
        <pt x="575" y="207" on="0"/>
        <pt x="595" y="287" on="1"/>
        <pt x="402" y="287" on="1"/>
        <pt x="425" y="393" on="1"/>
        <pt x="748" y="393" on="1"/>
        <pt x="741" y="339" on="1"/>
        <pt x="727" y="228" on="0"/>
        <pt x="628" y="72" on="0"/>
        <pt x="474" y="-10" on="0"/>
      </contour>
    </TTGlyph>
    <TTGlyph name="H" xMin="18" yMin="0" xMax="754" yMax="740">
      <contour>
        <pt x="18" y="0" on="1"/>
        <pt x="175" y="740" on="1"/>
        <pt x="311" y="740" on="1"/>
        <pt x="246" y="436" on="1"/>
        <pt x="554" y="436" on="1"/>
        <pt x="618" y="740" on="1"/>
        <pt x="754" y="740" on="1"/>
        <pt x="597" y="0" on="1"/>
        <pt x="461" y="0" on="1"/>
        <pt x="529" y="318" on="1"/>
        <pt x="221" y="318" on="1"/>
        <pt x="154" y="0" on="1"/>
      </contour>
    </TTGlyph>
    <TTGlyph name="Hbar" xMin="42" yMin="0" xMax="846" yMax="740">
      <contour>
        <pt x="42" y="0" on="1"/>
        <pt x="161" y="558" on="1"/>
        <pt x="87" y="558" on="1"/>
        <pt x="109" y="663" on="1"/>
        <pt x="183" y="663" on="1"/>
        <pt x="199" y="740" on="1"/>
        <pt x="335" y="740" on="1"/>
        <pt x="319" y="663" on="1"/>
        <pt x="626" y="663" on="1"/>
        <pt x="642" y="740" on="1"/>
        <pt x="778" y="740" on="1"/>
        <pt x="762" y="663" on="1"/>
        <pt x="846" y="663" on="1"/>
        <pt x="824" y="558" on="1"/>
        <pt x="739" y="558" on="1"/>
        <pt x="621" y="0" on="1"/>
        <pt x="485" y="0" on="1"/>
        <pt x="553" y="318" on="1"/>
        <pt x="245" y="318" on="1"/>
        <pt x="178" y="0" on="1"/>
      </contour>
      <contour>
        <pt x="271" y="436" on="1"/>
        <pt x="578" y="436" on="1"/>
        <pt x="604" y="558" on="1"/>
        <pt x="296" y="558" on="1"/>
      </contour>
    </TTGlyph>
    <TTGlyph name="I" xMin="18" yMin="0" xMax="311" yMax="740">
      <contour>
        <pt x="18" y="0" on="1"/>
        <pt x="175" y="740" on="1"/>
        <pt x="311" y="740" on="1"/>
        <pt x="154" y="0" on="1"/>
      </contour>
    </TTGlyph>
    <TTGlyph name="Iacute" xMin="18" yMin="0" xMax="424" yMax="971">
      <contour>
        <pt x="312" y="790" on="1"/>
        <pt x="212" y="791" on="1"/>
        <pt x="299" y="971" on="1"/>
        <pt x="424" y="971" on="1"/>
      </contour>
      <contour>
        <pt x="18" y="0" on="1"/>
        <pt x="175" y="740" on="1"/>
        <pt x="311" y="740" on="1"/>
        <pt x="154" y="0" on="1"/>
      </contour>
    </TTGlyph>
    <TTGlyph name="Icircumflex" xMin="18" yMin="0" xMax="433" yMax="959">
      <contour>
        <pt x="72" y="784" on="1"/>
        <pt x="236" y="959" on="1"/>
        <pt x="343" y="959" on="1"/>
        <pt x="433" y="784" on="1"/>
        <pt x="331" y="784" on="1"/>
        <pt x="282" y="889" on="1"/>
        <pt x="187" y="784" on="1"/>
      </contour>
      <contour>
        <pt x="18" y="0" on="1"/>
        <pt x="175" y="740" on="1"/>
        <pt x="311" y="740" on="1"/>
        <pt x="154" y="0" on="1"/>
      </contour>
    </TTGlyph>
    <TTGlyph name="Idieresis" xMin="18" yMin="0" xMax="453" yMax="934">
      <contour>
        <pt x="375" y="782" on="1"/>
        <pt x="341" y="782" on="0"/>
        <pt x="297" y="827" on="0"/>
        <pt x="297" y="858" on="1"/>
        <pt x="297" y="890" on="0"/>
        <pt x="341" y="934" on="0"/>
        <pt x="375" y="934" on="1"/>
        <pt x="409" y="934" on="0"/>
        <pt x="453" y="890" on="0"/>
        <pt x="453" y="858" on="1"/>
        <pt x="453" y="826" on="0"/>
        <pt x="409" y="782" on="0"/>
      </contour>
      <contour>
        <pt x="161" y="782" on="1"/>
        <pt x="127" y="782" on="0"/>
        <pt x="83" y="827" on="0"/>
        <pt x="83" y="858" on="1"/>
        <pt x="83" y="890" on="0"/>
        <pt x="127" y="934" on="0"/>
        <pt x="161" y="934" on="1"/>
        <pt x="195" y="934" on="0"/>
        <pt x="239" y="890" on="0"/>
        <pt x="239" y="858" on="1"/>
        <pt x="239" y="826" on="0"/>
        <pt x="195" y="782" on="0"/>
      </contour>
      <contour>
        <pt x="18" y="0" on="1"/>
        <pt x="175" y="740" on="1"/>
        <pt x="311" y="740" on="1"/>
        <pt x="154" y="0" on="1"/>
      </contour>
    </TTGlyph>
    <TTGlyph name="Idotaccent" xMin="18" yMin="0" xMax="352" yMax="950">
      <contour>
        <pt x="271" y="793" on="1"/>
        <pt x="236" y="793" on="0"/>
        <pt x="191" y="839" on="0"/>
        <pt x="191" y="871" on="1"/>
        <pt x="191" y="904" on="0"/>
        <pt x="236" y="950" on="0"/>
        <pt x="271" y="950" on="1"/>
        <pt x="306" y="950" on="0"/>
        <pt x="352" y="904" on="0"/>
        <pt x="352" y="871" on="1"/>
        <pt x="352" y="839" on="0"/>
        <pt x="306" y="793" on="0"/>
      </contour>
      <contour>
        <pt x="18" y="0" on="1"/>
        <pt x="175" y="740" on="1"/>
        <pt x="311" y="740" on="1"/>
        <pt x="154" y="0" on="1"/>
      </contour>
    </TTGlyph>
    <TTGlyph name="Igrave" xMin="18" yMin="0" xMax="311" yMax="971">
      <contour>
        <pt x="196" y="790" on="1"/>
        <pt x="104" y="971" on="1"/>
        <pt x="226" y="971" on="1"/>
        <pt x="292" y="791" on="1"/>
      </contour>
      <contour>
        <pt x="18" y="0" on="1"/>
        <pt x="175" y="740" on="1"/>
        <pt x="311" y="740" on="1"/>
        <pt x="154" y="0" on="1"/>
      </contour>
    </TTGlyph>
    <TTGlyph name="Imacron" xMin="18" yMin="0" xMax="436" yMax="898">
      <contour>
        <pt x="99" y="814" on="1"/>
        <pt x="117" y="898" on="1"/>
        <pt x="436" y="898" on="1"/>
        <pt x="417" y="814" on="1"/>
      </contour>
      <contour>
        <pt x="18" y="0" on="1"/>
        <pt x="175" y="740" on="1"/>
        <pt x="311" y="740" on="1"/>
        <pt x="154" y="0" on="1"/>
      </contour>
    </TTGlyph>
    <TTGlyph name="Iogonek" xMin="-12" yMin="-178" xMax="311" yMax="740">
      <contour>
        <pt x="18" y="0" on="1"/>
        <pt x="175" y="740" on="1"/>
        <pt x="311" y="740" on="1"/>
        <pt x="154" y="0" on="1"/>
        <pt x="154" y="0" on="0"/>
        <pt x="134" y="-9" on="0"/>
        <pt x="107" y="-26" on="0"/>
        <pt x="87" y="-51" on="0"/>
        <pt x="87" y="-67" on="1"/>
        <pt x="87" y="-82" on="0"/>
        <pt x="110" y="-101" on="0"/>
        <pt x="135" y="-101" on="1"/>
        <pt x="148" y="-101" on="0"/>
        <pt x="170" y="-97" on="0"/>
        <pt x="170" y="-97" on="1"/>
        <pt x="155" y="-172" on="1"/>
        <pt x="155" y="-172" on="0"/>
        <pt x="127" y="-178" on="0"/>
        <pt x="104" y="-178" on="1"/>
        <pt x="46" y="-178" on="0"/>
        <pt x="-12" y="-131" on="0"/>
        <pt x="-12" y="-94" on="1"/>
        <pt x="-12" y="-59" on="0"/>
        <pt x="29" y="-13" on="0"/>
        <pt x="53" y="0" on="1"/>
      </contour>
    </TTGlyph>
    <TTGlyph name="Itilde" xMin="18" yMin="0" xMax="454" yMax="947">
      <contour>
        <pt x="339" y="799" on="1"/>
        <pt x="313" y="799" on="0"/>
        <pt x="275" y="819" on="0"/>
        <pt x="247" y="845" on="0"/>
        <pt x="222" y="865" on="0"/>
        <pt x="208" y="865" on="1"/>
        <pt x="180" y="865" on="0"/>
        <pt x="169" y="805" on="1"/>
        <pt x="95" y="805" on="1"/>
        <pt x="103" y="844" on="0"/>
        <pt x="128" y="909" on="0"/>
        <pt x="173" y="947" on="0"/>
        <pt x="210" y="947" on="1"/>
        <pt x="237" y="947" on="0"/>
        <pt x="275" y="927" on="0"/>
        <pt x="303" y="902" on="0"/>
        <pt x="327" y="882" on="0"/>
        <pt x="340" y="882" on="1"/>
        <pt x="356" y="882" on="0"/>
        <pt x="374" y="913" on="0"/>
        <pt x="379" y="942" on="1"/>
        <pt x="454" y="942" on="1"/>
        <pt x="446" y="902" on="0"/>
        <pt x="420" y="838" on="0"/>
        <pt x="375" y="799" on="0"/>
      </contour>
      <contour>
        <pt x="18" y="0" on="1"/>
        <pt x="175" y="740" on="1"/>
        <pt x="311" y="740" on="1"/>
        <pt x="154" y="0" on="1"/>
      </contour>
    </TTGlyph>
    <TTGlyph name="J" xMin="-9" yMin="-10" xMax="519" yMax="740">
      <contour>
        <pt x="93" y="-10" on="1"/>
        <pt x="50" y="-10" on="0"/>
        <pt x="-9" y="1" on="0"/>
        <pt x="-9" y="1" on="1"/>
        <pt x="15" y="116" on="1"/>
        <pt x="15" y="116" on="0"/>
        <pt x="66" y="108" on="0"/>
        <pt x="95" y="108" on="1"/>
        <pt x="173" y="108" on="0"/>
        <pt x="268" y="195" on="0"/>
        <pt x="284" y="269" on="1"/>
        <pt x="384" y="740" on="1"/>
        <pt x="519" y="740" on="1"/>
        <pt x="418" y="263" on="1"/>
        <pt x="401" y="185" on="0"/>
        <pt x="324" y="62" on="0"/>
        <pt x="192" y="-10" on="0"/>
      </contour>
    </TTGlyph>
    <TTGlyph name="K" xMin="18" yMin="0" xMax="760" yMax="740">
      <contour>
        <pt x="18" y="0" on="1"/>
        <pt x="175" y="740" on="1"/>
        <pt x="311" y="740" on="1"/>
        <pt x="243" y="422" on="1"/>
        <pt x="579" y="739" on="1"/>
        <pt x="760" y="739" on="1"/>
        <pt x="357" y="368" on="1"/>
        <pt x="605" y="0" on="1"/>
        <pt x="448" y="0" on="1"/>
        <pt x="225" y="338" on="1"/>
        <pt x="154" y="0" on="1"/>
      </contour>
    </TTGlyph>
    <TTGlyph name="L" xMin="18" yMin="0" xMax="529" yMax="740">
      <contour>
        <pt x="18" y="0" on="1"/>
        <pt x="175" y="740" on="1"/>
        <pt x="311" y="740" on="1"/>
        <pt x="179" y="118" on="1"/>
        <pt x="529" y="118" on="1"/>
        <pt x="504" y="0" on="1"/>
      </contour>
    </TTGlyph>
    <TTGlyph name="Lacute" xMin="18" yMin="0" xMax="525" yMax="996">
      <contour>
        <pt x="318" y="816" on="1"/>
        <pt x="218" y="817" on="1"/>
        <pt x="305" y="996" on="1"/>
        <pt x="430" y="996" on="1"/>
      </contour>
      <contour>
        <pt x="18" y="0" on="1"/>
        <pt x="175" y="740" on="1"/>
        <pt x="311" y="740" on="1"/>
        <pt x="179" y="118" on="1"/>
        <pt x="525" y="118" on="1"/>
        <pt x="500" y="0" on="1"/>
      </contour>
    </TTGlyph>
    <TTGlyph name="Lcaron" xMin="18" yMin="0" xMax="525" yMax="985">
      <contour>
        <pt x="204" y="809" on="1"/>
        <pt x="114" y="985" on="1"/>
        <pt x="216" y="985" on="1"/>
        <pt x="265" y="880" on="1"/>
        <pt x="360" y="985" on="1"/>
        <pt x="475" y="985" on="1"/>
        <pt x="311" y="809" on="1"/>
      </contour>
      <contour>
        <pt x="18" y="0" on="1"/>
        <pt x="175" y="740" on="1"/>
        <pt x="311" y="740" on="1"/>
        <pt x="179" y="118" on="1"/>
        <pt x="525" y="118" on="1"/>
        <pt x="500" y="0" on="1"/>
      </contour>
    </TTGlyph>
    <TTGlyph name="Lslash" xMin="6" yMin="0" xMax="563" yMax="740">
      <contour>
        <pt x="57" y="0" on="1"/>
        <pt x="121" y="304" on="1"/>
        <pt x="6" y="264" on="1"/>
        <pt x="29" y="374" on="1"/>
        <pt x="144" y="414" on="1"/>
        <pt x="214" y="740" on="1"/>
        <pt x="349" y="740" on="1"/>
        <pt x="291" y="465" on="1"/>
        <pt x="432" y="514" on="1"/>
        <pt x="409" y="405" on="1"/>
        <pt x="268" y="355" on="1"/>
        <pt x="217" y="118" on="1"/>
        <pt x="563" y="118" on="1"/>
        <pt x="538" y="0" on="1"/>
      </contour>
    </TTGlyph>
    <TTGlyph name="M" xMin="18" yMin="0" xMax="908" yMax="740">
      <contour>
        <pt x="18" y="0" on="1"/>
        <pt x="175" y="740" on="1"/>
        <pt x="353" y="740" on="1"/>
        <pt x="453" y="339" on="1"/>
        <pt x="726" y="740" on="1"/>
        <pt x="908" y="740" on="1"/>
        <pt x="751" y="0" on="1"/>
        <pt x="615" y="0" on="1"/>
        <pt x="726" y="522" on="1"/>
        <pt x="489" y="179" on="1"/>
        <pt x="362" y="179" on="1"/>
        <pt x="268" y="539" on="1"/>
        <pt x="154" y="0" on="1"/>
      </contour>
    </TTGlyph>
    <TTGlyph name="N" xMin="18" yMin="0" xMax="774" yMax="740">
      <contour>
        <pt x="18" y="0" on="1"/>
        <pt x="175" y="740" on="1"/>
        <pt x="299" y="740" on="1"/>
        <pt x="531" y="234" on="1"/>
        <pt x="639" y="740" on="1"/>
        <pt x="774" y="740" on="1"/>
        <pt x="617" y="0" on="1"/>
        <pt x="493" y="0" on="1"/>
        <pt x="260" y="497" on="1"/>
        <pt x="154" y="0" on="1"/>
      </contour>
    </TTGlyph>
    <TTGlyph name="Nacute" xMin="18" yMin="0" xMax="774" yMax="996">
      <contour>
        <pt x="546" y="816" on="1"/>
        <pt x="446" y="817" on="1"/>
        <pt x="533" y="996" on="1"/>
        <pt x="658" y="996" on="1"/>
      </contour>
      <contour>
        <pt x="18" y="0" on="1"/>
        <pt x="175" y="740" on="1"/>
        <pt x="299" y="740" on="1"/>
        <pt x="531" y="234" on="1"/>
        <pt x="639" y="740" on="1"/>
        <pt x="774" y="740" on="1"/>
        <pt x="617" y="0" on="1"/>
        <pt x="493" y="0" on="1"/>
        <pt x="260" y="497" on="1"/>
        <pt x="154" y="0" on="1"/>
      </contour>
    </TTGlyph>
    <TTGlyph name="Ncaron" xMin="18" yMin="0" xMax="774" yMax="985">
      <contour>
        <pt x="432" y="809" on="1"/>
        <pt x="342" y="985" on="1"/>
        <pt x="444" y="985" on="1"/>
        <pt x="494" y="880" on="1"/>
        <pt x="588" y="985" on="1"/>
        <pt x="703" y="985" on="1"/>
        <pt x="539" y="809" on="1"/>
      </contour>
      <contour>
        <pt x="18" y="0" on="1"/>
        <pt x="175" y="740" on="1"/>
        <pt x="299" y="740" on="1"/>
        <pt x="531" y="234" on="1"/>
        <pt x="639" y="740" on="1"/>
        <pt x="774" y="740" on="1"/>
        <pt x="617" y="0" on="1"/>
        <pt x="493" y="0" on="1"/>
        <pt x="260" y="497" on="1"/>
        <pt x="154" y="0" on="1"/>
      </contour>
    </TTGlyph>
    <TTGlyph name="Ntilde" xMin="18" yMin="0" xMax="774" yMax="973">
      <contour>
        <pt x="573" y="824" on="1"/>
        <pt x="547" y="824" on="0"/>
        <pt x="509" y="844" on="0"/>
        <pt x="481" y="871" on="0"/>
        <pt x="456" y="891" on="0"/>
        <pt x="443" y="891" on="1"/>
        <pt x="414" y="891" on="0"/>
        <pt x="403" y="830" on="1"/>
        <pt x="329" y="830" on="1"/>
        <pt x="337" y="870" on="0"/>
        <pt x="362" y="934" on="0"/>
        <pt x="407" y="973" on="0"/>
        <pt x="444" y="973" on="1"/>
        <pt x="471" y="973" on="0"/>
        <pt x="509" y="953" on="0"/>
        <pt x="537" y="927" on="0"/>
        <pt x="561" y="908" on="0"/>
        <pt x="575" y="908" on="1"/>
        <pt x="590" y="908" on="0"/>
        <pt x="608" y="938" on="0"/>
        <pt x="613" y="967" on="1"/>
        <pt x="688" y="967" on="1"/>
        <pt x="680" y="928" on="0"/>
        <pt x="654" y="863" on="0"/>
        <pt x="610" y="824" on="0"/>
      </contour>
      <contour>
        <pt x="18" y="0" on="1"/>
        <pt x="175" y="740" on="1"/>
        <pt x="299" y="740" on="1"/>
        <pt x="531" y="234" on="1"/>
        <pt x="639" y="740" on="1"/>
        <pt x="774" y="740" on="1"/>
        <pt x="617" y="0" on="1"/>
        <pt x="493" y="0" on="1"/>
        <pt x="260" y="497" on="1"/>
        <pt x="154" y="0" on="1"/>
      </contour>
    </TTGlyph>
    <TTGlyph name="O" xMin="58" yMin="-10" xMax="782" yMax="750">
      <contour>
        <pt x="378" y="-10" on="1"/>
        <pt x="296" y="-10" on="0"/>
        <pt x="175" y="44" on="0"/>
        <pt x="96" y="136" on="0"/>
        <pt x="58" y="255" on="0"/>
        <pt x="58" y="319" on="1"/>
        <pt x="58" y="396" on="0"/>
        <pt x="111" y="549" on="0"/>
        <pt x="214" y="674" on="0"/>
        <pt x="365" y="750" on="0"/>
        <pt x="463" y="750" on="1"/>
        <pt x="545" y="750" on="0"/>
        <pt x="665" y="696" on="0"/>
        <pt x="744" y="603" on="0"/>
        <pt x="782" y="485" on="0"/>
        <pt x="782" y="421" on="1"/>
        <pt x="782" y="344" on="0"/>
        <pt x="729" y="191" on="0"/>
        <pt x="626" y="66" on="0"/>
        <pt x="475" y="-10" on="0"/>
      </contour>
      <contour>
        <pt x="383" y="112" on="1"/>
        <pt x="446" y="112" on="0"/>
        <pt x="543" y="166" on="0"/>
        <pt x="610" y="256" on="0"/>
        <pt x="645" y="364" on="0"/>
        <pt x="645" y="418" on="1"/>
        <pt x="645" y="474" on="0"/>
        <pt x="606" y="569" on="0"/>
        <pt x="523" y="628" on="0"/>
        <pt x="458" y="628" on="1"/>
        <pt x="396" y="628" on="0"/>
        <pt x="298" y="574" on="0"/>
        <pt x="231" y="484" on="0"/>
        <pt x="196" y="376" on="0"/>
        <pt x="196" y="322" on="1"/>
        <pt x="196" y="266" on="0"/>
        <pt x="236" y="170" on="0"/>
        <pt x="319" y="112" on="0"/>
      </contour>
    </TTGlyph>
    <TTGlyph name="OE" xMin="56" yMin="0" xMax="1017" yMax="740">
      <contour>
        <pt x="1017" y="740" on="1"/>
        <pt x="992" y="622" on="1"/>
        <pt x="641" y="622" on="1"/>
        <pt x="601" y="434" on="1"/>
        <pt x="906" y="434" on="1"/>
        <pt x="882" y="319" on="1"/>
        <pt x="577" y="319" on="1"/>
        <pt x="534" y="118" on="1"/>
        <pt x="889" y="118" on="1"/>
        <pt x="865" y="0" on="1"/>
        <pt x="373" y="0" on="1"/>
        <pt x="292" y="1" on="0"/>
        <pt x="173" y="54" on="0"/>
        <pt x="95" y="143" on="0"/>
        <pt x="56" y="256" on="0"/>
        <pt x="56" y="318" on="1"/>
        <pt x="56" y="393" on="0"/>
        <pt x="112" y="543" on="0"/>
        <pt x="221" y="666" on="0"/>
        <pt x="381" y="740" on="0"/>
        <pt x="485" y="740" on="1"/>
      </contour>
      <contour>
        <pt x="191" y="325" on="1"/>
        <pt x="191" y="271" on="0"/>
        <pt x="235" y="177" on="0"/>
        <pt x="325" y="119" on="0"/>
        <pt x="394" y="119" on="1"/>
        <pt x="399" y="119" on="1"/>
        <pt x="505" y="620" on="1"/>
        <pt x="475" y="620" on="1"/>
        <pt x="407" y="620" on="0"/>
        <pt x="301" y="568" on="0"/>
        <pt x="229" y="481" on="0"/>
        <pt x="191" y="377" on="0"/>
      </contour>
    </TTGlyph>
    <TTGlyph name="Oacute" xMin="58" yMin="-10" xMax="782" yMax="996">
      <contour>
        <pt x="547" y="816" on="1"/>
        <pt x="447" y="817" on="1"/>
        <pt x="533" y="996" on="1"/>
        <pt x="658" y="996" on="1"/>
      </contour>
      <contour>
        <pt x="378" y="-10" on="1"/>
        <pt x="296" y="-10" on="0"/>
        <pt x="175" y="44" on="0"/>
        <pt x="96" y="136" on="0"/>
        <pt x="58" y="255" on="0"/>
        <pt x="58" y="319" on="1"/>
        <pt x="58" y="396" on="0"/>
        <pt x="111" y="549" on="0"/>
        <pt x="214" y="674" on="0"/>
        <pt x="365" y="750" on="0"/>
        <pt x="463" y="750" on="1"/>
        <pt x="545" y="750" on="0"/>
        <pt x="665" y="696" on="0"/>
        <pt x="744" y="603" on="0"/>
        <pt x="782" y="485" on="0"/>
        <pt x="782" y="421" on="1"/>
        <pt x="782" y="344" on="0"/>
        <pt x="729" y="191" on="0"/>
        <pt x="626" y="66" on="0"/>
        <pt x="475" y="-10" on="0"/>
      </contour>
      <contour>
        <pt x="383" y="112" on="1"/>
        <pt x="446" y="112" on="0"/>
        <pt x="543" y="166" on="0"/>
        <pt x="610" y="256" on="0"/>
        <pt x="645" y="364" on="0"/>
        <pt x="645" y="418" on="1"/>
        <pt x="645" y="474" on="0"/>
        <pt x="606" y="569" on="0"/>
        <pt x="523" y="628" on="0"/>
        <pt x="458" y="628" on="1"/>
        <pt x="396" y="628" on="0"/>
        <pt x="298" y="574" on="0"/>
        <pt x="231" y="484" on="0"/>
        <pt x="196" y="376" on="0"/>
        <pt x="196" y="322" on="1"/>
        <pt x="196" y="266" on="0"/>
        <pt x="236" y="170" on="0"/>
        <pt x="319" y="112" on="0"/>
      </contour>
    </TTGlyph>
    <TTGlyph name="Ocircumflex" xMin="58" yMin="-10" xMax="782" yMax="961">
      <contour>
        <pt x="299" y="809" on="1"/>
        <pt x="458" y="961" on="1"/>
        <pt x="565" y="961" on="1"/>
        <pt x="659" y="809" on="1"/>
        <pt x="558" y="809" on="1"/>
        <pt x="504" y="900" on="1"/>
        <pt x="414" y="809" on="1"/>
      </contour>
      <contour>
        <pt x="378" y="-10" on="1"/>
        <pt x="296" y="-10" on="0"/>
        <pt x="175" y="44" on="0"/>
        <pt x="96" y="136" on="0"/>
        <pt x="58" y="255" on="0"/>
        <pt x="58" y="319" on="1"/>
        <pt x="58" y="396" on="0"/>
        <pt x="111" y="549" on="0"/>
        <pt x="214" y="674" on="0"/>
        <pt x="365" y="750" on="0"/>
        <pt x="463" y="750" on="1"/>
        <pt x="545" y="750" on="0"/>
        <pt x="665" y="696" on="0"/>
        <pt x="744" y="603" on="0"/>
        <pt x="782" y="485" on="0"/>
        <pt x="782" y="421" on="1"/>
        <pt x="782" y="344" on="0"/>
        <pt x="729" y="191" on="0"/>
        <pt x="626" y="66" on="0"/>
        <pt x="475" y="-10" on="0"/>
      </contour>
      <contour>
        <pt x="383" y="112" on="1"/>
        <pt x="446" y="112" on="0"/>
        <pt x="543" y="166" on="0"/>
        <pt x="610" y="256" on="0"/>
        <pt x="645" y="364" on="0"/>
        <pt x="645" y="418" on="1"/>
        <pt x="645" y="474" on="0"/>
        <pt x="606" y="569" on="0"/>
        <pt x="523" y="628" on="0"/>
        <pt x="458" y="628" on="1"/>
        <pt x="396" y="628" on="0"/>
        <pt x="298" y="574" on="0"/>
        <pt x="231" y="484" on="0"/>
        <pt x="196" y="376" on="0"/>
        <pt x="196" y="322" on="1"/>
        <pt x="196" y="266" on="0"/>
        <pt x="236" y="170" on="0"/>
        <pt x="319" y="112" on="0"/>
      </contour>
    </TTGlyph>
    <TTGlyph name="Odieresis" xMin="58" yMin="-10" xMax="782" yMax="960">
      <contour>
        <pt x="610" y="807" on="1"/>
        <pt x="576" y="807" on="0"/>
        <pt x="532" y="853" on="0"/>
        <pt x="532" y="883" on="1"/>
        <pt x="532" y="915" on="0"/>
        <pt x="576" y="960" on="0"/>
        <pt x="610" y="960" on="1"/>
        <pt x="643" y="960" on="0"/>
        <pt x="688" y="915" on="0"/>
        <pt x="688" y="883" on="1"/>
        <pt x="688" y="852" on="0"/>
        <pt x="643" y="807" on="0"/>
      </contour>
      <contour>
        <pt x="396" y="807" on="1"/>
        <pt x="362" y="807" on="0"/>
        <pt x="318" y="853" on="0"/>
        <pt x="318" y="883" on="1"/>
        <pt x="318" y="915" on="0"/>
        <pt x="362" y="960" on="0"/>
        <pt x="396" y="960" on="1"/>
        <pt x="429" y="960" on="0"/>
        <pt x="474" y="915" on="0"/>
        <pt x="474" y="883" on="1"/>
        <pt x="474" y="852" on="0"/>
        <pt x="429" y="807" on="0"/>
      </contour>
      <contour>
        <pt x="378" y="-10" on="1"/>
        <pt x="296" y="-10" on="0"/>
        <pt x="175" y="44" on="0"/>
        <pt x="96" y="136" on="0"/>
        <pt x="58" y="255" on="0"/>
        <pt x="58" y="319" on="1"/>
        <pt x="58" y="396" on="0"/>
        <pt x="111" y="549" on="0"/>
        <pt x="214" y="674" on="0"/>
        <pt x="365" y="750" on="0"/>
        <pt x="463" y="750" on="1"/>
        <pt x="545" y="750" on="0"/>
        <pt x="665" y="696" on="0"/>
        <pt x="744" y="603" on="0"/>
        <pt x="782" y="485" on="0"/>
        <pt x="782" y="421" on="1"/>
        <pt x="782" y="344" on="0"/>
        <pt x="729" y="191" on="0"/>
        <pt x="626" y="66" on="0"/>
        <pt x="475" y="-10" on="0"/>
      </contour>
      <contour>
        <pt x="383" y="112" on="1"/>
        <pt x="446" y="112" on="0"/>
        <pt x="543" y="166" on="0"/>
        <pt x="610" y="256" on="0"/>
        <pt x="645" y="364" on="0"/>
        <pt x="645" y="418" on="1"/>
        <pt x="645" y="474" on="0"/>
        <pt x="606" y="569" on="0"/>
        <pt x="523" y="628" on="0"/>
        <pt x="458" y="628" on="1"/>
        <pt x="396" y="628" on="0"/>
        <pt x="298" y="574" on="0"/>
        <pt x="231" y="484" on="0"/>
        <pt x="196" y="376" on="0"/>
        <pt x="196" y="322" on="1"/>
        <pt x="196" y="266" on="0"/>
        <pt x="236" y="170" on="0"/>
        <pt x="319" y="112" on="0"/>
      </contour>
    </TTGlyph>
    <TTGlyph name="Ograve" xMin="58" yMin="-10" xMax="782" yMax="996">
      <contour>
        <pt x="430" y="816" on="1"/>
        <pt x="339" y="996" on="1"/>
        <pt x="461" y="996" on="1"/>
        <pt x="527" y="817" on="1"/>
      </contour>
      <contour>
        <pt x="378" y="-10" on="1"/>
        <pt x="296" y="-10" on="0"/>
        <pt x="175" y="44" on="0"/>
        <pt x="96" y="136" on="0"/>
        <pt x="58" y="255" on="0"/>
        <pt x="58" y="319" on="1"/>
        <pt x="58" y="396" on="0"/>
        <pt x="111" y="549" on="0"/>
        <pt x="214" y="674" on="0"/>
        <pt x="365" y="750" on="0"/>
        <pt x="463" y="750" on="1"/>
        <pt x="545" y="750" on="0"/>
        <pt x="665" y="696" on="0"/>
        <pt x="744" y="603" on="0"/>
        <pt x="782" y="485" on="0"/>
        <pt x="782" y="421" on="1"/>
        <pt x="782" y="344" on="0"/>
        <pt x="729" y="191" on="0"/>
        <pt x="626" y="66" on="0"/>
        <pt x="475" y="-10" on="0"/>
      </contour>
      <contour>
        <pt x="383" y="112" on="1"/>
        <pt x="446" y="112" on="0"/>
        <pt x="543" y="166" on="0"/>
        <pt x="610" y="256" on="0"/>
        <pt x="645" y="364" on="0"/>
        <pt x="645" y="418" on="1"/>
        <pt x="645" y="474" on="0"/>
        <pt x="606" y="569" on="0"/>
        <pt x="523" y="628" on="0"/>
        <pt x="458" y="628" on="1"/>
        <pt x="396" y="628" on="0"/>
        <pt x="298" y="574" on="0"/>
        <pt x="231" y="484" on="0"/>
        <pt x="196" y="376" on="0"/>
        <pt x="196" y="322" on="1"/>
        <pt x="196" y="266" on="0"/>
        <pt x="236" y="170" on="0"/>
        <pt x="319" y="112" on="0"/>
      </contour>
    </TTGlyph>
    <TTGlyph name="Ohorn" xMin="58" yMin="-10" xMax="828" yMax="858">
      <contour>
        <pt x="378" y="-10" on="1"/>
        <pt x="296" y="-10" on="0"/>
        <pt x="175" y="44" on="0"/>
        <pt x="96" y="136" on="0"/>
        <pt x="58" y="255" on="0"/>
        <pt x="58" y="319" on="1"/>
        <pt x="58" y="396" on="0"/>
        <pt x="111" y="549" on="0"/>
        <pt x="214" y="674" on="0"/>
        <pt x="365" y="750" on="0"/>
        <pt x="463" y="750" on="1"/>
        <pt x="467" y="750" on="0"/>
        <pt x="470" y="750" on="1"/>
        <pt x="470" y="750" on="1"/>
        <pt x="646" y="750" on="1"/>
        <pt x="689" y="750" on="0"/>
        <pt x="698" y="791" on="1"/>
        <pt x="712" y="858" on="1"/>
        <pt x="828" y="858" on="1"/>
        <pt x="809" y="769" on="1"/>
        <pt x="799" y="723" on="0"/>
        <pt x="743" y="673" on="0"/>
        <pt x="691" y="673" on="1"/>
        <pt x="682" y="673" on="1"/>
        <pt x="733" y="626" on="0"/>
        <pt x="782" y="494" on="0"/>
        <pt x="782" y="421" on="1"/>
        <pt x="782" y="344" on="0"/>
        <pt x="729" y="191" on="0"/>
        <pt x="626" y="66" on="0"/>
        <pt x="475" y="-10" on="0"/>
      </contour>
      <contour>
        <pt x="383" y="112" on="1"/>
        <pt x="446" y="112" on="0"/>
        <pt x="543" y="166" on="0"/>
        <pt x="610" y="256" on="0"/>
        <pt x="645" y="364" on="0"/>
        <pt x="645" y="418" on="1"/>
        <pt x="645" y="474" on="0"/>
        <pt x="606" y="569" on="0"/>
        <pt x="523" y="628" on="0"/>
        <pt x="458" y="628" on="1"/>
        <pt x="396" y="628" on="0"/>
        <pt x="298" y="574" on="0"/>
        <pt x="231" y="484" on="0"/>
        <pt x="196" y="376" on="0"/>
        <pt x="196" y="322" on="1"/>
        <pt x="196" y="266" on="0"/>
        <pt x="236" y="170" on="0"/>
        <pt x="319" y="112" on="0"/>
      </contour>
    </TTGlyph>
    <TTGlyph name="Ohungarumlaut" xMin="58" yMin="-10" xMax="782" yMax="996">
      <contour>
        <pt x="447" y="816" on="1"/>
        <pt x="348" y="817" on="1"/>
        <pt x="439" y="996" on="1"/>
        <pt x="563" y="996" on="1"/>
      </contour>
      <contour>
        <pt x="627" y="816" on="1"/>
        <pt x="525" y="817" on="1"/>
        <pt x="626" y="996" on="1"/>
        <pt x="753" y="996" on="1"/>
      </contour>
      <contour>
        <pt x="378" y="-10" on="1"/>
        <pt x="296" y="-10" on="0"/>
        <pt x="175" y="44" on="0"/>
        <pt x="96" y="136" on="0"/>
        <pt x="58" y="255" on="0"/>
        <pt x="58" y="319" on="1"/>
        <pt x="58" y="396" on="0"/>
        <pt x="111" y="549" on="0"/>
        <pt x="214" y="674" on="0"/>
        <pt x="365" y="750" on="0"/>
        <pt x="463" y="750" on="1"/>
        <pt x="545" y="750" on="0"/>
        <pt x="665" y="696" on="0"/>
        <pt x="744" y="603" on="0"/>
        <pt x="782" y="485" on="0"/>
        <pt x="782" y="421" on="1"/>
        <pt x="782" y="344" on="0"/>
        <pt x="729" y="191" on="0"/>
        <pt x="626" y="66" on="0"/>
        <pt x="475" y="-10" on="0"/>
      </contour>
      <contour>
        <pt x="383" y="112" on="1"/>
        <pt x="446" y="112" on="0"/>
        <pt x="543" y="166" on="0"/>
        <pt x="610" y="256" on="0"/>
        <pt x="645" y="364" on="0"/>
        <pt x="645" y="418" on="1"/>
        <pt x="645" y="474" on="0"/>
        <pt x="606" y="569" on="0"/>
        <pt x="523" y="628" on="0"/>
        <pt x="458" y="628" on="1"/>
        <pt x="396" y="628" on="0"/>
        <pt x="298" y="574" on="0"/>
        <pt x="231" y="484" on="0"/>
        <pt x="196" y="376" on="0"/>
        <pt x="196" y="322" on="1"/>
        <pt x="196" y="266" on="0"/>
        <pt x="236" y="170" on="0"/>
        <pt x="319" y="112" on="0"/>
      </contour>
    </TTGlyph>
    <TTGlyph name="Omacron" xMin="58" yMin="-10" xMax="782" yMax="924">
      <contour>
        <pt x="334" y="840" on="1"/>
        <pt x="352" y="924" on="1"/>
        <pt x="670" y="924" on="1"/>
        <pt x="652" y="840" on="1"/>
      </contour>
      <contour>
        <pt x="378" y="-10" on="1"/>
        <pt x="296" y="-10" on="0"/>
        <pt x="175" y="44" on="0"/>
        <pt x="96" y="136" on="0"/>
        <pt x="58" y="255" on="0"/>
        <pt x="58" y="319" on="1"/>
        <pt x="58" y="396" on="0"/>
        <pt x="111" y="549" on="0"/>
        <pt x="214" y="674" on="0"/>
        <pt x="365" y="750" on="0"/>
        <pt x="463" y="750" on="1"/>
        <pt x="545" y="750" on="0"/>
        <pt x="665" y="696" on="0"/>
        <pt x="744" y="603" on="0"/>
        <pt x="782" y="485" on="0"/>
        <pt x="782" y="421" on="1"/>
        <pt x="782" y="344" on="0"/>
        <pt x="729" y="191" on="0"/>
        <pt x="626" y="66" on="0"/>
        <pt x="475" y="-10" on="0"/>
      </contour>
      <contour>
        <pt x="383" y="112" on="1"/>
        <pt x="446" y="112" on="0"/>
        <pt x="543" y="166" on="0"/>
        <pt x="610" y="256" on="0"/>
        <pt x="645" y="364" on="0"/>
        <pt x="645" y="418" on="1"/>
        <pt x="645" y="474" on="0"/>
        <pt x="606" y="569" on="0"/>
        <pt x="523" y="628" on="0"/>
        <pt x="458" y="628" on="1"/>
        <pt x="396" y="628" on="0"/>
        <pt x="298" y="574" on="0"/>
        <pt x="231" y="484" on="0"/>
        <pt x="196" y="376" on="0"/>
        <pt x="196" y="322" on="1"/>
        <pt x="196" y="266" on="0"/>
        <pt x="236" y="170" on="0"/>
        <pt x="319" y="112" on="0"/>
      </contour>
    </TTGlyph>
    <TTGlyph name="Oslash" xMin="14" yMin="-24" xMax="826" yMax="763">
      <contour>
        <pt x="14" y="-24" on="1"/>
        <pt x="124" y="105" on="1"/>
        <pt x="90" y="149" on="0"/>
        <pt x="58" y="259" on="0"/>
        <pt x="58" y="319" on="1"/>
        <pt x="58" y="396" on="0"/>
        <pt x="111" y="548" on="0"/>
        <pt x="214" y="674" on="0"/>
        <pt x="365" y="750" on="0"/>
        <pt x="463" y="750" on="1"/>
        <pt x="515" y="750" on="0"/>
        <pt x="602" y="727" on="0"/>
        <pt x="636" y="706" on="1"/>
        <pt x="685" y="763" on="1"/>
        <pt x="826" y="763" on="1"/>
        <pt x="717" y="634" on="1"/>
        <pt x="750" y="590" on="0"/>
        <pt x="782" y="480" on="0"/>
        <pt x="782" y="420" on="1"/>
        <pt x="782" y="343" on="0"/>
        <pt x="729" y="191" on="0"/>
        <pt x="626" y="65" on="0"/>
        <pt x="475" y="-10" on="0"/>
        <pt x="378" y="-10" on="1"/>
        <pt x="325" y="-10" on="0"/>
        <pt x="239" y="12" on="0"/>
        <pt x="204" y="33" on="1"/>
        <pt x="155" y="-24" on="1"/>
      </contour>
      <contour>
        <pt x="196" y="322" on="1"/>
        <pt x="196" y="262" on="0"/>
        <pt x="217" y="214" on="1"/>
        <pt x="551" y="606" on="1"/>
        <pt x="511" y="628" on="0"/>
        <pt x="458" y="628" on="1"/>
        <pt x="396" y="628" on="0"/>
        <pt x="298" y="573" on="0"/>
        <pt x="231" y="483" on="0"/>
        <pt x="196" y="375" on="0"/>
      </contour>
      <contour>
        <pt x="383" y="111" on="1"/>
        <pt x="446" y="111" on="0"/>
        <pt x="543" y="166" on="0"/>
        <pt x="610" y="256" on="0"/>
        <pt x="645" y="364" on="0"/>
        <pt x="645" y="418" on="1"/>
        <pt x="645" y="478" on="0"/>
        <pt x="624" y="526" on="1"/>
        <pt x="290" y="134" on="1"/>
        <pt x="330" y="111" on="0"/>
      </contour>
    </TTGlyph>
    <TTGlyph name="Otilde" xMin="58" yMin="-10" xMax="782" yMax="973">
      <contour>
        <pt x="574" y="824" on="1"/>
        <pt x="547" y="824" on="0"/>
        <pt x="510" y="844" on="0"/>
        <pt x="482" y="871" on="0"/>
        <pt x="457" y="891" on="0"/>
        <pt x="443" y="891" on="1"/>
        <pt x="415" y="891" on="0"/>
        <pt x="404" y="830" on="1"/>
        <pt x="329" y="830" on="1"/>
        <pt x="337" y="870" on="0"/>
        <pt x="363" y="934" on="0"/>
        <pt x="408" y="973" on="0"/>
        <pt x="445" y="973" on="1"/>
        <pt x="472" y="973" on="0"/>
        <pt x="509" y="953" on="0"/>
        <pt x="537" y="927" on="0"/>
        <pt x="562" y="908" on="0"/>
        <pt x="575" y="908" on="1"/>
        <pt x="591" y="908" on="0"/>
        <pt x="608" y="938" on="0"/>
        <pt x="614" y="967" on="1"/>
        <pt x="688" y="967" on="1"/>
        <pt x="681" y="928" on="0"/>
        <pt x="655" y="863" on="0"/>
        <pt x="610" y="824" on="0"/>
      </contour>
      <contour>
        <pt x="378" y="-10" on="1"/>
        <pt x="296" y="-10" on="0"/>
        <pt x="175" y="44" on="0"/>
        <pt x="96" y="136" on="0"/>
        <pt x="58" y="255" on="0"/>
        <pt x="58" y="319" on="1"/>
        <pt x="58" y="396" on="0"/>
        <pt x="111" y="549" on="0"/>
        <pt x="214" y="674" on="0"/>
        <pt x="365" y="750" on="0"/>
        <pt x="463" y="750" on="1"/>
        <pt x="545" y="750" on="0"/>
        <pt x="665" y="696" on="0"/>
        <pt x="744" y="603" on="0"/>
        <pt x="782" y="485" on="0"/>
        <pt x="782" y="421" on="1"/>
        <pt x="782" y="344" on="0"/>
        <pt x="729" y="191" on="0"/>
        <pt x="626" y="66" on="0"/>
        <pt x="475" y="-10" on="0"/>
      </contour>
      <contour>
        <pt x="383" y="112" on="1"/>
        <pt x="446" y="112" on="0"/>
        <pt x="543" y="166" on="0"/>
        <pt x="610" y="256" on="0"/>
        <pt x="645" y="364" on="0"/>
        <pt x="645" y="418" on="1"/>
        <pt x="645" y="474" on="0"/>
        <pt x="606" y="569" on="0"/>
        <pt x="523" y="628" on="0"/>
        <pt x="458" y="628" on="1"/>
        <pt x="396" y="628" on="0"/>
        <pt x="298" y="574" on="0"/>
        <pt x="231" y="484" on="0"/>
        <pt x="196" y="376" on="0"/>
        <pt x="196" y="322" on="1"/>
        <pt x="196" y="266" on="0"/>
        <pt x="236" y="170" on="0"/>
        <pt x="319" y="112" on="0"/>
      </contour>
    </TTGlyph>
    <TTGlyph name="P" xMin="18" yMin="0" xMax="678" yMax="740">
      <contour>
        <pt x="18" y="0" on="1"/>
        <pt x="175" y="740" on="1"/>
        <pt x="431" y="740" on="1"/>
        <pt x="515" y="740" on="0"/>
        <pt x="625" y="677" on="0"/>
        <pt x="678" y="576" on="0"/>
        <pt x="678" y="519" on="1"/>
        <pt x="678" y="470" on="0"/>
        <pt x="640" y="375" on="0"/>
        <pt x="565" y="296" on="0"/>
        <pt x="455" y="249" on="0"/>
        <pt x="383" y="249" on="1"/>
        <pt x="207" y="249" on="1"/>
        <pt x="154" y="0" on="1"/>
      </contour>
      <contour>
        <pt x="417" y="622" on="1"/>
        <pt x="286" y="622" on="1"/>
        <pt x="232" y="367" on="1"/>
        <pt x="391" y="367" on="1"/>
        <pt x="439" y="367" on="0"/>
        <pt x="507" y="410" on="0"/>
        <pt x="542" y="475" on="0"/>
        <pt x="542" y="509" on="1"/>
        <pt x="542" y="553" on="0"/>
        <pt x="481" y="622" on="0"/>
      </contour>
    </TTGlyph>
    <TTGlyph name="Q" xMin="58" yMin="-10" xMax="782" yMax="750">
      <contour>
        <pt x="378" y="-10" on="1"/>
        <pt x="296" y="-10" on="0"/>
        <pt x="175" y="44" on="0"/>
        <pt x="96" y="136" on="0"/>
        <pt x="58" y="255" on="0"/>
        <pt x="58" y="319" on="1"/>
        <pt x="58" y="396" on="0"/>
        <pt x="111" y="549" on="0"/>
        <pt x="214" y="674" on="0"/>
        <pt x="365" y="750" on="0"/>
        <pt x="463" y="750" on="1"/>
        <pt x="545" y="750" on="0"/>
        <pt x="665" y="696" on="0"/>
        <pt x="744" y="603" on="0"/>
        <pt x="782" y="485" on="0"/>
        <pt x="782" y="421" on="1"/>
        <pt x="782" y="341" on="0"/>
        <pt x="725" y="181" on="0"/>
        <pt x="669" y="118" on="1"/>
        <pt x="757" y="0" on="1"/>
        <pt x="607" y="0" on="1"/>
        <pt x="575" y="42" on="1"/>
        <pt x="534" y="17" on="0"/>
        <pt x="435" y="-10" on="0"/>
      </contour>
      <contour>
        <pt x="383" y="112" on="1"/>
        <pt x="416" y="112" on="0"/>
        <pt x="474" y="128" on="0"/>
        <pt x="499" y="142" on="1"/>
        <pt x="398" y="274" on="1"/>
        <pt x="498" y="348" on="1"/>
        <pt x="588" y="227" on="1"/>
        <pt x="616" y="269" on="0"/>
        <pt x="645" y="369" on="0"/>
        <pt x="645" y="418" on="1"/>
        <pt x="645" y="474" on="0"/>
        <pt x="606" y="569" on="0"/>
        <pt x="523" y="628" on="0"/>
        <pt x="458" y="628" on="1"/>
        <pt x="396" y="628" on="0"/>
        <pt x="298" y="574" on="0"/>
        <pt x="231" y="484" on="0"/>
        <pt x="196" y="376" on="0"/>
        <pt x="196" y="322" on="1"/>
        <pt x="196" y="266" on="0"/>
        <pt x="236" y="170" on="0"/>
        <pt x="319" y="112" on="0"/>
      </contour>
    </TTGlyph>
    <TTGlyph name="R" xMin="18" yMin="0" xMax="663" yMax="740">
      <contour>
        <pt x="18" y="0" on="1"/>
        <pt x="175" y="740" on="1"/>
        <pt x="422" y="740" on="1"/>
        <pt x="504" y="740" on="0"/>
        <pt x="611" y="681" on="0"/>
        <pt x="663" y="587" on="0"/>
        <pt x="663" y="535" on="1"/>
        <pt x="663" y="485" on="0"/>
        <pt x="618" y="389" on="0"/>
        <pt x="529" y="316" on="0"/>
        <pt x="463" y="302" on="1"/>
        <pt x="568" y="0" on="1"/>
        <pt x="428" y="0" on="1"/>
        <pt x="329" y="294" on="1"/>
        <pt x="216" y="294" on="1"/>
        <pt x="154" y="0" on="1"/>
      </contour>
      <contour>
        <pt x="418" y="622" on="1"/>
        <pt x="286" y="622" on="1"/>
        <pt x="240" y="405" on="1"/>
        <pt x="392" y="405" on="1"/>
        <pt x="436" y="405" on="0"/>
        <pt x="497" y="442" on="0"/>
        <pt x="528" y="497" on="0"/>
        <pt x="528" y="526" on="1"/>
        <pt x="528" y="564" on="0"/>
        <pt x="474" y="622" on="0"/>
      </contour>
    </TTGlyph>
    <TTGlyph name="Racute" xMin="18" yMin="0" xMax="663" yMax="996">
      <contour>
        <pt x="474" y="816" on="1"/>
        <pt x="374" y="817" on="1"/>
        <pt x="460" y="996" on="1"/>
        <pt x="585" y="996" on="1"/>
      </contour>
      <contour>
        <pt x="18" y="0" on="1"/>
        <pt x="175" y="740" on="1"/>
        <pt x="422" y="740" on="1"/>
        <pt x="504" y="740" on="0"/>
        <pt x="611" y="681" on="0"/>
        <pt x="663" y="587" on="0"/>
        <pt x="663" y="535" on="1"/>
        <pt x="663" y="485" on="0"/>
        <pt x="618" y="389" on="0"/>
        <pt x="529" y="316" on="0"/>
        <pt x="463" y="302" on="1"/>
        <pt x="568" y="0" on="1"/>
        <pt x="428" y="0" on="1"/>
        <pt x="329" y="294" on="1"/>
        <pt x="216" y="294" on="1"/>
        <pt x="154" y="0" on="1"/>
      </contour>
      <contour>
        <pt x="418" y="622" on="1"/>
        <pt x="286" y="622" on="1"/>
        <pt x="240" y="405" on="1"/>
        <pt x="392" y="405" on="1"/>
        <pt x="436" y="405" on="0"/>
        <pt x="497" y="442" on="0"/>
        <pt x="528" y="497" on="0"/>
        <pt x="528" y="526" on="1"/>
        <pt x="528" y="564" on="0"/>
        <pt x="474" y="622" on="0"/>
      </contour>
    </TTGlyph>
    <TTGlyph name="Rcaron" xMin="18" yMin="0" xMax="663" yMax="985">
      <contour>
        <pt x="359" y="809" on="1"/>
        <pt x="270" y="985" on="1"/>
        <pt x="371" y="985" on="1"/>
        <pt x="421" y="880" on="1"/>
        <pt x="516" y="985" on="1"/>
        <pt x="630" y="985" on="1"/>
        <pt x="467" y="809" on="1"/>
      </contour>
      <contour>
        <pt x="18" y="0" on="1"/>
        <pt x="175" y="740" on="1"/>
        <pt x="422" y="740" on="1"/>
        <pt x="504" y="740" on="0"/>
        <pt x="611" y="681" on="0"/>
        <pt x="663" y="587" on="0"/>
        <pt x="663" y="535" on="1"/>
        <pt x="663" y="485" on="0"/>
        <pt x="618" y="389" on="0"/>
        <pt x="529" y="316" on="0"/>
        <pt x="463" y="302" on="1"/>
        <pt x="568" y="0" on="1"/>
        <pt x="428" y="0" on="1"/>
        <pt x="329" y="294" on="1"/>
        <pt x="216" y="294" on="1"/>
        <pt x="154" y="0" on="1"/>
      </contour>
      <contour>
        <pt x="418" y="622" on="1"/>
        <pt x="286" y="622" on="1"/>
        <pt x="240" y="405" on="1"/>
        <pt x="392" y="405" on="1"/>
        <pt x="436" y="405" on="0"/>
        <pt x="497" y="442" on="0"/>
        <pt x="528" y="497" on="0"/>
        <pt x="528" y="526" on="1"/>
        <pt x="528" y="564" on="0"/>
        <pt x="474" y="622" on="0"/>
      </contour>
    </TTGlyph>
    <TTGlyph name="S" xMin="32" yMin="-10" xMax="671" yMax="750">
      <contour>
        <pt x="323" y="-10" on="1"/>
        <pt x="248" y="-10" on="0"/>
        <pt x="147" y="24" on="0"/>
        <pt x="83" y="79" on="0"/>
        <pt x="49" y="139" on="0"/>
        <pt x="35" y="193" on="0"/>
        <pt x="32" y="228" on="0"/>
        <pt x="32" y="228" on="1"/>
        <pt x="167" y="228" on="1"/>
        <pt x="167" y="228" on="0"/>
        <pt x="170" y="203" on="0"/>
        <pt x="185" y="165" on="0"/>
        <pt x="218" y="128" on="0"/>
        <pt x="278" y="103" on="0"/>
        <pt x="326" y="103" on="1"/>
        <pt x="388" y="103" on="0"/>
        <pt x="472" y="161" on="0"/>
        <pt x="472" y="209" on="1"/>
        <pt x="472" y="245" on="0"/>
        <pt x="420" y="289" on="0"/>
        <pt x="379" y="304" on="1"/>
        <pt x="296" y="335" on="1"/>
        <pt x="251" y="352" on="0"/>
        <pt x="176" y="402" on="0"/>
        <pt x="132" y="478" on="0"/>
        <pt x="132" y="531" on="1"/>
        <pt x="132" y="589" on="0"/>
        <pt x="195" y="688" on="0"/>
        <pt x="316" y="750" on="0"/>
        <pt x="403" y="750" on="1"/>
        <pt x="470" y="750" on="0"/>
        <pt x="562" y="718" on="0"/>
        <pt x="621" y="668" on="0"/>
        <pt x="654" y="612" on="0"/>
        <pt x="668" y="562" on="0"/>
        <pt x="671" y="531" on="0"/>
        <pt x="671" y="531" on="1"/>
        <pt x="540" y="531" on="1"/>
        <pt x="540" y="531" on="0"/>
        <pt x="534" y="564" on="0"/>
        <pt x="508" y="607" on="0"/>
        <pt x="452" y="640" on="0"/>
        <pt x="403" y="640" on="1"/>
        <pt x="339" y="640" on="0"/>
        <pt x="267" y="582" on="0"/>
        <pt x="267" y="539" on="1"/>
        <pt x="267" y="505" on="0"/>
        <pt x="312" y="461" on="0"/>
        <pt x="350" y="446" on="1"/>
        <pt x="427" y="417" on="1"/>
        <pt x="477" y="400" on="0"/>
        <pt x="559" y="348" on="0"/>
        <pt x="608" y="270" on="0"/>
        <pt x="608" y="214" on="1"/>
        <pt x="608" y="153" on="0"/>
        <pt x="537" y="51" on="0"/>
        <pt x="409" y="-10" on="0"/>
      </contour>
    </TTGlyph>
    <TTGlyph name="Sacute" xMin="32" yMin="-10" xMax="671" yMax="996">
      <contour>
        <pt x="508" y="816" on="1"/>
        <pt x="408" y="817" on="1"/>
        <pt x="495" y="996" on="1"/>
        <pt x="620" y="996" on="1"/>
      </contour>
      <contour>
        <pt x="322" y="-10" on="1"/>
        <pt x="248" y="-10" on="0"/>
        <pt x="146" y="24" on="0"/>
        <pt x="83" y="79" on="0"/>
        <pt x="48" y="139" on="0"/>
        <pt x="34" y="193" on="0"/>
        <pt x="32" y="228" on="0"/>
        <pt x="32" y="228" on="1"/>
        <pt x="167" y="228" on="1"/>
        <pt x="167" y="228" on="0"/>
        <pt x="170" y="203" on="0"/>
        <pt x="184" y="165" on="0"/>
        <pt x="218" y="128" on="0"/>
        <pt x="278" y="103" on="0"/>
        <pt x="325" y="103" on="1"/>
        <pt x="387" y="103" on="0"/>
        <pt x="471" y="161" on="0"/>
        <pt x="471" y="209" on="1"/>
        <pt x="471" y="245" on="0"/>
        <pt x="420" y="289" on="0"/>
        <pt x="379" y="304" on="1"/>
        <pt x="296" y="335" on="1"/>
        <pt x="250" y="352" on="0"/>
        <pt x="175" y="402" on="0"/>
        <pt x="131" y="478" on="0"/>
        <pt x="131" y="531" on="1"/>
        <pt x="131" y="589" on="0"/>
        <pt x="194" y="688" on="0"/>
        <pt x="315" y="750" on="0"/>
        <pt x="403" y="750" on="1"/>
        <pt x="469" y="750" on="0"/>
        <pt x="561" y="718" on="0"/>
        <pt x="620" y="668" on="0"/>
        <pt x="653" y="612" on="0"/>
        <pt x="668" y="562" on="0"/>
        <pt x="671" y="531" on="0"/>
        <pt x="671" y="531" on="1"/>
        <pt x="540" y="531" on="1"/>
        <pt x="540" y="531" on="0"/>
        <pt x="533" y="564" on="0"/>
        <pt x="507" y="607" on="0"/>
        <pt x="452" y="640" on="0"/>
        <pt x="403" y="640" on="1"/>
        <pt x="338" y="640" on="0"/>
        <pt x="266" y="582" on="0"/>
        <pt x="266" y="539" on="1"/>
        <pt x="266" y="505" on="0"/>
        <pt x="312" y="461" on="0"/>
        <pt x="349" y="446" on="1"/>
        <pt x="426" y="417" on="1"/>
        <pt x="476" y="400" on="0"/>
        <pt x="558" y="348" on="0"/>
        <pt x="607" y="270" on="0"/>
        <pt x="607" y="214" on="1"/>
        <pt x="607" y="153" on="0"/>
        <pt x="537" y="51" on="0"/>
        <pt x="409" y="-10" on="0"/>
      </contour>
    </TTGlyph>
    <TTGlyph name="Scaron" xMin="32" yMin="-10" xMax="671" yMax="985">
      <contour>
        <pt x="394" y="809" on="1"/>
        <pt x="304" y="985" on="1"/>
        <pt x="406" y="985" on="1"/>
        <pt x="455" y="880" on="1"/>
        <pt x="550" y="985" on="1"/>
        <pt x="665" y="985" on="1"/>
        <pt x="501" y="809" on="1"/>
      </contour>
      <contour>
        <pt x="322" y="-10" on="1"/>
        <pt x="248" y="-10" on="0"/>
        <pt x="146" y="24" on="0"/>
        <pt x="83" y="79" on="0"/>
        <pt x="48" y="139" on="0"/>
        <pt x="34" y="193" on="0"/>
        <pt x="32" y="228" on="0"/>
        <pt x="32" y="228" on="1"/>
        <pt x="167" y="228" on="1"/>
        <pt x="167" y="228" on="0"/>
        <pt x="170" y="203" on="0"/>
        <pt x="184" y="165" on="0"/>
        <pt x="218" y="128" on="0"/>
        <pt x="278" y="103" on="0"/>
        <pt x="325" y="103" on="1"/>
        <pt x="387" y="103" on="0"/>
        <pt x="471" y="161" on="0"/>
        <pt x="471" y="209" on="1"/>
        <pt x="471" y="245" on="0"/>
        <pt x="420" y="289" on="0"/>
        <pt x="379" y="304" on="1"/>
        <pt x="296" y="335" on="1"/>
        <pt x="250" y="352" on="0"/>
        <pt x="175" y="402" on="0"/>
        <pt x="131" y="478" on="0"/>
        <pt x="131" y="531" on="1"/>
        <pt x="131" y="589" on="0"/>
        <pt x="194" y="688" on="0"/>
        <pt x="315" y="750" on="0"/>
        <pt x="403" y="750" on="1"/>
        <pt x="469" y="750" on="0"/>
        <pt x="561" y="718" on="0"/>
        <pt x="620" y="668" on="0"/>
        <pt x="653" y="612" on="0"/>
        <pt x="668" y="562" on="0"/>
        <pt x="671" y="531" on="0"/>
        <pt x="671" y="531" on="1"/>
        <pt x="540" y="531" on="1"/>
        <pt x="540" y="531" on="0"/>
        <pt x="533" y="564" on="0"/>
        <pt x="507" y="607" on="0"/>
        <pt x="452" y="640" on="0"/>
        <pt x="403" y="640" on="1"/>
        <pt x="338" y="640" on="0"/>
        <pt x="266" y="582" on="0"/>
        <pt x="266" y="539" on="1"/>
        <pt x="266" y="505" on="0"/>
        <pt x="312" y="461" on="0"/>
        <pt x="349" y="446" on="1"/>
        <pt x="426" y="417" on="1"/>
        <pt x="476" y="400" on="0"/>
        <pt x="558" y="348" on="0"/>
        <pt x="607" y="270" on="0"/>
        <pt x="607" y="214" on="1"/>
        <pt x="607" y="153" on="0"/>
        <pt x="537" y="51" on="0"/>
        <pt x="409" y="-10" on="0"/>
      </contour>
    </TTGlyph>
    <TTGlyph name="Scedilla" xMin="32" yMin="-261" xMax="671" yMax="750">
      <contour>
        <pt x="245" y="-261" on="1"/>
        <pt x="213" y="-261" on="0"/>
        <pt x="163" y="-251" on="0"/>
        <pt x="163" y="-251" on="1"/>
        <pt x="175" y="-179" on="1"/>
        <pt x="175" y="-179" on="0"/>
        <pt x="199" y="-183" on="0"/>
        <pt x="233" y="-187" on="0"/>
        <pt x="247" y="-187" on="1"/>
        <pt x="285" y="-187" on="0"/>
        <pt x="313" y="-159" on="0"/>
        <pt x="313" y="-144" on="1"/>
        <pt x="313" y="-129" on="0"/>
        <pt x="289" y="-107" on="0"/>
        <pt x="266" y="-107" on="1"/>
        <pt x="246" y="-107" on="0"/>
        <pt x="220" y="-120" on="0"/>
        <pt x="220" y="-120" on="1"/>
        <pt x="185" y="-76" on="1"/>
        <pt x="248" y="-4" on="1"/>
        <pt x="181" y="6" on="0"/>
        <pt x="98" y="60" on="0"/>
        <pt x="53" y="126" on="0"/>
        <pt x="35" y="187" on="0"/>
        <pt x="32" y="228" on="0"/>
        <pt x="32" y="228" on="1"/>
        <pt x="167" y="228" on="1"/>
        <pt x="167" y="228" on="0"/>
        <pt x="170" y="203" on="0"/>
        <pt x="184" y="165" on="0"/>
        <pt x="218" y="128" on="0"/>
        <pt x="278" y="103" on="0"/>
        <pt x="325" y="103" on="1"/>
        <pt x="387" y="103" on="0"/>
        <pt x="471" y="161" on="0"/>
        <pt x="471" y="209" on="1"/>
        <pt x="471" y="245" on="0"/>
        <pt x="420" y="289" on="0"/>
        <pt x="379" y="304" on="1"/>
        <pt x="296" y="335" on="1"/>
        <pt x="250" y="352" on="0"/>
        <pt x="175" y="402" on="0"/>
        <pt x="131" y="478" on="0"/>
        <pt x="131" y="531" on="1"/>
        <pt x="131" y="589" on="0"/>
        <pt x="194" y="688" on="0"/>
        <pt x="315" y="750" on="0"/>
        <pt x="403" y="750" on="1"/>
        <pt x="469" y="750" on="0"/>
        <pt x="561" y="718" on="0"/>
        <pt x="620" y="668" on="0"/>
        <pt x="653" y="612" on="0"/>
        <pt x="668" y="562" on="0"/>
        <pt x="671" y="531" on="0"/>
        <pt x="671" y="531" on="1"/>
        <pt x="540" y="531" on="1"/>
        <pt x="540" y="531" on="0"/>
        <pt x="533" y="564" on="0"/>
        <pt x="507" y="607" on="0"/>
        <pt x="452" y="640" on="0"/>
        <pt x="403" y="640" on="1"/>
        <pt x="338" y="640" on="0"/>
        <pt x="266" y="582" on="0"/>
        <pt x="266" y="539" on="1"/>
        <pt x="266" y="505" on="0"/>
        <pt x="312" y="461" on="0"/>
        <pt x="349" y="446" on="1"/>
        <pt x="426" y="417" on="1"/>
        <pt x="476" y="400" on="0"/>
        <pt x="558" y="348" on="0"/>
        <pt x="607" y="270" on="0"/>
        <pt x="607" y="214" on="1"/>
        <pt x="607" y="154" on="0"/>
        <pt x="539" y="54" on="0"/>
        <pt x="416" y="-8" on="0"/>
        <pt x="332" y="-10" on="1"/>
        <pt x="298" y="-48" on="1"/>
        <pt x="301" y="-48" on="1"/>
        <pt x="351" y="-48" on="0"/>
        <pt x="407" y="-105" on="0"/>
        <pt x="407" y="-144" on="1"/>
        <pt x="407" y="-172" on="0"/>
        <pt x="374" y="-226" on="0"/>
        <pt x="302" y="-261" on="0"/>
      </contour>
    </TTGlyph>
    <TTGlyph name="T" xMin="107" yMin="0" xMax="736" yMax="740">
      <contour>
        <pt x="210" y="0" on="1"/>
        <pt x="342" y="622" on="1"/>
        <pt x="107" y="622" on="1"/>
        <pt x="132" y="740" on="1"/>
        <pt x="736" y="740" on="1"/>
        <pt x="711" y="622" on="1"/>
        <pt x="477" y="622" on="1"/>
        <pt x="345" y="0" on="1"/>
      </contour>
    </TTGlyph>
    <TTGlyph name="Tbar" xMin="106" yMin="0" xMax="724" yMax="740">
      <contour>
        <pt x="204" y="0" on="1"/>
        <pt x="272" y="321" on="1"/>
        <pt x="106" y="321" on="1"/>
        <pt x="127" y="420" on="1"/>
        <pt x="293" y="420" on="1"/>
        <pt x="336" y="622" on="1"/>
        <pt x="107" y="622" on="1"/>
        <pt x="132" y="740" on="1"/>
        <pt x="724" y="740" on="1"/>
        <pt x="699" y="622" on="1"/>
        <pt x="471" y="622" on="1"/>
        <pt x="428" y="420" on="1"/>
        <pt x="610" y="420" on="1"/>
        <pt x="589" y="321" on="1"/>
        <pt x="407" y="321" on="1"/>
        <pt x="339" y="0" on="1"/>
      </contour>
    </TTGlyph>
    <TTGlyph name="Tcaron" xMin="107" yMin="0" xMax="724" yMax="985">
      <contour>
        <pt x="384" y="809" on="1"/>
        <pt x="294" y="985" on="1"/>
        <pt x="396" y="985" on="1"/>
        <pt x="446" y="880" on="1"/>
        <pt x="540" y="985" on="1"/>
        <pt x="655" y="985" on="1"/>
        <pt x="491" y="809" on="1"/>
      </contour>
      <contour>
        <pt x="204" y="0" on="1"/>
        <pt x="336" y="622" on="1"/>
        <pt x="107" y="622" on="1"/>
        <pt x="132" y="740" on="1"/>
        <pt x="724" y="740" on="1"/>
        <pt x="699" y="622" on="1"/>
        <pt x="471" y="622" on="1"/>
        <pt x="339" y="0" on="1"/>
      </contour>
    </TTGlyph>
    <TTGlyph name="Thorn" xMin="18" yMin="0" xMax="658" yMax="740">
      <contour>
        <pt x="18" y="0" on="1"/>
        <pt x="175" y="740" on="1"/>
        <pt x="311" y="740" on="1"/>
        <pt x="284" y="616" on="1"/>
        <pt x="410" y="616" on="1"/>
        <pt x="494" y="616" on="0"/>
        <pt x="604" y="553" on="0"/>
        <pt x="658" y="452" on="0"/>
        <pt x="658" y="395" on="1"/>
        <pt x="658" y="346" on="0"/>
        <pt x="619" y="250" on="0"/>
        <pt x="544" y="172" on="0"/>
        <pt x="434" y="125" on="0"/>
        <pt x="362" y="125" on="1"/>
        <pt x="180" y="125" on="1"/>
        <pt x="154" y="0" on="1"/>
      </contour>
      <contour>
        <pt x="396" y="497" on="1"/>
        <pt x="259" y="497" on="1"/>
        <pt x="205" y="243" on="1"/>
        <pt x="370" y="243" on="1"/>
        <pt x="419" y="243" on="0"/>
        <pt x="486" y="285" on="0"/>
        <pt x="521" y="351" on="0"/>
        <pt x="521" y="384" on="1"/>
        <pt x="521" y="428" on="0"/>
        <pt x="460" y="497" on="0"/>
      </contour>
    </TTGlyph>
    <TTGlyph name="U" xMin="65" yMin="-10" xMax="761" yMax="740">
      <contour>
        <pt x="319" y="-10" on="1"/>
        <pt x="259" y="-10" on="0"/>
        <pt x="158" y="28" on="0"/>
        <pt x="89" y="104" on="0"/>
        <pt x="65" y="221" on="0"/>
        <pt x="81" y="300" on="1"/>
        <pt x="175" y="740" on="1"/>
        <pt x="311" y="740" on="1"/>
        <pt x="216" y="292" on="1"/>
        <pt x="199" y="213" on="0"/>
        <pt x="260" y="118" on="0"/>
        <pt x="339" y="118" on="1"/>
        <pt x="414" y="118" on="0"/>
        <pt x="513" y="212" on="0"/>
        <pt x="530" y="292" on="1"/>
        <pt x="625" y="740" on="1"/>
        <pt x="761" y="740" on="1"/>
        <pt x="664" y="284" on="1"/>
        <pt x="632" y="132" on="0"/>
        <pt x="447" y="-10" on="0"/>
      </contour>
    </TTGlyph>
    <TTGlyph name="Uacute" xMin="65" yMin="-10" xMax="761" yMax="996">
      <contour>
        <pt x="539" y="816" on="1"/>
        <pt x="439" y="817" on="1"/>
        <pt x="526" y="996" on="1"/>
        <pt x="651" y="996" on="1"/>
      </contour>
      <contour>
        <pt x="319" y="-10" on="1"/>
        <pt x="259" y="-10" on="0"/>
        <pt x="158" y="28" on="0"/>
        <pt x="89" y="104" on="0"/>
        <pt x="65" y="221" on="0"/>
        <pt x="81" y="300" on="1"/>
        <pt x="175" y="740" on="1"/>
        <pt x="311" y="740" on="1"/>
        <pt x="216" y="292" on="1"/>
        <pt x="199" y="213" on="0"/>
        <pt x="260" y="118" on="0"/>
        <pt x="339" y="118" on="1"/>
        <pt x="414" y="118" on="0"/>
        <pt x="513" y="212" on="0"/>
        <pt x="530" y="292" on="1"/>
        <pt x="625" y="740" on="1"/>
        <pt x="761" y="740" on="1"/>
        <pt x="664" y="284" on="1"/>
        <pt x="632" y="132" on="0"/>
        <pt x="447" y="-10" on="0"/>
      </contour>
    </TTGlyph>
    <TTGlyph name="Ucircumflex" xMin="65" yMin="-10" xMax="761" yMax="985">
      <contour>
        <pt x="300" y="809" on="1"/>
        <pt x="463" y="985" on="1"/>
        <pt x="571" y="985" on="1"/>
        <pt x="660" y="809" on="1"/>
        <pt x="559" y="809" on="1"/>
        <pt x="509" y="914" on="1"/>
        <pt x="414" y="809" on="1"/>
      </contour>
      <contour>
        <pt x="319" y="-10" on="1"/>
        <pt x="259" y="-10" on="0"/>
        <pt x="158" y="28" on="0"/>
        <pt x="89" y="104" on="0"/>
        <pt x="65" y="221" on="0"/>
        <pt x="81" y="300" on="1"/>
        <pt x="175" y="740" on="1"/>
        <pt x="311" y="740" on="1"/>
        <pt x="216" y="292" on="1"/>
        <pt x="199" y="213" on="0"/>
        <pt x="260" y="118" on="0"/>
        <pt x="339" y="118" on="1"/>
        <pt x="414" y="118" on="0"/>
        <pt x="513" y="212" on="0"/>
        <pt x="530" y="292" on="1"/>
        <pt x="625" y="740" on="1"/>
        <pt x="761" y="740" on="1"/>
        <pt x="664" y="284" on="1"/>
        <pt x="632" y="132" on="0"/>
        <pt x="447" y="-10" on="0"/>
      </contour>
    </TTGlyph>
    <TTGlyph name="Udieresis" xMin="65" yMin="-10" xMax="761" yMax="960">
      <contour>
        <pt x="603" y="807" on="1"/>
        <pt x="568" y="807" on="0"/>
        <pt x="525" y="853" on="0"/>
        <pt x="525" y="883" on="1"/>
        <pt x="525" y="915" on="0"/>
        <pt x="568" y="960" on="0"/>
        <pt x="603" y="960" on="1"/>
        <pt x="636" y="960" on="0"/>
        <pt x="681" y="915" on="0"/>
        <pt x="681" y="883" on="1"/>
        <pt x="681" y="852" on="0"/>
        <pt x="636" y="807" on="0"/>
      </contour>
      <contour>
        <pt x="389" y="807" on="1"/>
        <pt x="354" y="807" on="0"/>
        <pt x="311" y="853" on="0"/>
        <pt x="311" y="883" on="1"/>
        <pt x="311" y="915" on="0"/>
        <pt x="354" y="960" on="0"/>
        <pt x="389" y="960" on="1"/>
        <pt x="422" y="960" on="0"/>
        <pt x="467" y="915" on="0"/>
        <pt x="467" y="883" on="1"/>
        <pt x="467" y="852" on="0"/>
        <pt x="422" y="807" on="0"/>
      </contour>
      <contour>
        <pt x="319" y="-10" on="1"/>
        <pt x="259" y="-10" on="0"/>
        <pt x="158" y="28" on="0"/>
        <pt x="89" y="104" on="0"/>
        <pt x="65" y="221" on="0"/>
        <pt x="81" y="300" on="1"/>
        <pt x="175" y="740" on="1"/>
        <pt x="311" y="740" on="1"/>
        <pt x="216" y="292" on="1"/>
        <pt x="199" y="213" on="0"/>
        <pt x="260" y="118" on="0"/>
        <pt x="339" y="118" on="1"/>
        <pt x="414" y="118" on="0"/>
        <pt x="513" y="212" on="0"/>
        <pt x="530" y="292" on="1"/>
        <pt x="625" y="740" on="1"/>
        <pt x="761" y="740" on="1"/>
        <pt x="664" y="284" on="1"/>
        <pt x="632" y="132" on="0"/>
        <pt x="447" y="-10" on="0"/>
      </contour>
    </TTGlyph>
    <TTGlyph name="Ugrave" xMin="65" yMin="-10" xMax="761" yMax="996">
      <contour>
        <pt x="423" y="816" on="1"/>
        <pt x="332" y="996" on="1"/>
        <pt x="453" y="996" on="1"/>
        <pt x="520" y="817" on="1"/>
      </contour>
      <contour>
        <pt x="319" y="-10" on="1"/>
        <pt x="259" y="-10" on="0"/>
        <pt x="158" y="28" on="0"/>
        <pt x="89" y="104" on="0"/>
        <pt x="65" y="221" on="0"/>
        <pt x="81" y="300" on="1"/>
        <pt x="175" y="740" on="1"/>
        <pt x="311" y="740" on="1"/>
        <pt x="216" y="292" on="1"/>
        <pt x="199" y="213" on="0"/>
        <pt x="260" y="118" on="0"/>
        <pt x="339" y="118" on="1"/>
        <pt x="414" y="118" on="0"/>
        <pt x="513" y="212" on="0"/>
        <pt x="530" y="292" on="1"/>
        <pt x="625" y="740" on="1"/>
        <pt x="761" y="740" on="1"/>
        <pt x="664" y="284" on="1"/>
        <pt x="632" y="132" on="0"/>
        <pt x="447" y="-10" on="0"/>
      </contour>
    </TTGlyph>
    <TTGlyph name="Uhorn" xMin="65" yMin="-10" xMax="899" yMax="848">
      <contour>
        <pt x="319" y="-10" on="1"/>
        <pt x="259" y="-10" on="0"/>
        <pt x="158" y="28" on="0"/>
        <pt x="89" y="104" on="0"/>
        <pt x="65" y="221" on="0"/>
        <pt x="81" y="300" on="1"/>
        <pt x="175" y="740" on="1"/>
        <pt x="311" y="740" on="1"/>
        <pt x="216" y="292" on="1"/>
        <pt x="199" y="213" on="0"/>
        <pt x="260" y="118" on="0"/>
        <pt x="339" y="118" on="1"/>
        <pt x="414" y="118" on="0"/>
        <pt x="513" y="212" on="0"/>
        <pt x="530" y="292" on="1"/>
        <pt x="625" y="740" on="1"/>
        <pt x="718" y="740" on="1"/>
        <pt x="761" y="740" on="0"/>
        <pt x="769" y="781" on="1"/>
        <pt x="783" y="848" on="1"/>
        <pt x="899" y="848" on="1"/>
        <pt x="880" y="759" on="1"/>
        <pt x="870" y="713" on="0"/>
        <pt x="814" y="663" on="0"/>
        <pt x="762" y="663" on="1"/>
        <pt x="744" y="663" on="1"/>
        <pt x="664" y="284" on="1"/>
        <pt x="632" y="132" on="0"/>
        <pt x="447" y="-10" on="0"/>
      </contour>
    </TTGlyph>
    <TTGlyph name="Uhungarumlaut" xMin="65" yMin="-10" xMax="761" yMax="996">
      <contour>
        <pt x="439" y="816" on="1"/>
        <pt x="340" y="817" on="1"/>
        <pt x="431" y="996" on="1"/>
        <pt x="555" y="996" on="1"/>
      </contour>
      <contour>
        <pt x="619" y="816" on="1"/>
        <pt x="518" y="817" on="1"/>
        <pt x="619" y="996" on="1"/>
        <pt x="745" y="996" on="1"/>
      </contour>
      <contour>
        <pt x="319" y="-10" on="1"/>
        <pt x="259" y="-10" on="0"/>
        <pt x="158" y="28" on="0"/>
        <pt x="89" y="104" on="0"/>
        <pt x="65" y="221" on="0"/>
        <pt x="81" y="300" on="1"/>
        <pt x="175" y="740" on="1"/>
        <pt x="311" y="740" on="1"/>
        <pt x="216" y="292" on="1"/>
        <pt x="199" y="213" on="0"/>
        <pt x="260" y="118" on="0"/>
        <pt x="339" y="118" on="1"/>
        <pt x="414" y="118" on="0"/>
        <pt x="513" y="212" on="0"/>
        <pt x="530" y="292" on="1"/>
        <pt x="625" y="740" on="1"/>
        <pt x="761" y="740" on="1"/>
        <pt x="664" y="284" on="1"/>
        <pt x="632" y="132" on="0"/>
        <pt x="447" y="-10" on="0"/>
      </contour>
    </TTGlyph>
    <TTGlyph name="Umacron" xMin="65" yMin="-10" xMax="761" yMax="924">
      <contour>
        <pt x="326" y="840" on="1"/>
        <pt x="345" y="924" on="1"/>
        <pt x="663" y="924" on="1"/>
        <pt x="645" y="840" on="1"/>
      </contour>
      <contour>
        <pt x="319" y="-10" on="1"/>
        <pt x="259" y="-10" on="0"/>
        <pt x="158" y="28" on="0"/>
        <pt x="89" y="104" on="0"/>
        <pt x="65" y="221" on="0"/>
        <pt x="81" y="300" on="1"/>
        <pt x="175" y="740" on="1"/>
        <pt x="311" y="740" on="1"/>
        <pt x="216" y="292" on="1"/>
        <pt x="199" y="213" on="0"/>
        <pt x="260" y="118" on="0"/>
        <pt x="339" y="118" on="1"/>
        <pt x="414" y="118" on="0"/>
        <pt x="513" y="212" on="0"/>
        <pt x="530" y="292" on="1"/>
        <pt x="625" y="740" on="1"/>
        <pt x="761" y="740" on="1"/>
        <pt x="664" y="284" on="1"/>
        <pt x="632" y="132" on="0"/>
        <pt x="447" y="-10" on="0"/>
      </contour>
    </TTGlyph>
    <TTGlyph name="Uogonek" xMin="62" yMin="-183" xMax="761" yMax="740">
      <contour>
        <pt x="316" y="-183" on="1"/>
        <pt x="258" y="-183" on="0"/>
        <pt x="200" y="-136" on="0"/>
        <pt x="200" y="-99" on="1"/>
        <pt x="200" y="-65" on="0"/>
        <pt x="240" y="-19" on="0"/>
        <pt x="264" y="-6" on="1"/>
        <pt x="198" y="4" on="0"/>
        <pt x="101" y="78" on="0"/>
        <pt x="62" y="207" on="0"/>
        <pt x="81" y="300" on="1"/>
        <pt x="175" y="740" on="1"/>
        <pt x="311" y="740" on="1"/>
        <pt x="216" y="292" on="1"/>
        <pt x="199" y="213" on="0"/>
        <pt x="260" y="118" on="0"/>
        <pt x="339" y="118" on="1"/>
        <pt x="414" y="118" on="0"/>
        <pt x="513" y="212" on="0"/>
        <pt x="530" y="292" on="1"/>
        <pt x="625" y="740" on="1"/>
        <pt x="761" y="740" on="1"/>
        <pt x="664" y="284" on="1"/>
        <pt x="634" y="144" on="0"/>
        <pt x="472" y="2" on="0"/>
        <pt x="359" y="-8" on="1"/>
        <pt x="350" y="-12" on="0"/>
        <pt x="322" y="-29" on="0"/>
        <pt x="299" y="-55" on="0"/>
        <pt x="299" y="-72" on="1"/>
        <pt x="299" y="-87" on="0"/>
        <pt x="322" y="-106" on="0"/>
        <pt x="348" y="-106" on="1"/>
        <pt x="360" y="-106" on="0"/>
        <pt x="383" y="-102" on="0"/>
        <pt x="383" y="-102" on="1"/>
        <pt x="367" y="-177" on="1"/>
        <pt x="367" y="-177" on="0"/>
        <pt x="339" y="-183" on="0"/>
      </contour>
    </TTGlyph>
    <TTGlyph name="Uring" xMin="65" yMin="-10" xMax="761" yMax="1068">
      <contour>
        <pt x="481" y="802" on="1"/>
        <pt x="444" y="802" on="0"/>
        <pt x="384" y="838" on="0"/>
        <pt x="347" y="899" on="0"/>
        <pt x="347" y="936" on="1"/>
        <pt x="347" y="972" on="0"/>
        <pt x="384" y="1033" on="0"/>
        <pt x="444" y="1068" on="0"/>
        <pt x="481" y="1068" on="1"/>
        <pt x="518" y="1068" on="0"/>
        <pt x="578" y="1033" on="0"/>
        <pt x="614" y="972" on="0"/>
        <pt x="614" y="936" on="1"/>
        <pt x="614" y="899" on="0"/>
        <pt x="578" y="838" on="0"/>
        <pt x="518" y="802" on="0"/>
      </contour>
      <contour>
        <pt x="481" y="879" on="1"/>
        <pt x="504" y="879" on="0"/>
        <pt x="538" y="912" on="0"/>
        <pt x="538" y="936" on="1"/>
        <pt x="538" y="959" on="0"/>
        <pt x="504" y="992" on="0"/>
        <pt x="481" y="992" on="1"/>
        <pt x="458" y="992" on="0"/>
        <pt x="424" y="959" on="0"/>
        <pt x="424" y="936" on="1"/>
        <pt x="424" y="912" on="0"/>
        <pt x="458" y="879" on="0"/>
      </contour>
      <contour>
        <pt x="319" y="-10" on="1"/>
        <pt x="259" y="-10" on="0"/>
        <pt x="158" y="28" on="0"/>
        <pt x="89" y="104" on="0"/>
        <pt x="65" y="221" on="0"/>
        <pt x="81" y="300" on="1"/>
        <pt x="175" y="740" on="1"/>
        <pt x="311" y="740" on="1"/>
        <pt x="216" y="292" on="1"/>
        <pt x="199" y="213" on="0"/>
        <pt x="260" y="118" on="0"/>
        <pt x="339" y="118" on="1"/>
        <pt x="414" y="118" on="0"/>
        <pt x="513" y="212" on="0"/>
        <pt x="530" y="292" on="1"/>
        <pt x="625" y="740" on="1"/>
        <pt x="761" y="740" on="1"/>
        <pt x="664" y="284" on="1"/>
        <pt x="632" y="132" on="0"/>
        <pt x="447" y="-10" on="0"/>
      </contour>
    </TTGlyph>
    <TTGlyph name="Utilde" xMin="65" yMin="-10" xMax="761" yMax="973">
      <contour>
        <pt x="566" y="824" on="1"/>
        <pt x="540" y="824" on="0"/>
        <pt x="503" y="844" on="0"/>
        <pt x="474" y="871" on="0"/>
        <pt x="450" y="891" on="0"/>
        <pt x="436" y="891" on="1"/>
        <pt x="407" y="891" on="0"/>
        <pt x="396" y="830" on="1"/>
        <pt x="322" y="830" on="1"/>
        <pt x="330" y="870" on="0"/>
        <pt x="356" y="934" on="0"/>
        <pt x="400" y="973" on="0"/>
        <pt x="437" y="973" on="1"/>
        <pt x="464" y="973" on="0"/>
        <pt x="502" y="953" on="0"/>
        <pt x="530" y="927" on="0"/>
        <pt x="554" y="908" on="0"/>
        <pt x="568" y="908" on="1"/>
        <pt x="583" y="908" on="0"/>
        <pt x="601" y="938" on="0"/>
        <pt x="607" y="967" on="1"/>
        <pt x="681" y="967" on="1"/>
        <pt x="673" y="928" on="0"/>
        <pt x="647" y="863" on="0"/>
        <pt x="603" y="824" on="0"/>
      </contour>
      <contour>
        <pt x="319" y="-10" on="1"/>
        <pt x="259" y="-10" on="0"/>
        <pt x="158" y="28" on="0"/>
        <pt x="89" y="104" on="0"/>
        <pt x="65" y="221" on="0"/>
        <pt x="81" y="300" on="1"/>
        <pt x="175" y="740" on="1"/>
        <pt x="311" y="740" on="1"/>
        <pt x="216" y="292" on="1"/>
        <pt x="199" y="213" on="0"/>
        <pt x="260" y="118" on="0"/>
        <pt x="339" y="118" on="1"/>
        <pt x="414" y="118" on="0"/>
        <pt x="513" y="212" on="0"/>
        <pt x="530" y="292" on="1"/>
        <pt x="625" y="740" on="1"/>
        <pt x="761" y="740" on="1"/>
        <pt x="664" y="284" on="1"/>
        <pt x="632" y="132" on="0"/>
        <pt x="447" y="-10" on="0"/>
      </contour>
    </TTGlyph>
    <TTGlyph name="V" xMin="108" yMin="0" xMax="792" yMax="740">
      <contour>
        <pt x="206" y="0" on="1"/>
        <pt x="108" y="740" on="1"/>
        <pt x="242" y="740" on="1"/>
        <pt x="315" y="142" on="1"/>
        <pt x="643" y="740" on="1"/>
        <pt x="792" y="740" on="1"/>
        <pt x="379" y="0" on="1"/>
      </contour>
    </TTGlyph>
    <TTGlyph name="W" xMin="118" yMin="0" xMax="1087" yMax="740">
      <contour>
        <pt x="150" y="0" on="1"/>
        <pt x="118" y="740" on="1"/>
        <pt x="248" y="740" on="1"/>
        <pt x="269" y="182" on="1"/>
        <pt x="529" y="740" on="1"/>
        <pt x="665" y="740" on="1"/>
        <pt x="691" y="183" on="1"/>
        <pt x="944" y="740" on="1"/>
        <pt x="1087" y="740" on="1"/>
        <pt x="743" y="0" on="1"/>
        <pt x="577" y="0" on="1"/>
        <pt x="553" y="513" on="1"/>
        <pt x="314" y="0" on="1"/>
      </contour>
    </TTGlyph>
    <TTGlyph name="Wacute" xMin="108" yMin="0" xMax="1077" yMax="996">
      <contour>
        <pt x="666" y="816" on="1"/>
        <pt x="566" y="817" on="1"/>
        <pt x="652" y="996" on="1"/>
        <pt x="777" y="996" on="1"/>
      </contour>
      <contour>
        <pt x="140" y="0" on="1"/>
        <pt x="108" y="740" on="1"/>
        <pt x="238" y="740" on="1"/>
        <pt x="259" y="182" on="1"/>
        <pt x="519" y="740" on="1"/>
        <pt x="655" y="740" on="1"/>
        <pt x="681" y="183" on="1"/>
        <pt x="934" y="740" on="1"/>
        <pt x="1077" y="740" on="1"/>
        <pt x="733" y="0" on="1"/>
        <pt x="567" y="0" on="1"/>
        <pt x="543" y="513" on="1"/>
        <pt x="304" y="0" on="1"/>
      </contour>
    </TTGlyph>
    <TTGlyph name="Wcircumflex" xMin="108" yMin="0" xMax="1077" yMax="985">
      <contour>
        <pt x="426" y="809" on="1"/>
        <pt x="590" y="985" on="1"/>
        <pt x="697" y="985" on="1"/>
        <pt x="787" y="809" on="1"/>
        <pt x="685" y="809" on="1"/>
        <pt x="635" y="914" on="1"/>
        <pt x="540" y="809" on="1"/>
      </contour>
      <contour>
        <pt x="140" y="0" on="1"/>
        <pt x="108" y="740" on="1"/>
        <pt x="238" y="740" on="1"/>
        <pt x="259" y="182" on="1"/>
        <pt x="519" y="740" on="1"/>
        <pt x="655" y="740" on="1"/>
        <pt x="681" y="183" on="1"/>
        <pt x="934" y="740" on="1"/>
        <pt x="1077" y="740" on="1"/>
        <pt x="733" y="0" on="1"/>
        <pt x="567" y="0" on="1"/>
        <pt x="543" y="513" on="1"/>
        <pt x="304" y="0" on="1"/>
      </contour>
    </TTGlyph>
    <TTGlyph name="Wdieresis" xMin="108" yMin="0" xMax="1077" yMax="960">
      <contour>
        <pt x="729" y="807" on="1"/>
        <pt x="694" y="807" on="0"/>
        <pt x="651" y="853" on="0"/>
        <pt x="651" y="883" on="1"/>
        <pt x="651" y="915" on="0"/>
        <pt x="694" y="960" on="0"/>
        <pt x="729" y="960" on="1"/>
        <pt x="762" y="960" on="0"/>
        <pt x="807" y="915" on="0"/>
        <pt x="807" y="883" on="1"/>
        <pt x="807" y="852" on="0"/>
        <pt x="762" y="807" on="0"/>
      </contour>
      <contour>
        <pt x="515" y="807" on="1"/>
        <pt x="480" y="807" on="0"/>
        <pt x="437" y="853" on="0"/>
        <pt x="437" y="883" on="1"/>
        <pt x="437" y="915" on="0"/>
        <pt x="480" y="960" on="0"/>
        <pt x="515" y="960" on="1"/>
        <pt x="548" y="960" on="0"/>
        <pt x="593" y="915" on="0"/>
        <pt x="593" y="883" on="1"/>
        <pt x="593" y="852" on="0"/>
        <pt x="548" y="807" on="0"/>
      </contour>
      <contour>
        <pt x="140" y="0" on="1"/>
        <pt x="108" y="740" on="1"/>
        <pt x="238" y="740" on="1"/>
        <pt x="259" y="182" on="1"/>
        <pt x="519" y="740" on="1"/>
        <pt x="655" y="740" on="1"/>
        <pt x="681" y="183" on="1"/>
        <pt x="934" y="740" on="1"/>
        <pt x="1077" y="740" on="1"/>
        <pt x="733" y="0" on="1"/>
        <pt x="567" y="0" on="1"/>
        <pt x="543" y="513" on="1"/>
        <pt x="304" y="0" on="1"/>
      </contour>
    </TTGlyph>
    <TTGlyph name="Wgrave" xMin="108" yMin="0" xMax="1077" yMax="996">
      <contour>
        <pt x="549" y="816" on="1"/>
        <pt x="458" y="996" on="1"/>
        <pt x="580" y="996" on="1"/>
        <pt x="646" y="817" on="1"/>
      </contour>
      <contour>
        <pt x="140" y="0" on="1"/>
        <pt x="108" y="740" on="1"/>
        <pt x="238" y="740" on="1"/>
        <pt x="259" y="182" on="1"/>
        <pt x="519" y="740" on="1"/>
        <pt x="655" y="740" on="1"/>
        <pt x="681" y="183" on="1"/>
        <pt x="934" y="740" on="1"/>
        <pt x="1077" y="740" on="1"/>
        <pt x="733" y="0" on="1"/>
        <pt x="567" y="0" on="1"/>
        <pt x="543" y="513" on="1"/>
        <pt x="304" y="0" on="1"/>
      </contour>
    </TTGlyph>
    <TTGlyph name="X" xMin="-15" yMin="0" xMax="811" yMax="740">
      <contour>
        <pt x="-15" y="0" on="1"/>
        <pt x="310" y="388" on="1"/>
        <pt x="165" y="740" on="1"/>
        <pt x="315" y="740" on="1"/>
        <pt x="419" y="475" on="1"/>
        <pt x="636" y="740" on="1"/>
        <pt x="811" y="740" on="1"/>
        <pt x="487" y="356" on="1"/>
        <pt x="636" y="0" on="1"/>
        <pt x="486" y="0" on="1"/>
        <pt x="379" y="269" on="1"/>
        <pt x="160" y="0" on="1"/>
      </contour>
    </TTGlyph>
    <TTGlyph name="Y" xMin="102" yMin="0" xMax="757" yMax="740">
      <contour>
        <pt x="204" y="0" on="1"/>
        <pt x="259" y="258" on="1"/>
        <pt x="102" y="740" on="1"/>
        <pt x="241" y="740" on="1"/>
        <pt x="347" y="397" on="1"/>
        <pt x="597" y="740" on="1"/>
        <pt x="757" y="740" on="1"/>
        <pt x="394" y="256" on="1"/>
        <pt x="340" y="0" on="1"/>
      </contour>
    </TTGlyph>
    <TTGlyph name="Yacute" xMin="102" yMin="0" xMax="757" yMax="996">
      <contour>
        <pt x="500" y="816" on="1"/>
        <pt x="400" y="817" on="1"/>
        <pt x="487" y="996" on="1"/>
        <pt x="612" y="996" on="1"/>
      </contour>
      <contour>
        <pt x="204" y="0" on="1"/>
        <pt x="259" y="258" on="1"/>
        <pt x="102" y="740" on="1"/>
        <pt x="241" y="740" on="1"/>
        <pt x="347" y="397" on="1"/>
        <pt x="597" y="740" on="1"/>
        <pt x="757" y="740" on="1"/>
        <pt x="394" y="256" on="1"/>
        <pt x="340" y="0" on="1"/>
      </contour>
    </TTGlyph>
    <TTGlyph name="Ycircumflex" xMin="102" yMin="0" xMax="757" yMax="985">
      <contour>
        <pt x="261" y="809" on="1"/>
        <pt x="424" y="985" on="1"/>
        <pt x="532" y="985" on="1"/>
        <pt x="621" y="809" on="1"/>
        <pt x="520" y="809" on="1"/>
        <pt x="470" y="914" on="1"/>
        <pt x="375" y="809" on="1"/>
      </contour>
      <contour>
        <pt x="204" y="0" on="1"/>
        <pt x="259" y="258" on="1"/>
        <pt x="102" y="740" on="1"/>
        <pt x="241" y="740" on="1"/>
        <pt x="347" y="397" on="1"/>
        <pt x="597" y="740" on="1"/>
        <pt x="757" y="740" on="1"/>
        <pt x="394" y="256" on="1"/>
        <pt x="340" y="0" on="1"/>
      </contour>
    </TTGlyph>
    <TTGlyph name="Ydieresis" xMin="102" yMin="0" xMax="757" yMax="960">
      <contour>
        <pt x="563" y="807" on="1"/>
        <pt x="529" y="807" on="0"/>
        <pt x="485" y="853" on="0"/>
        <pt x="485" y="883" on="1"/>
        <pt x="485" y="915" on="0"/>
        <pt x="529" y="960" on="0"/>
        <pt x="563" y="960" on="1"/>
        <pt x="597" y="960" on="0"/>
        <pt x="641" y="915" on="0"/>
        <pt x="641" y="883" on="1"/>
        <pt x="641" y="852" on="0"/>
        <pt x="597" y="807" on="0"/>
      </contour>
      <contour>
        <pt x="349" y="807" on="1"/>
        <pt x="315" y="807" on="0"/>
        <pt x="271" y="853" on="0"/>
        <pt x="271" y="883" on="1"/>
        <pt x="271" y="915" on="0"/>
        <pt x="315" y="960" on="0"/>
        <pt x="349" y="960" on="1"/>
        <pt x="383" y="960" on="0"/>
        <pt x="427" y="915" on="0"/>
        <pt x="427" y="883" on="1"/>
        <pt x="427" y="852" on="0"/>
        <pt x="383" y="807" on="0"/>
      </contour>
      <contour>
        <pt x="204" y="0" on="1"/>
        <pt x="259" y="258" on="1"/>
        <pt x="102" y="740" on="1"/>
        <pt x="241" y="740" on="1"/>
        <pt x="347" y="397" on="1"/>
        <pt x="597" y="740" on="1"/>
        <pt x="757" y="740" on="1"/>
        <pt x="394" y="256" on="1"/>
        <pt x="340" y="0" on="1"/>
      </contour>
    </TTGlyph>
    <TTGlyph name="Ygrave" xMin="102" yMin="0" xMax="757" yMax="996">
      <contour>
        <pt x="384" y="816" on="1"/>
        <pt x="292" y="996" on="1"/>
        <pt x="414" y="996" on="1"/>
        <pt x="481" y="817" on="1"/>
      </contour>
      <contour>
        <pt x="204" y="0" on="1"/>
        <pt x="259" y="258" on="1"/>
        <pt x="102" y="740" on="1"/>
        <pt x="241" y="740" on="1"/>
        <pt x="347" y="397" on="1"/>
        <pt x="597" y="740" on="1"/>
        <pt x="757" y="740" on="1"/>
        <pt x="394" y="256" on="1"/>
        <pt x="340" y="0" on="1"/>
      </contour>
    </TTGlyph>
    <TTGlyph name="Z" xMin="-7" yMin="0" xMax="699" yMax="740">
      <contour>
        <pt x="-7" y="0" on="1"/>
        <pt x="14" y="98" on="1"/>
        <pt x="487" y="622" on="1"/>
        <pt x="125" y="622" on="1"/>
        <pt x="150" y="740" on="1"/>
        <pt x="699" y="740" on="1"/>
        <pt x="678" y="642" on="1"/>
        <pt x="203" y="118" on="1"/>
        <pt x="568" y="118" on="1"/>
        <pt x="542" y="0" on="1"/>
      </contour>
    </TTGlyph>
    <TTGlyph name="Zacute" xMin="-7" yMin="0" xMax="699" yMax="996">
      <contour>
        <pt x="490" y="816" on="1"/>
        <pt x="390" y="817" on="1"/>
        <pt x="477" y="996" on="1"/>
        <pt x="602" y="996" on="1"/>
      </contour>
      <contour>
        <pt x="-7" y="0" on="1"/>
        <pt x="14" y="98" on="1"/>
        <pt x="487" y="622" on="1"/>
        <pt x="125" y="622" on="1"/>
        <pt x="150" y="740" on="1"/>
        <pt x="699" y="740" on="1"/>
        <pt x="678" y="642" on="1"/>
        <pt x="203" y="118" on="1"/>
        <pt x="568" y="118" on="1"/>
        <pt x="542" y="0" on="1"/>
      </contour>
    </TTGlyph>
    <TTGlyph name="Zcaron" xMin="-7" yMin="0" xMax="699" yMax="985">
      <contour>
        <pt x="376" y="809" on="1"/>
        <pt x="286" y="985" on="1"/>
        <pt x="388" y="985" on="1"/>
        <pt x="438" y="880" on="1"/>
        <pt x="533" y="985" on="1"/>
        <pt x="647" y="985" on="1"/>
        <pt x="483" y="809" on="1"/>
      </contour>
      <contour>
        <pt x="-7" y="0" on="1"/>
        <pt x="14" y="98" on="1"/>
        <pt x="487" y="622" on="1"/>
        <pt x="125" y="622" on="1"/>
        <pt x="150" y="740" on="1"/>
        <pt x="699" y="740" on="1"/>
        <pt x="678" y="642" on="1"/>
        <pt x="203" y="118" on="1"/>
        <pt x="568" y="118" on="1"/>
        <pt x="542" y="0" on="1"/>
      </contour>
    </TTGlyph>
    <TTGlyph name="Zdotaccent" xMin="-7" yMin="0" xMax="699" yMax="976">
      <contour>
        <pt x="450" y="818" on="1"/>
        <pt x="414" y="818" on="0"/>
        <pt x="369" y="865" on="0"/>
        <pt x="369" y="897" on="1"/>
        <pt x="369" y="930" on="0"/>
        <pt x="414" y="976" on="0"/>
        <pt x="450" y="976" on="1"/>
        <pt x="484" y="976" on="0"/>
        <pt x="530" y="930" on="0"/>
        <pt x="530" y="897" on="1"/>
        <pt x="530" y="865" on="0"/>
        <pt x="484" y="818" on="0"/>
      </contour>
      <contour>
        <pt x="-7" y="0" on="1"/>
        <pt x="14" y="98" on="1"/>
        <pt x="487" y="622" on="1"/>
        <pt x="125" y="622" on="1"/>
        <pt x="150" y="740" on="1"/>
        <pt x="699" y="740" on="1"/>
        <pt x="678" y="642" on="1"/>
        <pt x="203" y="118" on="1"/>
        <pt x="568" y="118" on="1"/>
        <pt x="542" y="0" on="1"/>
      </contour>
    </TTGlyph>
    <TTGlyph name="a" xMin="44" yMin="-10" xMax="639" yMax="540">
      <contour>
        <pt x="320" y="540" on="1"/>
        <pt x="375" y="540" on="0"/>
        <pt x="442" y="504" on="0"/>
        <pt x="476" y="459" on="0"/>
        <pt x="481" y="446" on="1"/>
        <pt x="488" y="446" on="1"/>
        <pt x="506" y="530" on="1"/>
        <pt x="639" y="530" on="1"/>
        <pt x="527" y="0" on="1"/>
        <pt x="393" y="0" on="1"/>
        <pt x="408" y="68" on="1"/>
        <pt x="402" y="68" on="1"/>
        <pt x="402" y="68" on="0"/>
        <pt x="384" y="45" on="0"/>
        <pt x="347" y="14" on="0"/>
        <pt x="287" y="-10" on="0"/>
        <pt x="244" y="-10" on="1"/>
        <pt x="177" y="-10" on="0"/>
        <pt x="88" y="54" on="0"/>
        <pt x="44" y="159" on="0"/>
        <pt x="44" y="220" on="1"/>
        <pt x="44" y="276" on="0"/>
        <pt x="81" y="389" on="0"/>
        <pt x="152" y="483" on="0"/>
        <pt x="254" y="540" on="0"/>
      </contour>
      <contour>
        <pt x="341" y="431" on="1"/>
        <pt x="290" y="431" on="0"/>
        <pt x="216" y="369" on="0"/>
        <pt x="177" y="276" on="0"/>
        <pt x="177" y="229" on="1"/>
        <pt x="177" y="177" on="0"/>
        <pt x="230" y="99" on="0"/>
        <pt x="288" y="99" on="1"/>
        <pt x="340" y="99" on="0"/>
        <pt x="413" y="161" on="0"/>
        <pt x="452" y="254" on="0"/>
        <pt x="452" y="300" on="1"/>
        <pt x="452" y="353" on="0"/>
        <pt x="399" y="431" on="0"/>
      </contour>
    </TTGlyph>
    <TTGlyph name="a.ss01" xMin="23" yMin="-10" xMax="546" yMax="540">
      <contour>
        <pt x="340" y="62" on="1"/>
        <pt x="335" y="55" on="0"/>
        <pt x="300" y="20" on="0"/>
        <pt x="236" y="-10" on="0"/>
        <pt x="187" y="-10" on="1"/>
        <pt x="110" y="-10" on="0"/>
        <pt x="23" y="72" on="0"/>
        <pt x="23" y="136" on="1"/>
        <pt x="23" y="180" on="0"/>
        <pt x="68" y="256" on="0"/>
        <pt x="163" y="305" on="0"/>
        <pt x="237" y="308" on="1"/>
        <pt x="401" y="317" on="1"/>
        <pt x="405" y="335" on="1"/>
        <pt x="410" y="360" on="0"/>
        <pt x="399" y="408" on="0"/>
        <pt x="358" y="439" on="0"/>
        <pt x="318" y="439" on="1"/>
        <pt x="283" y="439" on="0"/>
        <pt x="240" y="417" on="0"/>
        <pt x="219" y="387" on="0"/>
        <pt x="211" y="365" on="0"/>
        <pt x="211" y="365" on="1"/>
        <pt x="86" y="365" on="1"/>
        <pt x="86" y="365" on="0"/>
        <pt x="96" y="401" on="0"/>
        <pt x="125" y="453" on="0"/>
        <pt x="179" y="505" on="0"/>
        <pt x="264" y="540" on="0"/>
        <pt x="326" y="540" on="1"/>
        <pt x="406" y="540" on="0"/>
        <pt x="507" y="477" on="0"/>
        <pt x="546" y="376" on="0"/>
        <pt x="533" y="319" on="1"/>
        <pt x="465" y="0" on="1"/>
        <pt x="334" y="0" on="1"/>
        <pt x="348" y="62" on="1"/>
      </contour>
      <contour>
        <pt x="155" y="148" on="1"/>
        <pt x="155" y="115" on="0"/>
        <pt x="204" y="84" on="0"/>
        <pt x="236" y="84" on="1"/>
        <pt x="287" y="84" on="0"/>
        <pt x="368" y="152" on="0"/>
        <pt x="379" y="209" on="1"/>
        <pt x="384" y="230" on="1"/>
        <pt x="254" y="222" on="1"/>
        <pt x="204" y="219" on="0"/>
        <pt x="155" y="179" on="0"/>
      </contour>
    </TTGlyph>
    <TTGlyph name="aacute" xMin="40" yMin="-10" xMax="635" yMax="786">
      <contour>
        <pt x="446" y="606" on="1"/>
        <pt x="346" y="607" on="1"/>
        <pt x="433" y="786" on="1"/>
        <pt x="558" y="786" on="1"/>
      </contour>
      <contour>
        <pt x="316" y="540" on="1"/>
        <pt x="371" y="540" on="0"/>
        <pt x="438" y="504" on="0"/>
        <pt x="472" y="459" on="0"/>
        <pt x="477" y="446" on="1"/>
        <pt x="484" y="446" on="1"/>
        <pt x="502" y="530" on="1"/>
        <pt x="635" y="530" on="1"/>
        <pt x="523" y="0" on="1"/>
        <pt x="389" y="0" on="1"/>
        <pt x="404" y="68" on="1"/>
        <pt x="398" y="68" on="1"/>
        <pt x="398" y="68" on="0"/>
        <pt x="380" y="45" on="0"/>
        <pt x="343" y="14" on="0"/>
        <pt x="283" y="-10" on="0"/>
        <pt x="240" y="-10" on="1"/>
        <pt x="173" y="-10" on="0"/>
        <pt x="84" y="54" on="0"/>
        <pt x="40" y="159" on="0"/>
        <pt x="40" y="220" on="1"/>
        <pt x="40" y="276" on="0"/>
        <pt x="77" y="389" on="0"/>
        <pt x="148" y="483" on="0"/>
        <pt x="250" y="540" on="0"/>
      </contour>
      <contour>
        <pt x="337" y="431" on="1"/>
        <pt x="286" y="431" on="0"/>
        <pt x="212" y="369" on="0"/>
        <pt x="173" y="276" on="0"/>
        <pt x="173" y="229" on="1"/>
        <pt x="173" y="177" on="0"/>
        <pt x="226" y="99" on="0"/>
        <pt x="284" y="99" on="1"/>
        <pt x="336" y="99" on="0"/>
        <pt x="409" y="161" on="0"/>
        <pt x="448" y="254" on="0"/>
        <pt x="448" y="300" on="1"/>
        <pt x="448" y="353" on="0"/>
        <pt x="395" y="431" on="0"/>
      </contour>
    </TTGlyph>
    <TTGlyph name="aacute.ss01" xMin="22" yMin="-10" xMax="544" yMax="786">
      <contour>
        <pt x="416" y="606" on="1"/>
        <pt x="316" y="607" on="1"/>
        <pt x="402" y="786" on="1"/>
        <pt x="527" y="786" on="1"/>
      </contour>
      <contour>
        <pt x="339" y="62" on="1"/>
        <pt x="334" y="55" on="0"/>
        <pt x="299" y="20" on="0"/>
        <pt x="235" y="-10" on="0"/>
        <pt x="186" y="-10" on="1"/>
        <pt x="109" y="-10" on="0"/>
        <pt x="22" y="72" on="0"/>
        <pt x="22" y="136" on="1"/>
        <pt x="22" y="180" on="0"/>
        <pt x="67" y="256" on="0"/>
        <pt x="162" y="305" on="0"/>
        <pt x="236" y="308" on="1"/>
        <pt x="400" y="317" on="1"/>
        <pt x="404" y="335" on="1"/>
        <pt x="409" y="360" on="0"/>
        <pt x="398" y="408" on="0"/>
        <pt x="357" y="439" on="0"/>
        <pt x="316" y="439" on="1"/>
        <pt x="281" y="439" on="0"/>
        <pt x="239" y="417" on="0"/>
        <pt x="217" y="387" on="0"/>
        <pt x="210" y="365" on="0"/>
        <pt x="210" y="365" on="1"/>
        <pt x="85" y="365" on="1"/>
        <pt x="85" y="365" on="0"/>
        <pt x="95" y="401" on="0"/>
        <pt x="124" y="453" on="0"/>
        <pt x="178" y="505" on="0"/>
        <pt x="263" y="540" on="0"/>
        <pt x="325" y="540" on="1"/>
        <pt x="405" y="540" on="0"/>
        <pt x="505" y="477" on="0"/>
        <pt x="544" y="376" on="0"/>
        <pt x="532" y="319" on="1"/>
        <pt x="464" y="0" on="1"/>
        <pt x="333" y="0" on="1"/>
        <pt x="346" y="62" on="1"/>
      </contour>
      <contour>
        <pt x="154" y="148" on="1"/>
        <pt x="154" y="115" on="0"/>
        <pt x="203" y="84" on="0"/>
        <pt x="235" y="84" on="1"/>
        <pt x="286" y="84" on="0"/>
        <pt x="366" y="152" on="0"/>
        <pt x="378" y="209" on="1"/>
        <pt x="382" y="230" on="1"/>
        <pt x="253" y="222" on="1"/>
        <pt x="203" y="219" on="0"/>
        <pt x="154" y="179" on="0"/>
      </contour>
    </TTGlyph>
    <TTGlyph name="abreve" xMin="40" yMin="-10" xMax="635" yMax="765">
      <contour>
        <pt x="400" y="600" on="1"/>
        <pt x="347" y="600" on="0"/>
        <pt x="285" y="633" on="0"/>
        <pt x="255" y="683" on="0"/>
        <pt x="247" y="732" on="0"/>
        <pt x="248" y="765" on="0"/>
        <pt x="248" y="765" on="1"/>
        <pt x="338" y="765" on="1"/>
        <pt x="338" y="765" on="0"/>
        <pt x="337" y="740" on="0"/>
        <pt x="345" y="706" on="0"/>
        <pt x="373" y="680" on="0"/>
        <pt x="404" y="680" on="1"/>
        <pt x="434" y="680" on="0"/>
        <pt x="474" y="706" on="0"/>
        <pt x="496" y="740" on="0"/>
        <pt x="505" y="765" on="0"/>
        <pt x="505" y="765" on="1"/>
        <pt x="595" y="765" on="1"/>
        <pt x="595" y="765" on="0"/>
        <pt x="588" y="732" on="0"/>
        <pt x="567" y="683" on="0"/>
        <pt x="524" y="633" on="0"/>
        <pt x="453" y="600" on="0"/>
      </contour>
      <contour>
        <pt x="316" y="540" on="1"/>
        <pt x="371" y="540" on="0"/>
        <pt x="438" y="504" on="0"/>
        <pt x="472" y="459" on="0"/>
        <pt x="477" y="446" on="1"/>
        <pt x="484" y="446" on="1"/>
        <pt x="502" y="530" on="1"/>
        <pt x="635" y="530" on="1"/>
        <pt x="523" y="0" on="1"/>
        <pt x="389" y="0" on="1"/>
        <pt x="404" y="68" on="1"/>
        <pt x="398" y="68" on="1"/>
        <pt x="398" y="68" on="0"/>
        <pt x="380" y="45" on="0"/>
        <pt x="343" y="14" on="0"/>
        <pt x="283" y="-10" on="0"/>
        <pt x="240" y="-10" on="1"/>
        <pt x="173" y="-10" on="0"/>
        <pt x="84" y="54" on="0"/>
        <pt x="40" y="159" on="0"/>
        <pt x="40" y="220" on="1"/>
        <pt x="40" y="276" on="0"/>
        <pt x="77" y="389" on="0"/>
        <pt x="148" y="483" on="0"/>
        <pt x="250" y="540" on="0"/>
      </contour>
      <contour>
        <pt x="337" y="431" on="1"/>
        <pt x="286" y="431" on="0"/>
        <pt x="212" y="369" on="0"/>
        <pt x="173" y="276" on="0"/>
        <pt x="173" y="229" on="1"/>
        <pt x="173" y="177" on="0"/>
        <pt x="226" y="99" on="0"/>
        <pt x="284" y="99" on="1"/>
        <pt x="336" y="99" on="0"/>
        <pt x="409" y="161" on="0"/>
        <pt x="448" y="254" on="0"/>
        <pt x="448" y="300" on="1"/>
        <pt x="448" y="353" on="0"/>
        <pt x="395" y="431" on="0"/>
      </contour>
    </TTGlyph>
    <TTGlyph name="abreve.ss01" xMin="22" yMin="-10" xMax="565" yMax="765">
      <contour>
        <pt x="370" y="600" on="1"/>
        <pt x="317" y="600" on="0"/>
        <pt x="255" y="633" on="0"/>
        <pt x="225" y="683" on="0"/>
        <pt x="216" y="732" on="0"/>
        <pt x="218" y="765" on="0"/>
        <pt x="218" y="765" on="1"/>
        <pt x="308" y="765" on="1"/>
        <pt x="308" y="765" on="0"/>
        <pt x="306" y="740" on="0"/>
        <pt x="315" y="706" on="0"/>
        <pt x="343" y="680" on="0"/>
        <pt x="373" y="680" on="1"/>
        <pt x="404" y="680" on="0"/>
        <pt x="444" y="706" on="0"/>
        <pt x="466" y="740" on="0"/>
        <pt x="475" y="765" on="0"/>
        <pt x="475" y="765" on="1"/>
        <pt x="565" y="765" on="1"/>
        <pt x="565" y="765" on="0"/>
        <pt x="558" y="732" on="0"/>
        <pt x="536" y="683" on="0"/>
        <pt x="494" y="633" on="0"/>
        <pt x="423" y="600" on="0"/>
      </contour>
      <contour>
        <pt x="339" y="62" on="1"/>
        <pt x="334" y="55" on="0"/>
        <pt x="299" y="20" on="0"/>
        <pt x="235" y="-10" on="0"/>
        <pt x="186" y="-10" on="1"/>
        <pt x="109" y="-10" on="0"/>
        <pt x="22" y="72" on="0"/>
        <pt x="22" y="136" on="1"/>
        <pt x="22" y="180" on="0"/>
        <pt x="67" y="256" on="0"/>
        <pt x="162" y="305" on="0"/>
        <pt x="236" y="308" on="1"/>
        <pt x="400" y="317" on="1"/>
        <pt x="404" y="335" on="1"/>
        <pt x="409" y="360" on="0"/>
        <pt x="398" y="408" on="0"/>
        <pt x="357" y="439" on="0"/>
        <pt x="316" y="439" on="1"/>
        <pt x="281" y="439" on="0"/>
        <pt x="239" y="417" on="0"/>
        <pt x="217" y="387" on="0"/>
        <pt x="210" y="365" on="0"/>
        <pt x="210" y="365" on="1"/>
        <pt x="85" y="365" on="1"/>
        <pt x="85" y="365" on="0"/>
        <pt x="95" y="401" on="0"/>
        <pt x="124" y="453" on="0"/>
        <pt x="178" y="505" on="0"/>
        <pt x="263" y="540" on="0"/>
        <pt x="325" y="540" on="1"/>
        <pt x="405" y="540" on="0"/>
        <pt x="505" y="477" on="0"/>
        <pt x="544" y="376" on="0"/>
        <pt x="532" y="319" on="1"/>
        <pt x="464" y="0" on="1"/>
        <pt x="333" y="0" on="1"/>
        <pt x="346" y="62" on="1"/>
      </contour>
      <contour>
        <pt x="154" y="148" on="1"/>
        <pt x="154" y="115" on="0"/>
        <pt x="203" y="84" on="0"/>
        <pt x="235" y="84" on="1"/>
        <pt x="286" y="84" on="0"/>
        <pt x="366" y="152" on="0"/>
        <pt x="378" y="209" on="1"/>
        <pt x="382" y="230" on="1"/>
        <pt x="253" y="222" on="1"/>
        <pt x="203" y="219" on="0"/>
        <pt x="154" y="179" on="0"/>
      </contour>
    </TTGlyph>
    <TTGlyph name="acircumflex" xMin="40" yMin="-10" xMax="635" yMax="775">
      <contour>
        <pt x="206" y="599" on="1"/>
        <pt x="370" y="775" on="1"/>
        <pt x="477" y="775" on="1"/>
        <pt x="567" y="599" on="1"/>
        <pt x="465" y="599" on="1"/>
        <pt x="416" y="704" on="1"/>
        <pt x="321" y="599" on="1"/>
      </contour>
      <contour>
        <pt x="316" y="540" on="1"/>
        <pt x="371" y="540" on="0"/>
        <pt x="438" y="504" on="0"/>
        <pt x="472" y="459" on="0"/>
        <pt x="477" y="446" on="1"/>
        <pt x="484" y="446" on="1"/>
        <pt x="502" y="530" on="1"/>
        <pt x="635" y="530" on="1"/>
        <pt x="523" y="0" on="1"/>
        <pt x="389" y="0" on="1"/>
        <pt x="404" y="68" on="1"/>
        <pt x="398" y="68" on="1"/>
        <pt x="398" y="68" on="0"/>
        <pt x="380" y="45" on="0"/>
        <pt x="343" y="14" on="0"/>
        <pt x="283" y="-10" on="0"/>
        <pt x="240" y="-10" on="1"/>
        <pt x="173" y="-10" on="0"/>
        <pt x="84" y="54" on="0"/>
        <pt x="40" y="159" on="0"/>
        <pt x="40" y="220" on="1"/>
        <pt x="40" y="276" on="0"/>
        <pt x="77" y="389" on="0"/>
        <pt x="148" y="483" on="0"/>
        <pt x="250" y="540" on="0"/>
      </contour>
      <contour>
        <pt x="337" y="431" on="1"/>
        <pt x="286" y="431" on="0"/>
        <pt x="212" y="369" on="0"/>
        <pt x="173" y="276" on="0"/>
        <pt x="173" y="229" on="1"/>
        <pt x="173" y="177" on="0"/>
        <pt x="226" y="99" on="0"/>
        <pt x="284" y="99" on="1"/>
        <pt x="336" y="99" on="0"/>
        <pt x="409" y="161" on="0"/>
        <pt x="448" y="254" on="0"/>
        <pt x="448" y="300" on="1"/>
        <pt x="448" y="353" on="0"/>
        <pt x="395" y="431" on="0"/>
      </contour>
    </TTGlyph>
    <TTGlyph name="acircumflex.ss01" xMin="22" yMin="-10" xMax="544" yMax="775">
      <contour>
        <pt x="176" y="599" on="1"/>
        <pt x="340" y="775" on="1"/>
        <pt x="447" y="775" on="1"/>
        <pt x="537" y="599" on="1"/>
        <pt x="435" y="599" on="1"/>
        <pt x="385" y="704" on="1"/>
        <pt x="291" y="599" on="1"/>
      </contour>
      <contour>
        <pt x="339" y="62" on="1"/>
        <pt x="334" y="55" on="0"/>
        <pt x="299" y="20" on="0"/>
        <pt x="235" y="-10" on="0"/>
        <pt x="186" y="-10" on="1"/>
        <pt x="109" y="-10" on="0"/>
        <pt x="22" y="72" on="0"/>
        <pt x="22" y="136" on="1"/>
        <pt x="22" y="180" on="0"/>
        <pt x="67" y="256" on="0"/>
        <pt x="162" y="305" on="0"/>
        <pt x="236" y="308" on="1"/>
        <pt x="400" y="317" on="1"/>
        <pt x="404" y="335" on="1"/>
        <pt x="409" y="360" on="0"/>
        <pt x="398" y="408" on="0"/>
        <pt x="357" y="439" on="0"/>
        <pt x="316" y="439" on="1"/>
        <pt x="281" y="439" on="0"/>
        <pt x="239" y="417" on="0"/>
        <pt x="217" y="387" on="0"/>
        <pt x="210" y="365" on="0"/>
        <pt x="210" y="365" on="1"/>
        <pt x="85" y="365" on="1"/>
        <pt x="85" y="365" on="0"/>
        <pt x="95" y="401" on="0"/>
        <pt x="124" y="453" on="0"/>
        <pt x="178" y="505" on="0"/>
        <pt x="263" y="540" on="0"/>
        <pt x="325" y="540" on="1"/>
        <pt x="405" y="540" on="0"/>
        <pt x="505" y="477" on="0"/>
        <pt x="544" y="376" on="0"/>
        <pt x="532" y="319" on="1"/>
        <pt x="464" y="0" on="1"/>
        <pt x="333" y="0" on="1"/>
        <pt x="346" y="62" on="1"/>
      </contour>
      <contour>
        <pt x="154" y="148" on="1"/>
        <pt x="154" y="115" on="0"/>
        <pt x="203" y="84" on="0"/>
        <pt x="235" y="84" on="1"/>
        <pt x="286" y="84" on="0"/>
        <pt x="366" y="152" on="0"/>
        <pt x="378" y="209" on="1"/>
        <pt x="382" y="230" on="1"/>
        <pt x="253" y="222" on="1"/>
        <pt x="203" y="219" on="0"/>
        <pt x="154" y="179" on="0"/>
      </contour>
    </TTGlyph>
    <TTGlyph name="acute" xMin="121" yMin="606" xMax="333" yMax="786">
      <contour>
        <pt x="221" y="606" on="1"/>
        <pt x="121" y="607" on="1"/>
        <pt x="208" y="786" on="1"/>
        <pt x="333" y="786" on="1"/>
      </contour>
    </TTGlyph>
    <TTGlyph name="acutecomb" xMin="123" yMin="606" xMax="335" yMax="786">
      <contour>
        <pt x="223" y="606" on="1"/>
        <pt x="123" y="607" on="1"/>
        <pt x="210" y="786" on="1"/>
        <pt x="335" y="786" on="1"/>
      </contour>
    </TTGlyph>
    <TTGlyph name="adieresis" xMin="40" yMin="-10" xMax="635" yMax="750">
      <contour>
        <pt x="509" y="598" on="1"/>
        <pt x="475" y="598" on="0"/>
        <pt x="431" y="642" on="0"/>
        <pt x="431" y="673" on="1"/>
        <pt x="431" y="705" on="0"/>
        <pt x="475" y="750" on="0"/>
        <pt x="509" y="750" on="1"/>
        <pt x="543" y="750" on="0"/>
        <pt x="587" y="705" on="0"/>
        <pt x="587" y="673" on="1"/>
        <pt x="587" y="642" on="0"/>
        <pt x="543" y="598" on="0"/>
      </contour>
      <contour>
        <pt x="295" y="598" on="1"/>
        <pt x="261" y="598" on="0"/>
        <pt x="217" y="642" on="0"/>
        <pt x="217" y="673" on="1"/>
        <pt x="217" y="705" on="0"/>
        <pt x="261" y="750" on="0"/>
        <pt x="295" y="750" on="1"/>
        <pt x="329" y="750" on="0"/>
        <pt x="373" y="705" on="0"/>
        <pt x="373" y="673" on="1"/>
        <pt x="373" y="642" on="0"/>
        <pt x="329" y="598" on="0"/>
      </contour>
      <contour>
        <pt x="316" y="540" on="1"/>
        <pt x="371" y="540" on="0"/>
        <pt x="438" y="504" on="0"/>
        <pt x="472" y="459" on="0"/>
        <pt x="477" y="446" on="1"/>
        <pt x="484" y="446" on="1"/>
        <pt x="502" y="530" on="1"/>
        <pt x="635" y="530" on="1"/>
        <pt x="523" y="0" on="1"/>
        <pt x="389" y="0" on="1"/>
        <pt x="404" y="68" on="1"/>
        <pt x="398" y="68" on="1"/>
        <pt x="398" y="68" on="0"/>
        <pt x="380" y="45" on="0"/>
        <pt x="343" y="14" on="0"/>
        <pt x="283" y="-10" on="0"/>
        <pt x="240" y="-10" on="1"/>
        <pt x="173" y="-10" on="0"/>
        <pt x="84" y="54" on="0"/>
        <pt x="40" y="159" on="0"/>
        <pt x="40" y="220" on="1"/>
        <pt x="40" y="276" on="0"/>
        <pt x="77" y="389" on="0"/>
        <pt x="148" y="483" on="0"/>
        <pt x="250" y="540" on="0"/>
      </contour>
      <contour>
        <pt x="337" y="431" on="1"/>
        <pt x="286" y="431" on="0"/>
        <pt x="212" y="369" on="0"/>
        <pt x="173" y="276" on="0"/>
        <pt x="173" y="229" on="1"/>
        <pt x="173" y="177" on="0"/>
        <pt x="226" y="99" on="0"/>
        <pt x="284" y="99" on="1"/>
        <pt x="336" y="99" on="0"/>
        <pt x="409" y="161" on="0"/>
        <pt x="448" y="254" on="0"/>
        <pt x="448" y="300" on="1"/>
        <pt x="448" y="353" on="0"/>
        <pt x="395" y="431" on="0"/>
      </contour>
    </TTGlyph>
    <TTGlyph name="adieresis.ss01" xMin="22" yMin="-10" xMax="557" yMax="750">
      <contour>
        <pt x="479" y="597" on="1"/>
        <pt x="445" y="597" on="0"/>
        <pt x="401" y="643" on="0"/>
        <pt x="401" y="673" on="1"/>
        <pt x="401" y="705" on="0"/>
        <pt x="445" y="750" on="0"/>
        <pt x="479" y="750" on="1"/>
        <pt x="512" y="750" on="0"/>
        <pt x="557" y="705" on="0"/>
        <pt x="557" y="673" on="1"/>
        <pt x="557" y="642" on="0"/>
        <pt x="512" y="597" on="0"/>
      </contour>
      <contour>
        <pt x="265" y="597" on="1"/>
        <pt x="231" y="597" on="0"/>
        <pt x="187" y="643" on="0"/>
        <pt x="187" y="673" on="1"/>
        <pt x="187" y="705" on="0"/>
        <pt x="231" y="750" on="0"/>
        <pt x="265" y="750" on="1"/>
        <pt x="298" y="750" on="0"/>
        <pt x="343" y="705" on="0"/>
        <pt x="343" y="673" on="1"/>
        <pt x="343" y="642" on="0"/>
        <pt x="298" y="597" on="0"/>
      </contour>
      <contour>
        <pt x="339" y="62" on="1"/>
        <pt x="334" y="55" on="0"/>
        <pt x="299" y="20" on="0"/>
        <pt x="235" y="-10" on="0"/>
        <pt x="186" y="-10" on="1"/>
        <pt x="109" y="-10" on="0"/>
        <pt x="22" y="72" on="0"/>
        <pt x="22" y="136" on="1"/>
        <pt x="22" y="180" on="0"/>
        <pt x="67" y="256" on="0"/>
        <pt x="162" y="305" on="0"/>
        <pt x="236" y="308" on="1"/>
        <pt x="400" y="317" on="1"/>
        <pt x="404" y="335" on="1"/>
        <pt x="409" y="360" on="0"/>
        <pt x="398" y="408" on="0"/>
        <pt x="357" y="439" on="0"/>
        <pt x="316" y="439" on="1"/>
        <pt x="281" y="439" on="0"/>
        <pt x="239" y="417" on="0"/>
        <pt x="217" y="387" on="0"/>
        <pt x="210" y="365" on="0"/>
        <pt x="210" y="365" on="1"/>
        <pt x="85" y="365" on="1"/>
        <pt x="85" y="365" on="0"/>
        <pt x="95" y="401" on="0"/>
        <pt x="124" y="453" on="0"/>
        <pt x="178" y="505" on="0"/>
        <pt x="263" y="540" on="0"/>
        <pt x="325" y="540" on="1"/>
        <pt x="405" y="540" on="0"/>
        <pt x="505" y="477" on="0"/>
        <pt x="544" y="376" on="0"/>
        <pt x="532" y="319" on="1"/>
        <pt x="464" y="0" on="1"/>
        <pt x="333" y="0" on="1"/>
        <pt x="346" y="62" on="1"/>
      </contour>
      <contour>
        <pt x="154" y="148" on="1"/>
        <pt x="154" y="115" on="0"/>
        <pt x="203" y="84" on="0"/>
        <pt x="235" y="84" on="1"/>
        <pt x="286" y="84" on="0"/>
        <pt x="366" y="152" on="0"/>
        <pt x="378" y="209" on="1"/>
        <pt x="382" y="230" on="1"/>
        <pt x="253" y="222" on="1"/>
        <pt x="203" y="219" on="0"/>
        <pt x="154" y="179" on="0"/>
      </contour>
    </TTGlyph>
    <TTGlyph name="ae" xMin="23" yMin="-10" xMax="908" yMax="540">
      <contour>
        <pt x="202" y="-10" on="1"/>
        <pt x="118" y="-10" on="0"/>
        <pt x="23" y="71" on="0"/>
        <pt x="23" y="137" on="1"/>
        <pt x="23" y="181" on="0"/>
        <pt x="70" y="256" on="0"/>
        <pt x="164" y="305" on="0"/>
        <pt x="237" y="308" on="1"/>
        <pt x="397" y="317" on="1"/>
        <pt x="402" y="337" on="1"/>
        <pt x="409" y="378" on="0"/>
        <pt x="370" y="439" on="0"/>
        <pt x="314" y="439" on="1"/>
        <pt x="279" y="439" on="0"/>
        <pt x="237" y="417" on="0"/>
        <pt x="215" y="387" on="0"/>
        <pt x="208" y="365" on="0"/>
        <pt x="208" y="365" on="1"/>
        <pt x="82" y="365" on="1"/>
        <pt x="82" y="365" on="0"/>
        <pt x="93" y="401" on="0"/>
        <pt x="122" y="453" on="0"/>
        <pt x="175" y="505" on="0"/>
        <pt x="258" y="540" on="0"/>
        <pt x="317" y="540" on="1"/>
        <pt x="369" y="540" on="0"/>
        <pt x="438" y="511" on="0"/>
        <pt x="477" y="471" on="0"/>
        <pt x="486" y="452" on="1"/>
        <pt x="492" y="452" on="1"/>
        <pt x="507" y="470" on="0"/>
        <pt x="559" y="511" on="0"/>
        <pt x="636" y="540" on="0"/>
        <pt x="687" y="540" on="1"/>
        <pt x="755" y="540" on="0"/>
        <pt x="846" y="486" on="0"/>
        <pt x="896" y="399" on="0"/>
        <pt x="908" y="296" on="0"/>
        <pt x="897" y="247" on="1"/>
        <pt x="893" y="228" on="1"/>
        <pt x="515" y="228" on="1"/>
        <pt x="516" y="170" on="0"/>
        <pt x="573" y="93" on="0"/>
        <pt x="633" y="93" on="1"/>
        <pt x="666" y="93" on="0"/>
        <pt x="711" y="115" on="0"/>
        <pt x="738" y="145" on="0"/>
        <pt x="749" y="167" on="0"/>
        <pt x="749" y="167" on="1"/>
        <pt x="874" y="167" on="1"/>
        <pt x="874" y="167" on="0"/>
        <pt x="860" y="132" on="0"/>
        <pt x="827" y="79" on="0"/>
        <pt x="769" y="26" on="0"/>
        <pt x="683" y="-10" on="0"/>
        <pt x="623" y="-10" on="1"/>
        <pt x="560" y="-10" on="0"/>
        <pt x="476" y="29" on="0"/>
        <pt x="427" y="82" on="0"/>
        <pt x="418" y="104" on="1"/>
        <pt x="412" y="104" on="1"/>
        <pt x="412" y="104" on="0"/>
        <pt x="390" y="70" on="0"/>
        <pt x="341" y="24" on="0"/>
        <pt x="260" y="-10" on="0"/>
      </contour>
      <contour>
        <pt x="530" y="315" on="1"/>
        <pt x="781" y="315" on="1"/>
        <pt x="786" y="346" on="0"/>
        <pt x="766" y="402" on="0"/>
        <pt x="717" y="437" on="0"/>
        <pt x="678" y="437" on="1"/>
        <pt x="622" y="437" on="0"/>
        <pt x="545" y="365" on="0"/>
      </contour>
      <contour>
        <pt x="235" y="84" on="1"/>
        <pt x="285" y="84" on="0"/>
        <pt x="364" y="153" on="0"/>
        <pt x="376" y="209" on="1"/>
        <pt x="380" y="230" on="1"/>
        <pt x="254" y="222" on="1"/>
        <pt x="205" y="219" on="0"/>
        <pt x="155" y="180" on="0"/>
        <pt x="155" y="148" on="1"/>
        <pt x="155" y="114" on="0"/>
        <pt x="205" y="84" on="0"/>
      </contour>
    </TTGlyph>
    <TTGlyph name="agrave" xMin="40" yMin="-10" xMax="635" yMax="786">
      <contour>
        <pt x="330" y="606" on="1"/>
        <pt x="238" y="786" on="1"/>
        <pt x="360" y="786" on="1"/>
        <pt x="426" y="607" on="1"/>
      </contour>
      <contour>
        <pt x="316" y="540" on="1"/>
        <pt x="371" y="540" on="0"/>
        <pt x="438" y="504" on="0"/>
        <pt x="472" y="459" on="0"/>
        <pt x="477" y="446" on="1"/>
        <pt x="484" y="446" on="1"/>
        <pt x="502" y="530" on="1"/>
        <pt x="635" y="530" on="1"/>
        <pt x="523" y="0" on="1"/>
        <pt x="389" y="0" on="1"/>
        <pt x="404" y="68" on="1"/>
        <pt x="398" y="68" on="1"/>
        <pt x="398" y="68" on="0"/>
        <pt x="380" y="45" on="0"/>
        <pt x="343" y="14" on="0"/>
        <pt x="283" y="-10" on="0"/>
        <pt x="240" y="-10" on="1"/>
        <pt x="173" y="-10" on="0"/>
        <pt x="84" y="54" on="0"/>
        <pt x="40" y="159" on="0"/>
        <pt x="40" y="220" on="1"/>
        <pt x="40" y="276" on="0"/>
        <pt x="77" y="389" on="0"/>
        <pt x="148" y="483" on="0"/>
        <pt x="250" y="540" on="0"/>
      </contour>
      <contour>
        <pt x="337" y="431" on="1"/>
        <pt x="286" y="431" on="0"/>
        <pt x="212" y="369" on="0"/>
        <pt x="173" y="276" on="0"/>
        <pt x="173" y="229" on="1"/>
        <pt x="173" y="177" on="0"/>
        <pt x="226" y="99" on="0"/>
        <pt x="284" y="99" on="1"/>
        <pt x="336" y="99" on="0"/>
        <pt x="409" y="161" on="0"/>
        <pt x="448" y="254" on="0"/>
        <pt x="448" y="300" on="1"/>
        <pt x="448" y="353" on="0"/>
        <pt x="395" y="431" on="0"/>
      </contour>
    </TTGlyph>
    <TTGlyph name="agrave.ss01" xMin="22" yMin="-10" xMax="544" yMax="786">
      <contour>
        <pt x="299" y="606" on="1"/>
        <pt x="208" y="786" on="1"/>
        <pt x="330" y="786" on="1"/>
        <pt x="396" y="607" on="1"/>
      </contour>
      <contour>
        <pt x="339" y="62" on="1"/>
        <pt x="334" y="55" on="0"/>
        <pt x="299" y="20" on="0"/>
        <pt x="235" y="-10" on="0"/>
        <pt x="186" y="-10" on="1"/>
        <pt x="109" y="-10" on="0"/>
        <pt x="22" y="72" on="0"/>
        <pt x="22" y="136" on="1"/>
        <pt x="22" y="180" on="0"/>
        <pt x="67" y="256" on="0"/>
        <pt x="162" y="305" on="0"/>
        <pt x="236" y="308" on="1"/>
        <pt x="400" y="317" on="1"/>
        <pt x="404" y="335" on="1"/>
        <pt x="409" y="360" on="0"/>
        <pt x="398" y="408" on="0"/>
        <pt x="357" y="439" on="0"/>
        <pt x="316" y="439" on="1"/>
        <pt x="281" y="439" on="0"/>
        <pt x="239" y="417" on="0"/>
        <pt x="217" y="387" on="0"/>
        <pt x="210" y="365" on="0"/>
        <pt x="210" y="365" on="1"/>
        <pt x="85" y="365" on="1"/>
        <pt x="85" y="365" on="0"/>
        <pt x="95" y="401" on="0"/>
        <pt x="124" y="453" on="0"/>
        <pt x="178" y="505" on="0"/>
        <pt x="263" y="540" on="0"/>
        <pt x="325" y="540" on="1"/>
        <pt x="405" y="540" on="0"/>
        <pt x="505" y="477" on="0"/>
        <pt x="544" y="376" on="0"/>
        <pt x="532" y="319" on="1"/>
        <pt x="464" y="0" on="1"/>
        <pt x="333" y="0" on="1"/>
        <pt x="346" y="62" on="1"/>
      </contour>
      <contour>
        <pt x="154" y="148" on="1"/>
        <pt x="154" y="115" on="0"/>
        <pt x="203" y="84" on="0"/>
        <pt x="235" y="84" on="1"/>
        <pt x="286" y="84" on="0"/>
        <pt x="366" y="152" on="0"/>
        <pt x="378" y="209" on="1"/>
        <pt x="382" y="230" on="1"/>
        <pt x="253" y="222" on="1"/>
        <pt x="203" y="219" on="0"/>
        <pt x="154" y="179" on="0"/>
      </contour>
    </TTGlyph>
    <TTGlyph name="amacron" xMin="40" yMin="-10" xMax="635" yMax="730">
      <contour>
        <pt x="237" y="646" on="1"/>
        <pt x="255" y="730" on="1"/>
        <pt x="574" y="730" on="1"/>
        <pt x="555" y="646" on="1"/>
      </contour>
      <contour>
        <pt x="316" y="540" on="1"/>
        <pt x="371" y="540" on="0"/>
        <pt x="438" y="504" on="0"/>
        <pt x="472" y="459" on="0"/>
        <pt x="477" y="446" on="1"/>
        <pt x="484" y="446" on="1"/>
        <pt x="502" y="530" on="1"/>
        <pt x="635" y="530" on="1"/>
        <pt x="523" y="0" on="1"/>
        <pt x="389" y="0" on="1"/>
        <pt x="404" y="68" on="1"/>
        <pt x="398" y="68" on="1"/>
        <pt x="398" y="68" on="0"/>
        <pt x="380" y="45" on="0"/>
        <pt x="343" y="14" on="0"/>
        <pt x="283" y="-10" on="0"/>
        <pt x="240" y="-10" on="1"/>
        <pt x="173" y="-10" on="0"/>
        <pt x="84" y="54" on="0"/>
        <pt x="40" y="159" on="0"/>
        <pt x="40" y="220" on="1"/>
        <pt x="40" y="276" on="0"/>
        <pt x="77" y="389" on="0"/>
        <pt x="148" y="483" on="0"/>
        <pt x="250" y="540" on="0"/>
      </contour>
      <contour>
        <pt x="337" y="431" on="1"/>
        <pt x="286" y="431" on="0"/>
        <pt x="212" y="369" on="0"/>
        <pt x="173" y="276" on="0"/>
        <pt x="173" y="229" on="1"/>
        <pt x="173" y="177" on="0"/>
        <pt x="226" y="99" on="0"/>
        <pt x="284" y="99" on="1"/>
        <pt x="336" y="99" on="0"/>
        <pt x="409" y="161" on="0"/>
        <pt x="448" y="254" on="0"/>
        <pt x="448" y="300" on="1"/>
        <pt x="448" y="353" on="0"/>
        <pt x="395" y="431" on="0"/>
      </contour>
    </TTGlyph>
    <TTGlyph name="amacron.ss01" xMin="22" yMin="-10" xMax="544" yMax="714">
      <contour>
        <pt x="203" y="630" on="1"/>
        <pt x="221" y="714" on="1"/>
        <pt x="539" y="714" on="1"/>
        <pt x="521" y="630" on="1"/>
      </contour>
      <contour>
        <pt x="339" y="62" on="1"/>
        <pt x="334" y="55" on="0"/>
        <pt x="299" y="20" on="0"/>
        <pt x="235" y="-10" on="0"/>
        <pt x="186" y="-10" on="1"/>
        <pt x="109" y="-10" on="0"/>
        <pt x="22" y="72" on="0"/>
        <pt x="22" y="136" on="1"/>
        <pt x="22" y="180" on="0"/>
        <pt x="67" y="256" on="0"/>
        <pt x="162" y="305" on="0"/>
        <pt x="236" y="308" on="1"/>
        <pt x="400" y="317" on="1"/>
        <pt x="404" y="335" on="1"/>
        <pt x="409" y="360" on="0"/>
        <pt x="398" y="408" on="0"/>
        <pt x="357" y="439" on="0"/>
        <pt x="316" y="439" on="1"/>
        <pt x="281" y="439" on="0"/>
        <pt x="239" y="417" on="0"/>
        <pt x="217" y="387" on="0"/>
        <pt x="210" y="365" on="0"/>
        <pt x="210" y="365" on="1"/>
        <pt x="85" y="365" on="1"/>
        <pt x="85" y="365" on="0"/>
        <pt x="95" y="401" on="0"/>
        <pt x="124" y="453" on="0"/>
        <pt x="178" y="505" on="0"/>
        <pt x="263" y="540" on="0"/>
        <pt x="325" y="540" on="1"/>
        <pt x="405" y="540" on="0"/>
        <pt x="505" y="477" on="0"/>
        <pt x="544" y="376" on="0"/>
        <pt x="532" y="319" on="1"/>
        <pt x="464" y="0" on="1"/>
        <pt x="333" y="0" on="1"/>
        <pt x="346" y="62" on="1"/>
      </contour>
      <contour>
        <pt x="154" y="148" on="1"/>
        <pt x="154" y="115" on="0"/>
        <pt x="203" y="84" on="0"/>
        <pt x="235" y="84" on="1"/>
        <pt x="286" y="84" on="0"/>
        <pt x="366" y="152" on="0"/>
        <pt x="378" y="209" on="1"/>
        <pt x="382" y="230" on="1"/>
        <pt x="253" y="222" on="1"/>
        <pt x="203" y="219" on="0"/>
        <pt x="154" y="179" on="0"/>
      </contour>
    </TTGlyph>
    <TTGlyph name="ampersand" xMin="9" yMin="-10" xMax="651" yMax="750">
      <contour>
        <pt x="252" y="-10" on="1"/>
        <pt x="185" y="-10" on="0"/>
        <pt x="75" y="38" on="0"/>
        <pt x="9" y="129" on="0"/>
        <pt x="9" y="192" on="1"/>
        <pt x="9" y="249" on="0"/>
        <pt x="61" y="334" on="0"/>
        <pt x="147" y="396" on="0"/>
        <pt x="196" y="419" on="1"/>
        <pt x="174" y="455" on="0"/>
        <pt x="148" y="526" on="0"/>
        <pt x="148" y="565" on="1"/>
        <pt x="148" y="623" on="0"/>
        <pt x="205" y="706" on="0"/>
        <pt x="296" y="750" on="0"/>
        <pt x="348" y="750" on="1"/>
        <pt x="396" y="750" on="0"/>
        <pt x="484" y="712" on="0"/>
        <pt x="539" y="640" on="0"/>
        <pt x="539" y="587" on="1"/>
        <pt x="539" y="534" on="0"/>
        <pt x="484" y="459" on="0"/>
        <pt x="401" y="408" on="0"/>
        <pt x="360" y="390" on="1"/>
        <pt x="473" y="238" on="1"/>
        <pt x="493" y="275" on="0"/>
        <pt x="523" y="367" on="0"/>
        <pt x="532" y="423" on="1"/>
        <pt x="642" y="423" on="1"/>
        <pt x="629" y="336" on="0"/>
        <pt x="577" y="198" on="0"/>
        <pt x="541" y="147" on="1"/>
        <pt x="651" y="0" on="1"/>
        <pt x="496" y="0" on="1"/>
        <pt x="455" y="57" on="1"/>
        <pt x="408" y="23" on="0"/>
        <pt x="305" y="-10" on="0"/>
      </contour>
      <contour>
        <pt x="262" y="572" on="1"/>
        <pt x="262" y="545" on="0"/>
        <pt x="287" y="492" on="0"/>
        <pt x="306" y="464" on="1"/>
        <pt x="329" y="473" on="0"/>
        <pt x="386" y="503" on="0"/>
        <pt x="427" y="550" on="0"/>
        <pt x="427" y="584" on="1"/>
        <pt x="427" y="621" on="0"/>
        <pt x="378" y="657" on="0"/>
        <pt x="349" y="657" on="1"/>
        <pt x="317" y="657" on="0"/>
        <pt x="262" y="615" on="0"/>
      </contour>
      <contour>
        <pt x="134" y="210" on="1"/>
        <pt x="134" y="157" on="0"/>
        <pt x="211" y="95" on="0"/>
        <pt x="269" y="95" on="1"/>
        <pt x="337" y="95" on="0"/>
        <pt x="395" y="141" on="1"/>
        <pt x="285" y="293" on="1"/>
        <pt x="275" y="306" on="0"/>
        <pt x="257" y="331" on="0"/>
        <pt x="248" y="343" on="1"/>
        <pt x="199" y="321" on="0"/>
        <pt x="134" y="258" on="0"/>
      </contour>
    </TTGlyph>
    <TTGlyph name="aogonek" xMin="40" yMin="-178" xMax="635" yMax="540">
      <contour>
        <pt x="473" y="-178" on="1"/>
        <pt x="415" y="-178" on="0"/>
        <pt x="357" y="-131" on="0"/>
        <pt x="357" y="-94" on="1"/>
        <pt x="357" y="-59" on="0"/>
        <pt x="398" y="-13" on="0"/>
        <pt x="422" y="0" on="1"/>
        <pt x="389" y="0" on="1"/>
        <pt x="404" y="68" on="1"/>
        <pt x="398" y="68" on="1"/>
        <pt x="398" y="68" on="0"/>
        <pt x="380" y="45" on="0"/>
        <pt x="343" y="14" on="0"/>
        <pt x="283" y="-10" on="0"/>
        <pt x="240" y="-10" on="1"/>
        <pt x="173" y="-10" on="0"/>
        <pt x="84" y="54" on="0"/>
        <pt x="40" y="159" on="0"/>
        <pt x="40" y="220" on="1"/>
        <pt x="40" y="276" on="0"/>
        <pt x="77" y="389" on="0"/>
        <pt x="148" y="483" on="0"/>
        <pt x="250" y="540" on="0"/>
        <pt x="316" y="540" on="1"/>
        <pt x="371" y="540" on="0"/>
        <pt x="438" y="504" on="0"/>
        <pt x="472" y="459" on="0"/>
        <pt x="477" y="446" on="1"/>
        <pt x="484" y="446" on="1"/>
        <pt x="502" y="530" on="1"/>
        <pt x="635" y="530" on="1"/>
        <pt x="523" y="0" on="1"/>
        <pt x="523" y="0" on="0"/>
        <pt x="503" y="-9" on="0"/>
        <pt x="476" y="-26" on="0"/>
        <pt x="456" y="-51" on="0"/>
        <pt x="456" y="-67" on="1"/>
        <pt x="456" y="-82" on="0"/>
        <pt x="479" y="-101" on="0"/>
        <pt x="505" y="-101" on="1"/>
        <pt x="517" y="-101" on="0"/>
        <pt x="540" y="-97" on="0"/>
        <pt x="540" y="-97" on="1"/>
        <pt x="524" y="-172" on="1"/>
        <pt x="524" y="-172" on="0"/>
        <pt x="496" y="-178" on="0"/>
      </contour>
      <contour>
        <pt x="337" y="431" on="1"/>
        <pt x="286" y="431" on="0"/>
        <pt x="212" y="369" on="0"/>
        <pt x="173" y="276" on="0"/>
        <pt x="173" y="229" on="1"/>
        <pt x="173" y="177" on="0"/>
        <pt x="226" y="99" on="0"/>
        <pt x="284" y="99" on="1"/>
        <pt x="336" y="99" on="0"/>
        <pt x="409" y="161" on="0"/>
        <pt x="448" y="254" on="0"/>
        <pt x="448" y="300" on="1"/>
        <pt x="448" y="353" on="0"/>
        <pt x="395" y="431" on="0"/>
      </contour>
    </TTGlyph>
    <TTGlyph name="aogonek.ss01" xMin="22" yMin="-178" xMax="544" yMax="540">
      <contour>
        <pt x="414" y="-178" on="1"/>
        <pt x="356" y="-178" on="0"/>
        <pt x="298" y="-131" on="0"/>
        <pt x="298" y="-94" on="1"/>
        <pt x="298" y="-59" on="0"/>
        <pt x="339" y="-13" on="0"/>
        <pt x="364" y="0" on="1"/>
        <pt x="333" y="0" on="1"/>
        <pt x="346" y="62" on="1"/>
        <pt x="339" y="62" on="1"/>
        <pt x="334" y="55" on="0"/>
        <pt x="299" y="20" on="0"/>
        <pt x="235" y="-10" on="0"/>
        <pt x="186" y="-10" on="1"/>
        <pt x="109" y="-10" on="0"/>
        <pt x="22" y="72" on="0"/>
        <pt x="22" y="136" on="1"/>
        <pt x="22" y="180" on="0"/>
        <pt x="67" y="256" on="0"/>
        <pt x="162" y="305" on="0"/>
        <pt x="236" y="308" on="1"/>
        <pt x="400" y="317" on="1"/>
        <pt x="404" y="335" on="1"/>
        <pt x="409" y="360" on="0"/>
        <pt x="398" y="408" on="0"/>
        <pt x="357" y="439" on="0"/>
        <pt x="316" y="439" on="1"/>
        <pt x="281" y="439" on="0"/>
        <pt x="239" y="417" on="0"/>
        <pt x="217" y="387" on="0"/>
        <pt x="210" y="365" on="0"/>
        <pt x="210" y="365" on="1"/>
        <pt x="85" y="365" on="1"/>
        <pt x="85" y="365" on="0"/>
        <pt x="95" y="401" on="0"/>
        <pt x="124" y="453" on="0"/>
        <pt x="178" y="505" on="0"/>
        <pt x="263" y="540" on="0"/>
        <pt x="325" y="540" on="1"/>
        <pt x="405" y="540" on="0"/>
        <pt x="505" y="477" on="0"/>
        <pt x="544" y="376" on="0"/>
        <pt x="532" y="319" on="1"/>
        <pt x="464" y="0" on="1"/>
        <pt x="464" y="0" on="0"/>
        <pt x="444" y="-9" on="0"/>
        <pt x="418" y="-26" on="0"/>
        <pt x="397" y="-51" on="0"/>
        <pt x="397" y="-67" on="1"/>
        <pt x="397" y="-82" on="0"/>
        <pt x="421" y="-101" on="0"/>
        <pt x="446" y="-101" on="1"/>
        <pt x="458" y="-101" on="0"/>
        <pt x="481" y="-97" on="0"/>
        <pt x="481" y="-97" on="1"/>
        <pt x="465" y="-172" on="1"/>
        <pt x="465" y="-172" on="0"/>
        <pt x="437" y="-178" on="0"/>
      </contour>
      <contour>
        <pt x="154" y="148" on="1"/>
        <pt x="154" y="115" on="0"/>
        <pt x="203" y="84" on="0"/>
        <pt x="235" y="84" on="1"/>
        <pt x="286" y="84" on="0"/>
        <pt x="366" y="152" on="0"/>
        <pt x="378" y="209" on="1"/>
        <pt x="382" y="230" on="1"/>
        <pt x="253" y="222" on="1"/>
        <pt x="203" y="219" on="0"/>
        <pt x="154" y="179" on="0"/>
      </contour>
    </TTGlyph>
    <TTGlyph name="approxequal" xMin="121" yMin="160" xMax="473" yMax="524">
      <contour>
        <pt x="361" y="378" on="1"/>
        <pt x="335" y="378" on="0"/>
        <pt x="298" y="399" on="0"/>
        <pt x="270" y="425" on="0"/>
        <pt x="246" y="446" on="0"/>
        <pt x="232" y="446" on="1"/>
        <pt x="216" y="446" on="0"/>
        <pt x="197" y="413" on="0"/>
        <pt x="192" y="384" on="1"/>
        <pt x="121" y="384" on="1"/>
        <pt x="128" y="421" on="0"/>
        <pt x="153" y="484" on="0"/>
        <pt x="196" y="524" on="0"/>
        <pt x="233" y="524" on="1"/>
        <pt x="260" y="524" on="0"/>
        <pt x="297" y="503" on="0"/>
        <pt x="325" y="477" on="0"/>
        <pt x="349" y="457" on="0"/>
        <pt x="363" y="457" on="1"/>
        <pt x="379" y="457" on="0"/>
        <pt x="396" y="489" on="0"/>
        <pt x="402" y="518" on="1"/>
        <pt x="473" y="518" on="1"/>
        <pt x="466" y="483" on="0"/>
        <pt x="441" y="419" on="0"/>
        <pt x="398" y="378" on="0"/>
      </contour>
      <contour>
        <pt x="361" y="160" on="1"/>
        <pt x="335" y="160" on="0"/>
        <pt x="298" y="180" on="0"/>
        <pt x="270" y="207" on="0"/>
        <pt x="246" y="227" on="0"/>
        <pt x="232" y="227" on="1"/>
        <pt x="216" y="227" on="0"/>
        <pt x="197" y="195" on="0"/>
        <pt x="192" y="166" on="1"/>
        <pt x="121" y="166" on="1"/>
        <pt x="128" y="202" on="0"/>
        <pt x="153" y="265" on="0"/>
        <pt x="196" y="305" on="0"/>
        <pt x="233" y="305" on="1"/>
        <pt x="260" y="305" on="0"/>
        <pt x="297" y="285" on="0"/>
        <pt x="325" y="258" on="0"/>
        <pt x="349" y="238" on="0"/>
        <pt x="363" y="238" on="1"/>
        <pt x="379" y="238" on="0"/>
        <pt x="396" y="270" on="0"/>
        <pt x="402" y="299" on="1"/>
        <pt x="473" y="299" on="1"/>
        <pt x="466" y="264" on="0"/>
        <pt x="441" y="200" on="0"/>
        <pt x="398" y="160" on="0"/>
      </contour>
    </TTGlyph>
    <TTGlyph name="aring" xMin="40" yMin="-10" xMax="635" yMax="858">
      <contour>
        <pt x="388" y="592" on="1"/>
        <pt x="351" y="592" on="0"/>
        <pt x="290" y="628" on="0"/>
        <pt x="254" y="689" on="0"/>
        <pt x="254" y="726" on="1"/>
        <pt x="254" y="762" on="0"/>
        <pt x="290" y="823" on="0"/>
        <pt x="351" y="858" on="0"/>
        <pt x="388" y="858" on="1"/>
        <pt x="424" y="858" on="0"/>
        <pt x="485" y="823" on="0"/>
        <pt x="521" y="762" on="0"/>
        <pt x="521" y="726" on="1"/>
        <pt x="521" y="689" on="0"/>
        <pt x="485" y="628" on="0"/>
        <pt x="424" y="592" on="0"/>
      </contour>
      <contour>
        <pt x="388" y="669" on="1"/>
        <pt x="411" y="669" on="0"/>
        <pt x="444" y="702" on="0"/>
        <pt x="444" y="726" on="1"/>
        <pt x="444" y="749" on="0"/>
        <pt x="411" y="782" on="0"/>
        <pt x="388" y="782" on="1"/>
        <pt x="364" y="782" on="0"/>
        <pt x="331" y="749" on="0"/>
        <pt x="331" y="726" on="1"/>
        <pt x="331" y="702" on="0"/>
        <pt x="364" y="669" on="0"/>
      </contour>
      <contour>
        <pt x="316" y="540" on="1"/>
        <pt x="371" y="540" on="0"/>
        <pt x="438" y="504" on="0"/>
        <pt x="472" y="459" on="0"/>
        <pt x="477" y="446" on="1"/>
        <pt x="484" y="446" on="1"/>
        <pt x="502" y="530" on="1"/>
        <pt x="635" y="530" on="1"/>
        <pt x="523" y="0" on="1"/>
        <pt x="389" y="0" on="1"/>
        <pt x="404" y="68" on="1"/>
        <pt x="398" y="68" on="1"/>
        <pt x="398" y="68" on="0"/>
        <pt x="380" y="45" on="0"/>
        <pt x="343" y="14" on="0"/>
        <pt x="283" y="-10" on="0"/>
        <pt x="240" y="-10" on="1"/>
        <pt x="173" y="-10" on="0"/>
        <pt x="84" y="54" on="0"/>
        <pt x="40" y="159" on="0"/>
        <pt x="40" y="220" on="1"/>
        <pt x="40" y="276" on="0"/>
        <pt x="77" y="389" on="0"/>
        <pt x="148" y="483" on="0"/>
        <pt x="250" y="540" on="0"/>
      </contour>
      <contour>
        <pt x="337" y="431" on="1"/>
        <pt x="286" y="431" on="0"/>
        <pt x="212" y="369" on="0"/>
        <pt x="173" y="276" on="0"/>
        <pt x="173" y="229" on="1"/>
        <pt x="173" y="177" on="0"/>
        <pt x="226" y="99" on="0"/>
        <pt x="284" y="99" on="1"/>
        <pt x="336" y="99" on="0"/>
        <pt x="409" y="161" on="0"/>
        <pt x="448" y="254" on="0"/>
        <pt x="448" y="300" on="1"/>
        <pt x="448" y="353" on="0"/>
        <pt x="395" y="431" on="0"/>
      </contour>
    </TTGlyph>
    <TTGlyph name="aring.ss01" xMin="22" yMin="-10" xMax="544" yMax="858">
      <contour>
        <pt x="358" y="592" on="1"/>
        <pt x="321" y="592" on="0"/>
        <pt x="260" y="628" on="0"/>
        <pt x="224" y="689" on="0"/>
        <pt x="224" y="726" on="1"/>
        <pt x="224" y="762" on="0"/>
        <pt x="260" y="823" on="0"/>
        <pt x="321" y="858" on="0"/>
        <pt x="358" y="858" on="1"/>
        <pt x="394" y="858" on="0"/>
        <pt x="455" y="823" on="0"/>
        <pt x="491" y="762" on="0"/>
        <pt x="491" y="726" on="1"/>
        <pt x="491" y="689" on="0"/>
        <pt x="455" y="628" on="0"/>
        <pt x="394" y="592" on="0"/>
      </contour>
      <contour>
        <pt x="358" y="669" on="1"/>
        <pt x="381" y="669" on="0"/>
        <pt x="414" y="702" on="0"/>
        <pt x="414" y="726" on="1"/>
        <pt x="414" y="749" on="0"/>
        <pt x="381" y="782" on="0"/>
        <pt x="358" y="782" on="1"/>
        <pt x="334" y="782" on="0"/>
        <pt x="301" y="749" on="0"/>
        <pt x="301" y="726" on="1"/>
        <pt x="301" y="702" on="0"/>
        <pt x="334" y="669" on="0"/>
      </contour>
      <contour>
        <pt x="339" y="62" on="1"/>
        <pt x="334" y="55" on="0"/>
        <pt x="299" y="20" on="0"/>
        <pt x="235" y="-10" on="0"/>
        <pt x="186" y="-10" on="1"/>
        <pt x="109" y="-10" on="0"/>
        <pt x="22" y="72" on="0"/>
        <pt x="22" y="136" on="1"/>
        <pt x="22" y="180" on="0"/>
        <pt x="67" y="256" on="0"/>
        <pt x="162" y="305" on="0"/>
        <pt x="236" y="308" on="1"/>
        <pt x="400" y="317" on="1"/>
        <pt x="404" y="335" on="1"/>
        <pt x="409" y="360" on="0"/>
        <pt x="398" y="408" on="0"/>
        <pt x="357" y="439" on="0"/>
        <pt x="316" y="439" on="1"/>
        <pt x="281" y="439" on="0"/>
        <pt x="239" y="417" on="0"/>
        <pt x="217" y="387" on="0"/>
        <pt x="210" y="365" on="0"/>
        <pt x="210" y="365" on="1"/>
        <pt x="85" y="365" on="1"/>
        <pt x="85" y="365" on="0"/>
        <pt x="95" y="401" on="0"/>
        <pt x="124" y="453" on="0"/>
        <pt x="178" y="505" on="0"/>
        <pt x="263" y="540" on="0"/>
        <pt x="325" y="540" on="1"/>
        <pt x="405" y="540" on="0"/>
        <pt x="505" y="477" on="0"/>
        <pt x="544" y="376" on="0"/>
        <pt x="532" y="319" on="1"/>
        <pt x="464" y="0" on="1"/>
        <pt x="333" y="0" on="1"/>
        <pt x="346" y="62" on="1"/>
      </contour>
      <contour>
        <pt x="154" y="148" on="1"/>
        <pt x="154" y="115" on="0"/>
        <pt x="203" y="84" on="0"/>
        <pt x="235" y="84" on="1"/>
        <pt x="286" y="84" on="0"/>
        <pt x="366" y="152" on="0"/>
        <pt x="378" y="209" on="1"/>
        <pt x="382" y="230" on="1"/>
        <pt x="253" y="222" on="1"/>
        <pt x="203" y="219" on="0"/>
        <pt x="154" y="179" on="0"/>
      </contour>
    </TTGlyph>
    <TTGlyph name="asciicircum" xMin="159" yMin="564" xMax="520" yMax="740">
      <contour>
        <pt x="159" y="564" on="1"/>
        <pt x="323" y="740" on="1"/>
        <pt x="430" y="740" on="1"/>
        <pt x="520" y="564" on="1"/>
        <pt x="418" y="564" on="1"/>
        <pt x="368" y="669" on="1"/>
        <pt x="274" y="564" on="1"/>
      </contour>
    </TTGlyph>
    <TTGlyph name="asciitilde" xMin="91" yMin="316" xMax="442" yMax="461">
      <contour>
        <pt x="331" y="316" on="1"/>
        <pt x="305" y="316" on="0"/>
        <pt x="268" y="336" on="0"/>
        <pt x="240" y="363" on="0"/>
        <pt x="215" y="383" on="0"/>
        <pt x="201" y="383" on="1"/>
        <pt x="186" y="383" on="0"/>
        <pt x="167" y="351" on="0"/>
        <pt x="161" y="322" on="1"/>
        <pt x="91" y="322" on="1"/>
        <pt x="98" y="358" on="0"/>
        <pt x="122" y="421" on="0"/>
        <pt x="166" y="461" on="0"/>
        <pt x="203" y="461" on="1"/>
        <pt x="230" y="461" on="0"/>
        <pt x="267" y="441" on="0"/>
        <pt x="294" y="414" on="0"/>
        <pt x="319" y="394" on="0"/>
        <pt x="332" y="394" on="1"/>
        <pt x="348" y="394" on="0"/>
        <pt x="366" y="426" on="0"/>
        <pt x="372" y="455" on="1"/>
        <pt x="442" y="455" on="1"/>
        <pt x="435" y="420" on="0"/>
        <pt x="411" y="356" on="0"/>
        <pt x="367" y="316" on="0"/>
      </contour>
    </TTGlyph>
    <TTGlyph name="asterisk" xMin="101" yMin="333" xMax="528" yMax="740">
      <contour>
        <pt x="231" y="333" on="1"/>
        <pt x="152" y="390" on="1"/>
        <pt x="240" y="507" on="1"/>
        <pt x="101" y="549" on="1"/>
        <pt x="130" y="642" on="1"/>
        <pt x="268" y="594" on="1"/>
        <pt x="265" y="740" on="1"/>
        <pt x="363" y="740" on="1"/>
        <pt x="360" y="594" on="1"/>
        <pt x="499" y="642" on="1"/>
        <pt x="528" y="549" on="1"/>
        <pt x="389" y="507" on="1"/>
        <pt x="477" y="390" on="1"/>
        <pt x="398" y="333" on="1"/>
        <pt x="314" y="452" on="1"/>
      </contour>
    </TTGlyph>
    <TTGlyph name="at" xMin="47" yMin="-152" xMax="974" yMax="757">
      <contour>
        <pt x="489" y="-152" on="1"/>
        <pt x="375" y="-152" on="0"/>
        <pt x="209" y="-83" on="0"/>
        <pt x="100" y="35" on="0"/>
        <pt x="47" y="184" on="0"/>
        <pt x="47" y="264" on="1"/>
        <pt x="47" y="353" on="0"/>
        <pt x="111" y="528" on="0"/>
        <pt x="237" y="671" on="0"/>
        <pt x="423" y="757" on="0"/>
        <pt x="544" y="757" on="1"/>
        <pt x="658" y="757" on="0"/>
        <pt x="821" y="688" on="0"/>
        <pt x="925" y="574" on="0"/>
        <pt x="974" y="436" on="0"/>
        <pt x="974" y="366" on="1"/>
        <pt x="974" y="309" on="0"/>
        <pt x="943" y="204" on="0"/>
        <pt x="884" y="122" on="0"/>
        <pt x="799" y="74" on="0"/>
        <pt x="746" y="74" on="1"/>
        <pt x="701" y="74" on="0"/>
        <pt x="645" y="100" on="0"/>
        <pt x="616" y="134" on="0"/>
        <pt x="605" y="160" on="0"/>
        <pt x="605" y="160" on="1"/>
        <pt x="597" y="160" on="1"/>
        <pt x="597" y="160" on="0"/>
        <pt x="580" y="134" on="0"/>
        <pt x="544" y="100" on="0"/>
        <pt x="487" y="74" on="0"/>
        <pt x="447" y="74" on="1"/>
        <pt x="389" y="74" on="0"/>
        <pt x="316" y="126" on="0"/>
        <pt x="281" y="211" on="0"/>
        <pt x="281" y="259" on="1"/>
        <pt x="281" y="304" on="0"/>
        <pt x="310" y="394" on="0"/>
        <pt x="365" y="469" on="0"/>
        <pt x="445" y="514" on="0"/>
        <pt x="496" y="514" on="1"/>
        <pt x="532" y="514" on="0"/>
        <pt x="580" y="492" on="0"/>
        <pt x="609" y="463" on="0"/>
        <pt x="621" y="441" on="0"/>
        <pt x="621" y="441" on="1"/>
        <pt x="626" y="441" on="1"/>
        <pt x="640" y="506" on="1"/>
        <pt x="753" y="506" on="1"/>
        <pt x="709" y="297" on="1"/>
        <pt x="703" y="265" on="0"/>
        <pt x="701" y="205" on="0"/>
        <pt x="724" y="167" on="0"/>
        <pt x="753" y="167" on="1"/>
        <pt x="785" y="167" on="0"/>
        <pt x="836" y="223" on="0"/>
        <pt x="866" y="314" on="0"/>
        <pt x="866" y="366" on="1"/>
        <pt x="866" y="417" on="0"/>
        <pt x="832" y="520" on="0"/>
        <pt x="756" y="606" on="0"/>
        <pt x="634" y="657" on="0"/>
        <pt x="545" y="657" on="1"/>
        <pt x="449" y="657" on="0"/>
        <pt x="304" y="589" on="0"/>
        <pt x="206" y="474" on="0"/>
        <pt x="157" y="336" on="0"/>
        <pt x="157" y="266" on="1"/>
        <pt x="157" y="204" on="0"/>
        <pt x="196" y="90" on="0"/>
        <pt x="277" y="1" on="0"/>
        <pt x="403" y="-51" on="0"/>
        <pt x="488" y="-51" on="1"/>
        <pt x="538" y="-51" on="0"/>
        <pt x="626" y="-35" on="0"/>
        <pt x="693" y="-13" on="0"/>
        <pt x="732" y="3" on="0"/>
        <pt x="732" y="3" on="1"/>
        <pt x="767" y="-90" on="1"/>
        <pt x="767" y="-90" on="0"/>
        <pt x="727" y="-108" on="0"/>
        <pt x="653" y="-133" on="0"/>
        <pt x="551" y="-152" on="0"/>
      </contour>
      <contour>
        <pt x="474" y="167" on="1"/>
        <pt x="512" y="167" on="0"/>
        <pt x="567" y="214" on="0"/>
        <pt x="597" y="284" on="0"/>
        <pt x="597" y="320" on="1"/>
        <pt x="597" y="360" on="0"/>
        <pt x="556" y="420" on="0"/>
        <pt x="512" y="420" on="1"/>
        <pt x="474" y="420" on="0"/>
        <pt x="419" y="373" on="0"/>
        <pt x="390" y="303" on="0"/>
        <pt x="390" y="267" on="1"/>
        <pt x="390" y="227" on="0"/>
        <pt x="430" y="167" on="0"/>
      </contour>
    </TTGlyph>
    <TTGlyph name="atilde" xMin="40" yMin="-10" xMax="635" yMax="763">
      <contour>
        <pt x="473" y="614" on="1"/>
        <pt x="447" y="614" on="0"/>
        <pt x="409" y="634" on="0"/>
        <pt x="381" y="661" on="0"/>
        <pt x="356" y="681" on="0"/>
        <pt x="342" y="681" on="1"/>
        <pt x="314" y="681" on="0"/>
        <pt x="303" y="620" on="1"/>
        <pt x="229" y="620" on="1"/>
        <pt x="237" y="660" on="0"/>
        <pt x="262" y="724" on="0"/>
        <pt x="307" y="763" on="0"/>
        <pt x="344" y="763" on="1"/>
        <pt x="371" y="763" on="0"/>
        <pt x="409" y="743" on="0"/>
        <pt x="437" y="717" on="0"/>
        <pt x="461" y="698" on="0"/>
        <pt x="474" y="698" on="1"/>
        <pt x="490" y="698" on="0"/>
        <pt x="508" y="728" on="0"/>
        <pt x="513" y="757" on="1"/>
        <pt x="588" y="757" on="1"/>
        <pt x="580" y="718" on="0"/>
        <pt x="554" y="653" on="0"/>
        <pt x="509" y="614" on="0"/>
      </contour>
      <contour>
        <pt x="316" y="540" on="1"/>
        <pt x="371" y="540" on="0"/>
        <pt x="438" y="504" on="0"/>
        <pt x="472" y="459" on="0"/>
        <pt x="477" y="446" on="1"/>
        <pt x="484" y="446" on="1"/>
        <pt x="502" y="530" on="1"/>
        <pt x="635" y="530" on="1"/>
        <pt x="523" y="0" on="1"/>
        <pt x="389" y="0" on="1"/>
        <pt x="404" y="68" on="1"/>
        <pt x="398" y="68" on="1"/>
        <pt x="398" y="68" on="0"/>
        <pt x="380" y="45" on="0"/>
        <pt x="343" y="14" on="0"/>
        <pt x="283" y="-10" on="0"/>
        <pt x="240" y="-10" on="1"/>
        <pt x="173" y="-10" on="0"/>
        <pt x="84" y="54" on="0"/>
        <pt x="40" y="159" on="0"/>
        <pt x="40" y="220" on="1"/>
        <pt x="40" y="276" on="0"/>
        <pt x="77" y="389" on="0"/>
        <pt x="148" y="483" on="0"/>
        <pt x="250" y="540" on="0"/>
      </contour>
      <contour>
        <pt x="337" y="431" on="1"/>
        <pt x="286" y="431" on="0"/>
        <pt x="212" y="369" on="0"/>
        <pt x="173" y="276" on="0"/>
        <pt x="173" y="229" on="1"/>
        <pt x="173" y="177" on="0"/>
        <pt x="226" y="99" on="0"/>
        <pt x="284" y="99" on="1"/>
        <pt x="336" y="99" on="0"/>
        <pt x="409" y="161" on="0"/>
        <pt x="448" y="254" on="0"/>
        <pt x="448" y="300" on="1"/>
        <pt x="448" y="353" on="0"/>
        <pt x="395" y="431" on="0"/>
      </contour>
    </TTGlyph>
    <TTGlyph name="atilde.ss01" xMin="22" yMin="-10" xMax="557" yMax="763">
      <contour>
        <pt x="443" y="614" on="1"/>
        <pt x="416" y="614" on="0"/>
        <pt x="379" y="634" on="0"/>
        <pt x="351" y="661" on="0"/>
        <pt x="326" y="681" on="0"/>
        <pt x="312" y="681" on="1"/>
        <pt x="284" y="681" on="0"/>
        <pt x="273" y="620" on="1"/>
        <pt x="198" y="620" on="1"/>
        <pt x="206" y="660" on="0"/>
        <pt x="232" y="724" on="0"/>
        <pt x="277" y="763" on="0"/>
        <pt x="314" y="763" on="1"/>
        <pt x="341" y="763" on="0"/>
        <pt x="378" y="743" on="0"/>
        <pt x="406" y="717" on="0"/>
        <pt x="431" y="698" on="0"/>
        <pt x="444" y="698" on="1"/>
        <pt x="460" y="698" on="0"/>
        <pt x="477" y="728" on="0"/>
        <pt x="483" y="757" on="1"/>
        <pt x="557" y="757" on="1"/>
        <pt x="550" y="718" on="0"/>
        <pt x="524" y="653" on="0"/>
        <pt x="479" y="614" on="0"/>
      </contour>
      <contour>
        <pt x="339" y="62" on="1"/>
        <pt x="334" y="55" on="0"/>
        <pt x="299" y="20" on="0"/>
        <pt x="235" y="-10" on="0"/>
        <pt x="186" y="-10" on="1"/>
        <pt x="109" y="-10" on="0"/>
        <pt x="22" y="72" on="0"/>
        <pt x="22" y="136" on="1"/>
        <pt x="22" y="180" on="0"/>
        <pt x="67" y="256" on="0"/>
        <pt x="162" y="305" on="0"/>
        <pt x="236" y="308" on="1"/>
        <pt x="400" y="317" on="1"/>
        <pt x="404" y="335" on="1"/>
        <pt x="409" y="360" on="0"/>
        <pt x="398" y="408" on="0"/>
        <pt x="357" y="439" on="0"/>
        <pt x="316" y="439" on="1"/>
        <pt x="281" y="439" on="0"/>
        <pt x="239" y="417" on="0"/>
        <pt x="217" y="387" on="0"/>
        <pt x="210" y="365" on="0"/>
        <pt x="210" y="365" on="1"/>
        <pt x="85" y="365" on="1"/>
        <pt x="85" y="365" on="0"/>
        <pt x="95" y="401" on="0"/>
        <pt x="124" y="453" on="0"/>
        <pt x="178" y="505" on="0"/>
        <pt x="263" y="540" on="0"/>
        <pt x="325" y="540" on="1"/>
        <pt x="405" y="540" on="0"/>
        <pt x="505" y="477" on="0"/>
        <pt x="544" y="376" on="0"/>
        <pt x="532" y="319" on="1"/>
        <pt x="464" y="0" on="1"/>
        <pt x="333" y="0" on="1"/>
        <pt x="346" y="62" on="1"/>
      </contour>
      <contour>
        <pt x="154" y="148" on="1"/>
        <pt x="154" y="115" on="0"/>
        <pt x="203" y="84" on="0"/>
        <pt x="235" y="84" on="1"/>
        <pt x="286" y="84" on="0"/>
        <pt x="366" y="152" on="0"/>
        <pt x="378" y="209" on="1"/>
        <pt x="382" y="230" on="1"/>
        <pt x="253" y="222" on="1"/>
        <pt x="203" y="219" on="0"/>
        <pt x="154" y="179" on="0"/>
      </contour>
    </TTGlyph>
    <TTGlyph name="b" xMin="19" yMin="-10" xMax="615" yMax="760">
      <contour>
        <pt x="339" y="-10" on="1"/>
        <pt x="284" y="-10" on="0"/>
        <pt x="217" y="26" on="0"/>
        <pt x="183" y="71" on="0"/>
        <pt x="178" y="84" on="1"/>
        <pt x="171" y="84" on="1"/>
        <pt x="153" y="0" on="1"/>
        <pt x="19" y="0" on="1"/>
        <pt x="181" y="760" on="1"/>
        <pt x="315" y="760" on="1"/>
        <pt x="251" y="462" on="1"/>
        <pt x="257" y="462" on="1"/>
        <pt x="257" y="462" on="0"/>
        <pt x="275" y="485" on="0"/>
        <pt x="312" y="516" on="0"/>
        <pt x="372" y="540" on="0"/>
        <pt x="415" y="540" on="1"/>
        <pt x="482" y="540" on="0"/>
        <pt x="571" y="476" on="0"/>
        <pt x="615" y="371" on="0"/>
        <pt x="615" y="310" on="1"/>
        <pt x="615" y="254" on="0"/>
        <pt x="578" y="141" on="0"/>
        <pt x="507" y="47" on="0"/>
        <pt x="405" y="-10" on="0"/>
      </contour>
      <contour>
        <pt x="317" y="99" on="1"/>
        <pt x="369" y="99" on="0"/>
        <pt x="443" y="161" on="0"/>
        <pt x="482" y="254" on="0"/>
        <pt x="482" y="301" on="1"/>
        <pt x="482" y="353" on="0"/>
        <pt x="429" y="431" on="0"/>
        <pt x="370" y="431" on="1"/>
        <pt x="319" y="431" on="0"/>
        <pt x="246" y="369" on="0"/>
        <pt x="206" y="276" on="0"/>
        <pt x="206" y="230" on="1"/>
        <pt x="206" y="177" on="0"/>
        <pt x="260" y="99" on="0"/>
      </contour>
    </TTGlyph>
    <TTGlyph name="backslash" xMin="136" yMin="-171" xMax="385" yMax="828">
      <contour>
        <pt x="385" y="-171" on="1"/>
        <pt x="271" y="-171" on="1"/>
        <pt x="136" y="828" on="1"/>
        <pt x="249" y="828" on="1"/>
      </contour>
    </TTGlyph>
    <TTGlyph name="bar" xMin="43" yMin="-237" xMax="410" yMax="954">
      <contour>
        <pt x="43" y="-237" on="1"/>
        <pt x="296" y="954" on="1"/>
        <pt x="410" y="954" on="1"/>
        <pt x="157" y="-237" on="1"/>
      </contour>
    </TTGlyph>
    <TTGlyph name="braceleft" xMin="31" yMin="-208" xMax="554" yMax="847">
      <contour>
        <pt x="236" y="-208" on="1"/>
        <pt x="169" y="-208" on="0"/>
        <pt x="91" y="-158" on="0"/>
        <pt x="66" y="-71" on="0"/>
        <pt x="78" y="-16" on="1"/>
        <pt x="124" y="199" on="1"/>
        <pt x="137" y="263" on="0"/>
        <pt x="74" y="263" on="1"/>
        <pt x="31" y="263" on="1"/>
        <pt x="55" y="376" on="1"/>
        <pt x="96" y="376" on="1"/>
        <pt x="161" y="376" on="0"/>
        <pt x="176" y="443" on="1"/>
        <pt x="225" y="674" on="1"/>
        <pt x="242" y="759" on="0"/>
        <pt x="342" y="847" on="0"/>
        <pt x="429" y="847" on="1"/>
        <pt x="554" y="847" on="1"/>
        <pt x="529" y="732" on="1"/>
        <pt x="436" y="732" on="1"/>
        <pt x="402" y="732" on="0"/>
        <pt x="365" y="698" on="0"/>
        <pt x="358" y="664" on="1"/>
        <pt x="311" y="441" on="1"/>
        <pt x="301" y="393" on="0"/>
        <pt x="259" y="337" on="0"/>
        <pt x="211" y="322" on="1"/>
        <pt x="209" y="316" on="1"/>
        <pt x="252" y="301" on="0"/>
        <pt x="268" y="235" on="0"/>
        <pt x="258" y="192" on="1"/>
        <pt x="211" y="-30" on="1"/>
        <pt x="204" y="-62" on="0"/>
        <pt x="233" y="-94" on="0"/>
        <pt x="265" y="-94" on="1"/>
        <pt x="353" y="-94" on="1"/>
        <pt x="330" y="-208" on="1"/>
      </contour>
    </TTGlyph>
    <TTGlyph name="braceleft.case" xMin="31" yMin="-184" xMax="554" yMax="871">
      <contour>
        <pt x="236" y="-184" on="1"/>
        <pt x="169" y="-184" on="0"/>
        <pt x="91" y="-134" on="0"/>
        <pt x="66" y="-47" on="0"/>
        <pt x="78" y="8" on="1"/>
        <pt x="124" y="223" on="1"/>
        <pt x="137" y="287" on="0"/>
        <pt x="74" y="287" on="1"/>
        <pt x="31" y="287" on="1"/>
        <pt x="55" y="400" on="1"/>
        <pt x="96" y="400" on="1"/>
        <pt x="161" y="400" on="0"/>
        <pt x="176" y="467" on="1"/>
        <pt x="225" y="698" on="1"/>
        <pt x="242" y="783" on="0"/>
        <pt x="342" y="871" on="0"/>
        <pt x="429" y="871" on="1"/>
        <pt x="554" y="871" on="1"/>
        <pt x="529" y="756" on="1"/>
        <pt x="436" y="756" on="1"/>
        <pt x="402" y="756" on="0"/>
        <pt x="365" y="722" on="0"/>
        <pt x="358" y="688" on="1"/>
        <pt x="311" y="465" on="1"/>
        <pt x="301" y="417" on="0"/>
        <pt x="259" y="361" on="0"/>
        <pt x="211" y="346" on="1"/>
        <pt x="209" y="340" on="1"/>
        <pt x="252" y="325" on="0"/>
        <pt x="268" y="259" on="0"/>
        <pt x="258" y="216" on="1"/>
        <pt x="211" y="-6" on="1"/>
        <pt x="204" y="-38" on="0"/>
        <pt x="233" y="-70" on="0"/>
        <pt x="265" y="-70" on="1"/>
        <pt x="353" y="-70" on="1"/>
        <pt x="330" y="-184" on="1"/>
      </contour>
    </TTGlyph>
</ttFont>
